%TF.GenerationSoftware,KiCad,Pcbnew,5.1.10-88a1d61d58~90~ubuntu20.04.1*%
%TF.CreationDate,2021-07-22T12:56:01-07:00*%
%TF.ProjectId,TwinTCPO,5477696e-5443-4504-9f2e-6b696361645f,A*%
%TF.SameCoordinates,Original*%
%TF.FileFunction,Profile,NP*%
%FSLAX46Y46*%
G04 Gerber Fmt 4.6, Leading zero omitted, Abs format (unit mm)*
G04 Created by KiCad (PCBNEW 5.1.10-88a1d61d58~90~ubuntu20.04.1) date 2021-07-22 12:56:01*
%MOMM*%
%LPD*%
G01*
G04 APERTURE LIST*
%TA.AperFunction,Profile*%
%ADD10C,0.100000*%
%TD*%
G04 APERTURE END LIST*
D10*
X68000000Y-130800000D02*
X68000000Y-76850000D01*
X70000000Y-132800000D02*
G75*
G02*
X68000000Y-130800000I0J2000000D01*
G01*
X68000000Y-76850000D02*
G75*
G02*
X70000000Y-74850000I2000000J0D01*
G01*
X109100000Y-74850000D02*
X70000000Y-74850000D01*
X107550000Y-132800000D02*
X70000000Y-132800000D01*
X111100000Y-72850000D02*
G75*
G02*
X109100000Y-74850000I-2000000J0D01*
G01*
X107550000Y-132800000D02*
G75*
G02*
X109550000Y-134800000I0J-2000000D01*
G01*
X139145470Y-35964450D02*
X139079429Y-36057870D01*
X139079429Y-36057870D02*
X139013045Y-36146629D01*
X139013045Y-36146629D02*
X138928868Y-36227371D01*
X138928868Y-36227371D02*
X138818138Y-36255608D01*
X138818138Y-36255608D02*
X138726634Y-36212222D01*
X138726634Y-36212222D02*
X138643770Y-36128680D01*
X138643770Y-36128680D02*
X138533406Y-36065554D01*
X138533406Y-36065554D02*
X138422767Y-36002254D01*
X138422767Y-36002254D02*
X138311834Y-35938887D01*
X138311834Y-35938887D02*
X138200588Y-35875561D01*
X138200588Y-35875561D02*
X138089011Y-35812385D01*
X138089011Y-35812385D02*
X137977084Y-35749466D01*
X137977084Y-35749466D02*
X137864790Y-35686912D01*
X137864790Y-35686912D02*
X137752110Y-35624831D01*
X137752110Y-35624831D02*
X137639025Y-35563332D01*
X137639025Y-35563332D02*
X137525518Y-35502523D01*
X137525518Y-35502523D02*
X137411570Y-35442511D01*
X137411570Y-35442511D02*
X137297162Y-35383404D01*
X137297162Y-35383404D02*
X137182276Y-35325311D01*
X137182276Y-35325311D02*
X137066895Y-35268340D01*
X137066895Y-35268340D02*
X136950998Y-35212598D01*
X136950998Y-35212598D02*
X136834570Y-35158195D01*
X136834570Y-35158195D02*
X136717589Y-35105236D01*
X136717589Y-35105236D02*
X136600040Y-35053832D01*
X136600040Y-35053832D02*
X136481903Y-35004089D01*
X136481903Y-35004089D02*
X136363159Y-34956117D01*
X136363159Y-34956117D02*
X136243791Y-34910022D01*
X136243791Y-34910022D02*
X136123780Y-34865913D01*
X136123780Y-34865913D02*
X136003108Y-34823898D01*
X136003108Y-34823898D02*
X135881757Y-34784085D01*
X135881757Y-34784085D02*
X135759707Y-34746582D01*
X135759707Y-34746582D02*
X135636942Y-34711498D01*
X135636942Y-34711498D02*
X135513441Y-34678939D01*
X135513441Y-34678939D02*
X135389188Y-34649015D01*
X135389188Y-34649015D02*
X135264164Y-34621832D01*
X135264164Y-34621832D02*
X135138350Y-34597500D01*
X135138350Y-34597500D02*
X135011728Y-34576127D01*
X135011728Y-34576127D02*
X134884280Y-34557820D01*
X134884280Y-34557820D02*
X134731602Y-34557930D01*
X134731602Y-34557930D02*
X134580463Y-34565588D01*
X134580463Y-34565588D02*
X134430976Y-34580585D01*
X134430976Y-34580585D02*
X134283253Y-34602714D01*
X134283253Y-34602714D02*
X134137406Y-34631768D01*
X134137406Y-34631768D02*
X133993550Y-34667542D01*
X133993550Y-34667542D02*
X133851797Y-34709826D01*
X133851797Y-34709826D02*
X133712261Y-34758415D01*
X133712261Y-34758415D02*
X133575053Y-34813101D01*
X133575053Y-34813101D02*
X133440287Y-34873678D01*
X133440287Y-34873678D02*
X133308076Y-34939938D01*
X133308076Y-34939938D02*
X133178532Y-35011675D01*
X133178532Y-35011675D02*
X133051770Y-35088681D01*
X133051770Y-35088681D02*
X132927901Y-35170749D01*
X132927901Y-35170749D02*
X132807038Y-35257673D01*
X132807038Y-35257673D02*
X132689296Y-35349246D01*
X132689296Y-35349246D02*
X132574786Y-35445260D01*
X132574786Y-35445260D02*
X132463621Y-35545508D01*
X132463621Y-35545508D02*
X132355915Y-35649783D01*
X132355915Y-35649783D02*
X132251780Y-35757880D01*
X132251780Y-35757880D02*
X132151329Y-35869589D01*
X132151329Y-35869589D02*
X132054676Y-35984705D01*
X132054676Y-35984705D02*
X131961933Y-36103021D01*
X131961933Y-36103021D02*
X131873213Y-36224328D01*
X131873213Y-36224328D02*
X131788629Y-36348422D01*
X131788629Y-36348422D02*
X131708294Y-36475093D01*
X131708294Y-36475093D02*
X131632321Y-36604137D01*
X131632321Y-36604137D02*
X131560823Y-36735344D01*
X131560823Y-36735344D02*
X131493913Y-36868509D01*
X131493913Y-36868509D02*
X131431704Y-37003425D01*
X131431704Y-37003425D02*
X131374308Y-37139884D01*
X131374308Y-37139884D02*
X131321840Y-37277680D01*
X187230860Y-95770340D02*
X187308758Y-95548279D01*
X187308758Y-95548279D02*
X187384799Y-95324673D01*
X187384799Y-95324673D02*
X187458784Y-95099610D01*
X187458784Y-95099610D02*
X187530515Y-94873173D01*
X187530515Y-94873173D02*
X187599793Y-94645448D01*
X187599793Y-94645448D02*
X187666419Y-94416522D01*
X187666419Y-94416522D02*
X187730195Y-94186479D01*
X187730195Y-94186479D02*
X187790921Y-93955405D01*
X187790921Y-93955405D02*
X187848399Y-93723386D01*
X187848399Y-93723386D02*
X187902430Y-93490507D01*
X187902430Y-93490507D02*
X187952816Y-93256854D01*
X187952816Y-93256854D02*
X187999357Y-93022512D01*
X187999357Y-93022512D02*
X188041855Y-92787567D01*
X188041855Y-92787567D02*
X188080112Y-92552105D01*
X188080112Y-92552105D02*
X188113928Y-92316210D01*
X188113928Y-92316210D02*
X188143105Y-92079970D01*
X188143105Y-92079970D02*
X188167443Y-91843468D01*
X188167443Y-91843468D02*
X188186745Y-91606791D01*
X188186745Y-91606791D02*
X188200812Y-91370024D01*
X188200812Y-91370024D02*
X188209445Y-91133253D01*
X188209445Y-91133253D02*
X188212444Y-90896564D01*
X188212444Y-90896564D02*
X188209612Y-90660041D01*
X188209612Y-90660041D02*
X188200750Y-90423771D01*
X188200750Y-90423771D02*
X188185658Y-90187839D01*
X188185658Y-90187839D02*
X188164139Y-89952331D01*
X188164139Y-89952331D02*
X188135993Y-89717331D01*
X188135993Y-89717331D02*
X188101022Y-89482927D01*
X188101022Y-89482927D02*
X188059026Y-89249203D01*
X188059026Y-89249203D02*
X188009808Y-89016244D01*
X188009808Y-89016244D02*
X187953168Y-88784137D01*
X187953168Y-88784137D02*
X187888908Y-88552967D01*
X187888908Y-88552967D02*
X187816830Y-88322820D01*
X125650750Y-43839320D02*
X125696154Y-44006246D01*
X125696154Y-44006246D02*
X125743696Y-44172403D01*
X125743696Y-44172403D02*
X125793279Y-44337823D01*
X125793279Y-44337823D02*
X125844808Y-44502541D01*
X125844808Y-44502541D02*
X125898188Y-44666589D01*
X125898188Y-44666589D02*
X125953323Y-44830001D01*
X125953323Y-44830001D02*
X126010118Y-44992811D01*
X126010118Y-44992811D02*
X126068476Y-45155053D01*
X126068476Y-45155053D02*
X126128303Y-45316760D01*
X126128303Y-45316760D02*
X126189504Y-45477965D01*
X126189504Y-45477965D02*
X126251982Y-45638703D01*
X126251982Y-45638703D02*
X126315642Y-45799007D01*
X126315642Y-45799007D02*
X126380389Y-45958910D01*
X126380389Y-45958910D02*
X126446127Y-46118447D01*
X126446127Y-46118447D02*
X126512761Y-46277650D01*
X126512761Y-46277650D02*
X126580196Y-46436553D01*
X126580196Y-46436553D02*
X126648335Y-46595191D01*
X126648335Y-46595191D02*
X126717083Y-46753596D01*
X126717083Y-46753596D02*
X126786345Y-46911802D01*
X126786345Y-46911802D02*
X126856026Y-47069843D01*
X126856026Y-47069843D02*
X126926029Y-47227752D01*
X126926029Y-47227752D02*
X126996260Y-47385564D01*
X126996260Y-47385564D02*
X127066623Y-47543311D01*
X127066623Y-47543311D02*
X127137022Y-47701027D01*
X127137022Y-47701027D02*
X127207362Y-47858746D01*
X127207362Y-47858746D02*
X127277548Y-48016501D01*
X127277548Y-48016501D02*
X127347483Y-48174326D01*
X127347483Y-48174326D02*
X127417074Y-48332255D01*
X127417074Y-48332255D02*
X127486223Y-48490322D01*
X127486223Y-48490322D02*
X127554835Y-48648559D01*
X127554835Y-48648559D02*
X127622816Y-48807000D01*
X127622816Y-48807000D02*
X127690070Y-48965680D01*
X130990920Y-150391240D02*
X131160634Y-150271559D01*
X131160634Y-150271559D02*
X131327950Y-150148155D01*
X131327950Y-150148155D02*
X131492752Y-150021091D01*
X131492752Y-150021091D02*
X131654926Y-149890430D01*
X131654926Y-149890430D02*
X131814356Y-149756235D01*
X131814356Y-149756235D02*
X131970929Y-149618570D01*
X131970929Y-149618570D02*
X132124529Y-149477500D01*
X132124529Y-149477500D02*
X132275040Y-149333087D01*
X132275040Y-149333087D02*
X132422349Y-149185394D01*
X132422349Y-149185394D02*
X132566340Y-149034487D01*
X132566340Y-149034487D02*
X132706899Y-148880427D01*
X132706899Y-148880427D02*
X132843910Y-148723279D01*
X132843910Y-148723279D02*
X132977259Y-148563106D01*
X132977259Y-148563106D02*
X133106831Y-148399972D01*
X133106831Y-148399972D02*
X133232511Y-148233940D01*
X133232511Y-148233940D02*
X133354183Y-148065075D01*
X133354183Y-148065075D02*
X133471734Y-147893438D01*
X133471734Y-147893438D02*
X133585048Y-147719095D01*
X133585048Y-147719095D02*
X133694010Y-147542108D01*
X133694010Y-147542108D02*
X133798506Y-147362541D01*
X133798506Y-147362541D02*
X133898421Y-147180458D01*
X133898421Y-147180458D02*
X133993639Y-146995923D01*
X133993639Y-146995923D02*
X134084046Y-146808998D01*
X134084046Y-146808998D02*
X134169527Y-146619747D01*
X134169527Y-146619747D02*
X134249967Y-146428235D01*
X134249967Y-146428235D02*
X134325251Y-146234524D01*
X134325251Y-146234524D02*
X134395264Y-146038678D01*
X134395264Y-146038678D02*
X134459892Y-145840761D01*
X134459892Y-145840761D02*
X134519019Y-145640836D01*
X134519019Y-145640836D02*
X134572531Y-145438966D01*
X134572531Y-145438966D02*
X134620313Y-145235217D01*
X134620313Y-145235217D02*
X134662250Y-145029650D01*
X180243210Y-79582370D02*
X180236421Y-79039493D01*
X180236421Y-79039493D02*
X180218464Y-78497665D01*
X180218464Y-78497665D02*
X180189548Y-77956964D01*
X180189548Y-77956964D02*
X180149880Y-77417467D01*
X180149880Y-77417467D02*
X180099669Y-76879254D01*
X180099669Y-76879254D02*
X180039125Y-76342402D01*
X180039125Y-76342402D02*
X179968457Y-75806990D01*
X179968457Y-75806990D02*
X179887872Y-75273096D01*
X179887872Y-75273096D02*
X179797579Y-74740799D01*
X179797579Y-74740799D02*
X179697788Y-74210178D01*
X179697788Y-74210178D02*
X179588708Y-73681309D01*
X179588708Y-73681309D02*
X179470546Y-73154273D01*
X179470546Y-73154273D02*
X179343512Y-72629147D01*
X179343512Y-72629147D02*
X179207814Y-72106009D01*
X179207814Y-72106009D02*
X179063661Y-71584939D01*
X179063661Y-71584939D02*
X178911262Y-71066013D01*
X178911262Y-71066013D02*
X178750826Y-70549312D01*
X178750826Y-70549312D02*
X178582561Y-70034912D01*
X178582561Y-70034912D02*
X178406676Y-69522893D01*
X178406676Y-69522893D02*
X178223380Y-69013333D01*
X178223380Y-69013333D02*
X178032882Y-68506310D01*
X178032882Y-68506310D02*
X177835390Y-68001903D01*
X177835390Y-68001903D02*
X177631114Y-67500189D01*
X177631114Y-67500189D02*
X177420261Y-67001248D01*
X177420261Y-67001248D02*
X177203041Y-66505158D01*
X177203041Y-66505158D02*
X176979662Y-66011997D01*
X176979662Y-66011997D02*
X176750334Y-65521843D01*
X176750334Y-65521843D02*
X176515264Y-65034775D01*
X176515264Y-65034775D02*
X176274662Y-64550872D01*
X176274662Y-64550872D02*
X176028736Y-64070210D01*
X176028736Y-64070210D02*
X175777696Y-63592870D01*
X175777696Y-63592870D02*
X175521750Y-63118930D01*
X126551860Y-39696450D02*
X126441716Y-39789891D01*
X126441716Y-39789891D02*
X126337322Y-39887859D01*
X126337322Y-39887859D02*
X126238629Y-39990132D01*
X126238629Y-39990132D02*
X126145593Y-40096490D01*
X126145593Y-40096490D02*
X126058168Y-40206714D01*
X126058168Y-40206714D02*
X125976307Y-40320584D01*
X125976307Y-40320584D02*
X125899965Y-40437878D01*
X125899965Y-40437878D02*
X125829096Y-40558377D01*
X125829096Y-40558377D02*
X125763654Y-40681860D01*
X125763654Y-40681860D02*
X125703592Y-40808108D01*
X125703592Y-40808108D02*
X125648866Y-40936900D01*
X125648866Y-40936900D02*
X125599430Y-41068016D01*
X125599430Y-41068016D02*
X125555236Y-41201236D01*
X125555236Y-41201236D02*
X125516240Y-41336340D01*
X125516240Y-41336340D02*
X125482396Y-41473108D01*
X125482396Y-41473108D02*
X125453657Y-41611318D01*
X125453657Y-41611318D02*
X125429978Y-41750752D01*
X125429978Y-41750752D02*
X125411313Y-41891189D01*
X125411313Y-41891189D02*
X125397616Y-42032409D01*
X125397616Y-42032409D02*
X125388840Y-42174191D01*
X125388840Y-42174191D02*
X125384941Y-42316316D01*
X125384941Y-42316316D02*
X125385872Y-42458563D01*
X125385872Y-42458563D02*
X125391588Y-42600712D01*
X125391588Y-42600712D02*
X125402042Y-42742543D01*
X125402042Y-42742543D02*
X125417189Y-42883836D01*
X125417189Y-42883836D02*
X125436982Y-43024370D01*
X125436982Y-43024370D02*
X125461376Y-43163926D01*
X125461376Y-43163926D02*
X125490324Y-43302283D01*
X125490324Y-43302283D02*
X125523782Y-43439221D01*
X125523782Y-43439221D02*
X125561703Y-43574520D01*
X125561703Y-43574520D02*
X125604040Y-43707959D01*
X125604040Y-43707959D02*
X125650750Y-43839320D01*
X112134170Y-145877510D02*
X112289919Y-146131197D01*
X112289919Y-146131197D02*
X112453156Y-146378816D01*
X112453156Y-146378816D02*
X112623657Y-146620388D01*
X112623657Y-146620388D02*
X112801195Y-146855930D01*
X112801195Y-146855930D02*
X112985545Y-147085464D01*
X112985545Y-147085464D02*
X113176480Y-147309009D01*
X113176480Y-147309009D02*
X113373774Y-147526584D01*
X113373774Y-147526584D02*
X113577203Y-147738209D01*
X113577203Y-147738209D02*
X113786540Y-147943904D01*
X113786540Y-147943904D02*
X114001559Y-148143688D01*
X114001559Y-148143688D02*
X114222034Y-148337580D01*
X114222034Y-148337580D02*
X114447741Y-148525602D01*
X114447741Y-148525602D02*
X114678452Y-148707772D01*
X114678452Y-148707772D02*
X114913942Y-148884109D01*
X114913942Y-148884109D02*
X115153985Y-149054635D01*
X115153985Y-149054635D02*
X115398356Y-149219367D01*
X115398356Y-149219367D02*
X115646828Y-149378326D01*
X115646828Y-149378326D02*
X115899176Y-149531532D01*
X115899176Y-149531532D02*
X116155174Y-149679004D01*
X116155174Y-149679004D02*
X116414596Y-149820761D01*
X116414596Y-149820761D02*
X116677217Y-149956824D01*
X116677217Y-149956824D02*
X116942810Y-150087212D01*
X116942810Y-150087212D02*
X117211150Y-150211944D01*
X117211150Y-150211944D02*
X117482010Y-150331041D01*
X117482010Y-150331041D02*
X117755166Y-150444522D01*
X117755166Y-150444522D02*
X118030391Y-150552407D01*
X118030391Y-150552407D02*
X118307459Y-150654714D01*
X118307459Y-150654714D02*
X118586145Y-150751465D01*
X118586145Y-150751465D02*
X118866223Y-150842678D01*
X118866223Y-150842678D02*
X119147467Y-150928374D01*
X119147467Y-150928374D02*
X119429651Y-151008571D01*
X119429651Y-151008571D02*
X119712550Y-151083290D01*
X153832280Y-132472730D02*
X154054120Y-132738327D01*
X154054120Y-132738327D02*
X154278393Y-133001755D01*
X154278393Y-133001755D02*
X154505047Y-133263043D01*
X154505047Y-133263043D02*
X154734030Y-133522216D01*
X154734030Y-133522216D02*
X154965292Y-133779303D01*
X154965292Y-133779303D02*
X155198780Y-134034332D01*
X155198780Y-134034332D02*
X155434444Y-134287328D01*
X155434444Y-134287328D02*
X155672233Y-134538321D01*
X155672233Y-134538321D02*
X155912095Y-134787337D01*
X155912095Y-134787337D02*
X156153979Y-135034404D01*
X156153979Y-135034404D02*
X156397834Y-135279549D01*
X156397834Y-135279549D02*
X156643609Y-135522799D01*
X156643609Y-135522799D02*
X156891252Y-135764182D01*
X156891252Y-135764182D02*
X157140711Y-136003726D01*
X157140711Y-136003726D02*
X157391937Y-136241458D01*
X157391937Y-136241458D02*
X157644877Y-136477405D01*
X157644877Y-136477405D02*
X157899480Y-136711594D01*
X157899480Y-136711594D02*
X158155696Y-136944054D01*
X158155696Y-136944054D02*
X158413472Y-137174811D01*
X158413472Y-137174811D02*
X158672758Y-137403893D01*
X158672758Y-137403893D02*
X158933502Y-137631327D01*
X158933502Y-137631327D02*
X159195653Y-137857141D01*
X159195653Y-137857141D02*
X159459160Y-138081362D01*
X159459160Y-138081362D02*
X159723972Y-138304018D01*
X159723972Y-138304018D02*
X159990037Y-138525136D01*
X159990037Y-138525136D02*
X160257304Y-138744743D01*
X160257304Y-138744743D02*
X160525722Y-138962867D01*
X160525722Y-138962867D02*
X160795239Y-139179535D01*
X160795239Y-139179535D02*
X161065805Y-139394775D01*
X161065805Y-139394775D02*
X161337368Y-139608614D01*
X161337368Y-139608614D02*
X161609876Y-139821080D01*
X161609876Y-139821080D02*
X161883280Y-140032200D01*
X109550000Y-134800000D02*
X109583995Y-135155492D01*
X109583995Y-135155492D02*
X109618762Y-135511452D01*
X109618762Y-135511452D02*
X109654524Y-135867772D01*
X109654524Y-135867772D02*
X109691505Y-136224346D01*
X109691505Y-136224346D02*
X109729931Y-136581066D01*
X109729931Y-136581066D02*
X109770027Y-136937826D01*
X109770027Y-136937826D02*
X109812016Y-137294519D01*
X109812016Y-137294519D02*
X109856123Y-137651038D01*
X109856123Y-137651038D02*
X109902574Y-138007277D01*
X109902574Y-138007277D02*
X109951591Y-138363127D01*
X109951591Y-138363127D02*
X110003401Y-138718484D01*
X110003401Y-138718484D02*
X110058228Y-139073239D01*
X110058228Y-139073239D02*
X110116296Y-139427285D01*
X110116296Y-139427285D02*
X110177830Y-139780517D01*
X110177830Y-139780517D02*
X110243055Y-140132827D01*
X110243055Y-140132827D02*
X110312195Y-140484108D01*
X110312195Y-140484108D02*
X110385474Y-140834254D01*
X110385474Y-140834254D02*
X110463118Y-141183157D01*
X110463118Y-141183157D02*
X110545351Y-141530711D01*
X110545351Y-141530711D02*
X110632397Y-141876809D01*
X110632397Y-141876809D02*
X110724482Y-142221343D01*
X110724482Y-142221343D02*
X110821829Y-142564208D01*
X110821829Y-142564208D02*
X110924664Y-142905297D01*
X110924664Y-142905297D02*
X111033211Y-143244501D01*
X111033211Y-143244501D02*
X111147694Y-143581716D01*
X111147694Y-143581716D02*
X111268339Y-143916833D01*
X111268339Y-143916833D02*
X111395369Y-144249746D01*
X111395369Y-144249746D02*
X111529010Y-144580348D01*
X111529010Y-144580348D02*
X111669486Y-144908532D01*
X111669486Y-144908532D02*
X111817021Y-145234192D01*
X111817021Y-145234192D02*
X111971841Y-145557220D01*
X111971841Y-145557220D02*
X112134170Y-145877510D01*
X137094390Y-131162120D02*
X137112819Y-131040826D01*
X137112819Y-131040826D02*
X137131398Y-130919289D01*
X137131398Y-130919289D02*
X137150133Y-130797537D01*
X137150133Y-130797537D02*
X137169029Y-130675603D01*
X137169029Y-130675603D02*
X137188092Y-130553517D01*
X137188092Y-130553517D02*
X137207327Y-130431309D01*
X137207327Y-130431309D02*
X137226740Y-130309012D01*
X137226740Y-130309012D02*
X137246337Y-130186655D01*
X137246337Y-130186655D02*
X137266123Y-130064269D01*
X137266123Y-130064269D02*
X137286103Y-129941885D01*
X137286103Y-129941885D02*
X137306284Y-129819535D01*
X137306284Y-129819535D02*
X137326671Y-129697249D01*
X137326671Y-129697249D02*
X137347269Y-129575057D01*
X137347269Y-129575057D02*
X137368085Y-129452991D01*
X137368085Y-129452991D02*
X137389123Y-129331082D01*
X137389123Y-129331082D02*
X137410390Y-129209360D01*
X183449450Y-102307590D02*
X183627734Y-102145643D01*
X183627734Y-102145643D02*
X183801456Y-101979743D01*
X183801456Y-101979743D02*
X183970684Y-101810009D01*
X183970684Y-101810009D02*
X184135487Y-101636566D01*
X184135487Y-101636566D02*
X184295934Y-101459535D01*
X184295934Y-101459535D02*
X184452092Y-101279038D01*
X184452092Y-101279038D02*
X184604029Y-101095199D01*
X184604029Y-101095199D02*
X184751815Y-100908138D01*
X184751815Y-100908138D02*
X184895518Y-100717978D01*
X184895518Y-100717978D02*
X185035205Y-100524842D01*
X185035205Y-100524842D02*
X185170945Y-100328852D01*
X185170945Y-100328852D02*
X185302808Y-100130131D01*
X185302808Y-100130131D02*
X185430860Y-99928799D01*
X185430860Y-99928799D02*
X185555170Y-99724981D01*
X185555170Y-99724981D02*
X185675807Y-99518798D01*
X185675807Y-99518798D02*
X185792840Y-99310372D01*
X185792840Y-99310372D02*
X185906335Y-99099825D01*
X185906335Y-99099825D02*
X186016362Y-98887281D01*
X186016362Y-98887281D02*
X186122990Y-98672860D01*
X186122990Y-98672860D02*
X186226286Y-98456686D01*
X186226286Y-98456686D02*
X186326319Y-98238881D01*
X186326319Y-98238881D02*
X186423157Y-98019567D01*
X186423157Y-98019567D02*
X186516868Y-97798867D01*
X186516868Y-97798867D02*
X186607521Y-97576902D01*
X186607521Y-97576902D02*
X186695185Y-97353795D01*
X186695185Y-97353795D02*
X186779927Y-97129668D01*
X186779927Y-97129668D02*
X186861816Y-96904644D01*
X186861816Y-96904644D02*
X186940921Y-96678844D01*
X186940921Y-96678844D02*
X187017309Y-96452392D01*
X187017309Y-96452392D02*
X187091049Y-96225408D01*
X187091049Y-96225408D02*
X187162210Y-95998017D01*
X187162210Y-95998017D02*
X187230860Y-95770340D01*
X184242950Y-81994710D02*
X184138401Y-81890735D01*
X184138401Y-81890735D02*
X184032251Y-81788382D01*
X184032251Y-81788382D02*
X183924526Y-81687674D01*
X183924526Y-81687674D02*
X183815254Y-81588631D01*
X183815254Y-81588631D02*
X183704466Y-81491277D01*
X183704466Y-81491277D02*
X183592188Y-81395634D01*
X183592188Y-81395634D02*
X183478449Y-81301724D01*
X183478449Y-81301724D02*
X183363277Y-81209570D01*
X183363277Y-81209570D02*
X183246702Y-81119192D01*
X183246702Y-81119192D02*
X183128751Y-81030615D01*
X183128751Y-81030615D02*
X183009452Y-80943860D01*
X183009452Y-80943860D02*
X182888835Y-80858950D01*
X182888835Y-80858950D02*
X182766927Y-80775906D01*
X182766927Y-80775906D02*
X182643757Y-80694751D01*
X182643757Y-80694751D02*
X182519353Y-80615507D01*
X182519353Y-80615507D02*
X182393743Y-80538197D01*
X182393743Y-80538197D02*
X182266957Y-80462843D01*
X182266957Y-80462843D02*
X182139021Y-80389466D01*
X182139021Y-80389466D02*
X182009966Y-80318091D01*
X182009966Y-80318091D02*
X181879819Y-80248737D01*
X181879819Y-80248737D02*
X181748608Y-80181429D01*
X181748608Y-80181429D02*
X181616361Y-80116188D01*
X181616361Y-80116188D02*
X181483108Y-80053036D01*
X181483108Y-80053036D02*
X181348877Y-79991996D01*
X181348877Y-79991996D02*
X181213696Y-79933090D01*
X181213696Y-79933090D02*
X181077593Y-79876340D01*
X181077593Y-79876340D02*
X180940597Y-79821769D01*
X180940597Y-79821769D02*
X180802735Y-79769398D01*
X180802735Y-79769398D02*
X180664038Y-79719251D01*
X180664038Y-79719251D02*
X180524532Y-79671349D01*
X180524532Y-79671349D02*
X180384246Y-79625714D01*
X180384246Y-79625714D02*
X180243210Y-79582370D01*
X127690070Y-48965680D02*
X127454335Y-49058543D01*
X127454335Y-49058543D02*
X127219335Y-49153078D01*
X127219335Y-49153078D02*
X126985062Y-49249257D01*
X126985062Y-49249257D02*
X126751510Y-49347051D01*
X126751510Y-49347051D02*
X126518670Y-49446430D01*
X126518670Y-49446430D02*
X126286535Y-49547366D01*
X126286535Y-49547366D02*
X126055098Y-49649830D01*
X126055098Y-49649830D02*
X125824352Y-49753792D01*
X125824352Y-49753792D02*
X125594288Y-49859225D01*
X125594288Y-49859225D02*
X125364900Y-49966099D01*
X125364900Y-49966099D02*
X125136180Y-50074385D01*
X125136180Y-50074385D02*
X124908120Y-50184054D01*
X124908120Y-50184054D02*
X124680714Y-50295078D01*
X124680714Y-50295078D02*
X124453954Y-50407427D01*
X124453954Y-50407427D02*
X124227832Y-50521073D01*
X124227832Y-50521073D02*
X124002341Y-50635987D01*
X124002341Y-50635987D02*
X123777473Y-50752140D01*
X123777473Y-50752140D02*
X123553222Y-50869502D01*
X123553222Y-50869502D02*
X123329580Y-50988046D01*
X123329580Y-50988046D02*
X123106539Y-51107741D01*
X123106539Y-51107741D02*
X122884092Y-51228560D01*
X122884092Y-51228560D02*
X122662231Y-51350474D01*
X122662231Y-51350474D02*
X122440949Y-51473453D01*
X122440949Y-51473453D02*
X122220239Y-51597468D01*
X122220239Y-51597468D02*
X122000094Y-51722491D01*
X122000094Y-51722491D02*
X121780505Y-51848493D01*
X121780505Y-51848493D02*
X121561465Y-51975444D01*
X121561465Y-51975444D02*
X121342968Y-52103317D01*
X121342968Y-52103317D02*
X121125005Y-52232082D01*
X121125005Y-52232082D02*
X120907569Y-52361710D01*
X120907569Y-52361710D02*
X120690653Y-52492172D01*
X120690653Y-52492172D02*
X120474250Y-52623440D01*
X124246720Y-152891770D02*
X124360004Y-152931336D01*
X124360004Y-152931336D02*
X124474617Y-152966703D01*
X124474617Y-152966703D02*
X124590411Y-152997884D01*
X124590411Y-152997884D02*
X124707236Y-153024890D01*
X124707236Y-153024890D02*
X124824945Y-153047732D01*
X124824945Y-153047732D02*
X124943390Y-153066422D01*
X124943390Y-153066422D02*
X125062423Y-153080972D01*
X125062423Y-153080972D02*
X125181895Y-153091393D01*
X125181895Y-153091393D02*
X125301659Y-153097696D01*
X125301659Y-153097696D02*
X125421567Y-153099894D01*
X125421567Y-153099894D02*
X125541469Y-153097999D01*
X125541469Y-153097999D02*
X125661219Y-153092020D01*
X125661219Y-153092020D02*
X125780668Y-153081971D01*
X125780668Y-153081971D02*
X125899668Y-153067863D01*
X125899668Y-153067863D02*
X126018071Y-153049707D01*
X126018071Y-153049707D02*
X126135728Y-153027515D01*
X126135728Y-153027515D02*
X126252492Y-153001298D01*
X126252492Y-153001298D02*
X126368215Y-152971069D01*
X126368215Y-152971069D02*
X126482748Y-152936838D01*
X126482748Y-152936838D02*
X126595944Y-152898618D01*
X126595944Y-152898618D02*
X126707654Y-152856419D01*
X126707654Y-152856419D02*
X126817729Y-152810254D01*
X126817729Y-152810254D02*
X126926023Y-152760134D01*
X126926023Y-152760134D02*
X127032387Y-152706071D01*
X127032387Y-152706071D02*
X127136672Y-152648077D01*
X127136672Y-152648077D02*
X127238731Y-152586162D01*
X127238731Y-152586162D02*
X127338416Y-152520338D01*
X127338416Y-152520338D02*
X127435578Y-152450618D01*
X127435578Y-152450618D02*
X127530070Y-152377012D01*
X127530070Y-152377012D02*
X127621743Y-152299533D01*
X127621743Y-152299533D02*
X127710449Y-152218192D01*
X127710449Y-152218192D02*
X127796040Y-152133000D01*
X183928620Y-118827330D02*
X183917378Y-118391567D01*
X183917378Y-118391567D02*
X183904092Y-117955870D01*
X183904092Y-117955870D02*
X183888913Y-117520236D01*
X183888913Y-117520236D02*
X183871991Y-117084662D01*
X183871991Y-117084662D02*
X183853475Y-116649144D01*
X183853475Y-116649144D02*
X183833517Y-116213680D01*
X183833517Y-116213680D02*
X183812265Y-115778266D01*
X183812265Y-115778266D02*
X183789871Y-115342899D01*
X183789871Y-115342899D02*
X183766484Y-114907576D01*
X183766484Y-114907576D02*
X183742255Y-114472294D01*
X183742255Y-114472294D02*
X183717334Y-114037049D01*
X183717334Y-114037049D02*
X183691870Y-113601839D01*
X183691870Y-113601839D02*
X183666015Y-113166660D01*
X183666015Y-113166660D02*
X183639917Y-112731509D01*
X183639917Y-112731509D02*
X183613729Y-112296384D01*
X183613729Y-112296384D02*
X183587598Y-111861280D01*
X183587598Y-111861280D02*
X183561677Y-111426194D01*
X183561677Y-111426194D02*
X183536114Y-110991124D01*
X183536114Y-110991124D02*
X183511060Y-110556066D01*
X183511060Y-110556066D02*
X183486665Y-110121018D01*
X183486665Y-110121018D02*
X183463080Y-109685975D01*
X183463080Y-109685975D02*
X183440454Y-109250936D01*
X183440454Y-109250936D02*
X183418938Y-108815896D01*
X183418938Y-108815896D02*
X183398681Y-108380852D01*
X183398681Y-108380852D02*
X183379835Y-107945802D01*
X183379835Y-107945802D02*
X183362548Y-107510742D01*
X183362548Y-107510742D02*
X183346972Y-107075669D01*
X183346972Y-107075669D02*
X183333256Y-106640580D01*
X183333256Y-106640580D02*
X183321551Y-106205472D01*
X183321551Y-106205472D02*
X183312006Y-105770341D01*
X183312006Y-105770341D02*
X183304772Y-105335185D01*
X183304772Y-105335185D02*
X183300000Y-104900000D01*
X127796040Y-152133000D02*
X127897121Y-152080814D01*
X127897121Y-152080814D02*
X127998552Y-152029231D01*
X127998552Y-152029231D02*
X128100289Y-151978177D01*
X128100289Y-151978177D02*
X128202291Y-151927576D01*
X128202291Y-151927576D02*
X128304513Y-151877354D01*
X128304513Y-151877354D02*
X128406914Y-151827436D01*
X128406914Y-151827436D02*
X128509449Y-151777747D01*
X128509449Y-151777747D02*
X128612076Y-151728212D01*
X128612076Y-151728212D02*
X128714752Y-151678757D01*
X128714752Y-151678757D02*
X128817434Y-151629307D01*
X128817434Y-151629307D02*
X128920079Y-151579786D01*
X128920079Y-151579786D02*
X129022644Y-151530121D01*
X129022644Y-151530121D02*
X129125085Y-151480236D01*
X129125085Y-151480236D02*
X129227361Y-151430057D01*
X129227361Y-151430057D02*
X129329427Y-151379509D01*
X129329427Y-151379509D02*
X129431242Y-151328517D01*
X129431242Y-151328517D02*
X129532762Y-151277006D01*
X129532762Y-151277006D02*
X129633943Y-151224902D01*
X129633943Y-151224902D02*
X129734744Y-151172129D01*
X129734744Y-151172129D02*
X129835120Y-151118613D01*
X129835120Y-151118613D02*
X129935030Y-151064279D01*
X129935030Y-151064279D02*
X130034429Y-151009053D01*
X130034429Y-151009053D02*
X130133276Y-150952859D01*
X130133276Y-150952859D02*
X130231527Y-150895623D01*
X130231527Y-150895623D02*
X130329138Y-150837270D01*
X130329138Y-150837270D02*
X130426068Y-150777725D01*
X130426068Y-150777725D02*
X130522273Y-150716914D01*
X130522273Y-150716914D02*
X130617710Y-150654761D01*
X130617710Y-150654761D02*
X130712336Y-150591192D01*
X130712336Y-150591192D02*
X130806109Y-150526132D01*
X130806109Y-150526132D02*
X130898984Y-150459506D01*
X130898984Y-150459506D02*
X130990920Y-150391240D01*
X150403680Y-126302040D02*
X150468696Y-126514909D01*
X150468696Y-126514909D02*
X150536577Y-126726843D01*
X150536577Y-126726843D02*
X150607309Y-126937806D01*
X150607309Y-126937806D02*
X150680876Y-127147763D01*
X150680876Y-127147763D02*
X150757265Y-127356676D01*
X150757265Y-127356676D02*
X150836461Y-127564512D01*
X150836461Y-127564512D02*
X150918447Y-127771233D01*
X150918447Y-127771233D02*
X151003211Y-127976805D01*
X151003211Y-127976805D02*
X151090737Y-128181191D01*
X151090737Y-128181191D02*
X151181010Y-128384356D01*
X151181010Y-128384356D02*
X151274016Y-128586264D01*
X151274016Y-128586264D02*
X151369740Y-128786880D01*
X151369740Y-128786880D02*
X151468167Y-128986167D01*
X151468167Y-128986167D02*
X151569282Y-129184091D01*
X151569282Y-129184091D02*
X151673071Y-129380614D01*
X151673071Y-129380614D02*
X151779520Y-129575702D01*
X151779520Y-129575702D02*
X151888612Y-129769319D01*
X151888612Y-129769319D02*
X152000334Y-129961428D01*
X152000334Y-129961428D02*
X152114670Y-130151996D01*
X152114670Y-130151996D02*
X152231607Y-130340984D01*
X152231607Y-130340984D02*
X152351128Y-130528359D01*
X152351128Y-130528359D02*
X152473221Y-130714083D01*
X152473221Y-130714083D02*
X152597869Y-130898123D01*
X152597869Y-130898123D02*
X152725058Y-131080440D01*
X152725058Y-131080440D02*
X152854773Y-131261001D01*
X152854773Y-131261001D02*
X152987000Y-131439769D01*
X152987000Y-131439769D02*
X153121724Y-131616709D01*
X153121724Y-131616709D02*
X153258930Y-131791784D01*
X153258930Y-131791784D02*
X153398603Y-131964960D01*
X153398603Y-131964960D02*
X153540729Y-132136200D01*
X153540729Y-132136200D02*
X153685293Y-132305468D01*
X153685293Y-132305468D02*
X153832280Y-132472730D01*
X175521750Y-63118930D02*
X175309621Y-62745001D01*
X175309621Y-62745001D02*
X175092291Y-62373449D01*
X175092291Y-62373449D02*
X174869755Y-62004456D01*
X174869755Y-62004456D02*
X174642005Y-61638206D01*
X174642005Y-61638206D02*
X174409037Y-61274883D01*
X174409037Y-61274883D02*
X174170844Y-60914672D01*
X174170844Y-60914672D02*
X173927421Y-60557757D01*
X173927421Y-60557757D02*
X173678761Y-60204321D01*
X173678761Y-60204321D02*
X173424858Y-59854548D01*
X173424858Y-59854548D02*
X173165706Y-59508623D01*
X173165706Y-59508623D02*
X172901300Y-59166730D01*
X172901300Y-59166730D02*
X172631634Y-58829052D01*
X172631634Y-58829052D02*
X172356701Y-58495774D01*
X172356701Y-58495774D02*
X172076495Y-58167079D01*
X172076495Y-58167079D02*
X171791011Y-57843152D01*
X171791011Y-57843152D02*
X171500243Y-57524177D01*
X171500243Y-57524177D02*
X171204185Y-57210337D01*
X171204185Y-57210337D02*
X170902830Y-56901817D01*
X170902830Y-56901817D02*
X170596173Y-56598801D01*
X170596173Y-56598801D02*
X170284207Y-56301473D01*
X170284207Y-56301473D02*
X169966928Y-56010016D01*
X169966928Y-56010016D02*
X169644328Y-55724615D01*
X169644328Y-55724615D02*
X169316402Y-55445454D01*
X169316402Y-55445454D02*
X168983144Y-55172717D01*
X168983144Y-55172717D02*
X168644548Y-54906588D01*
X168644548Y-54906588D02*
X168300608Y-54647250D01*
X168300608Y-54647250D02*
X167951318Y-54394888D01*
X167951318Y-54394888D02*
X167596672Y-54149687D01*
X167596672Y-54149687D02*
X167236664Y-53911829D01*
X167236664Y-53911829D02*
X166871288Y-53681499D01*
X166871288Y-53681499D02*
X166500539Y-53458881D01*
X166500539Y-53458881D02*
X166124410Y-53244160D01*
X119712550Y-151083290D02*
X119860308Y-151124799D01*
X119860308Y-151124799D02*
X120007770Y-151167158D01*
X120007770Y-151167158D02*
X120154927Y-151210379D01*
X120154927Y-151210379D02*
X120301769Y-151254472D01*
X120301769Y-151254472D02*
X120448287Y-151299451D01*
X120448287Y-151299451D02*
X120594471Y-151345327D01*
X120594471Y-151345327D02*
X120740312Y-151392111D01*
X120740312Y-151392111D02*
X120885799Y-151439816D01*
X120885799Y-151439816D02*
X121030924Y-151488454D01*
X121030924Y-151488454D02*
X121175676Y-151538036D01*
X121175676Y-151538036D02*
X121320047Y-151588574D01*
X121320047Y-151588574D02*
X121464026Y-151640081D01*
X121464026Y-151640081D02*
X121607605Y-151692567D01*
X121607605Y-151692567D02*
X121750773Y-151746045D01*
X121750773Y-151746045D02*
X121893521Y-151800527D01*
X121893521Y-151800527D02*
X122035840Y-151856025D01*
X122035840Y-151856025D02*
X122177719Y-151912549D01*
X122177719Y-151912549D02*
X122319150Y-151970113D01*
X122319150Y-151970113D02*
X122460122Y-152028728D01*
X122460122Y-152028728D02*
X122600627Y-152088406D01*
X122600627Y-152088406D02*
X122740655Y-152149159D01*
X122740655Y-152149159D02*
X122880195Y-152210999D01*
X122880195Y-152210999D02*
X123019239Y-152273937D01*
X123019239Y-152273937D02*
X123157778Y-152337985D01*
X123157778Y-152337985D02*
X123295800Y-152403156D01*
X123295800Y-152403156D02*
X123433298Y-152469461D01*
X123433298Y-152469461D02*
X123570260Y-152536911D01*
X123570260Y-152536911D02*
X123706679Y-152605520D01*
X123706679Y-152605520D02*
X123842544Y-152675298D01*
X123842544Y-152675298D02*
X123977845Y-152746258D01*
X123977845Y-152746258D02*
X124112574Y-152818411D01*
X124112574Y-152818411D02*
X124246720Y-152891770D01*
X170685370Y-141525080D02*
X171087504Y-141124502D01*
X171087504Y-141124502D02*
X171486084Y-140720173D01*
X171486084Y-140720173D02*
X171881043Y-140312121D01*
X171881043Y-140312121D02*
X172272316Y-139900375D01*
X172272316Y-139900375D02*
X172659836Y-139484964D01*
X172659836Y-139484964D02*
X173043537Y-139065915D01*
X173043537Y-139065915D02*
X173423353Y-138643258D01*
X173423353Y-138643258D02*
X173799219Y-138217020D01*
X173799219Y-138217020D02*
X174171067Y-137787231D01*
X174171067Y-137787231D02*
X174538833Y-137353919D01*
X174538833Y-137353919D02*
X174902450Y-136917113D01*
X174902450Y-136917113D02*
X175261852Y-136476841D01*
X175261852Y-136476841D02*
X175616974Y-136033131D01*
X175616974Y-136033131D02*
X175967748Y-135586013D01*
X175967748Y-135586013D02*
X176314109Y-135135514D01*
X176314109Y-135135514D02*
X176655992Y-134681663D01*
X176655992Y-134681663D02*
X176993330Y-134224489D01*
X176993330Y-134224489D02*
X177326056Y-133764021D01*
X177326056Y-133764021D02*
X177654106Y-133300286D01*
X177654106Y-133300286D02*
X177977413Y-132833314D01*
X177977413Y-132833314D02*
X178295910Y-132363133D01*
X178295910Y-132363133D02*
X178609533Y-131889771D01*
X178609533Y-131889771D02*
X178918215Y-131413257D01*
X178918215Y-131413257D02*
X179221889Y-130933619D01*
X179221889Y-130933619D02*
X179520491Y-130450887D01*
X179520491Y-130450887D02*
X179813953Y-129965088D01*
X179813953Y-129965088D02*
X180102210Y-129476252D01*
X180102210Y-129476252D02*
X180385196Y-128984406D01*
X180385196Y-128984406D02*
X180662846Y-128489579D01*
X180662846Y-128489579D02*
X180935091Y-127991800D01*
X180935091Y-127991800D02*
X181201868Y-127491097D01*
X181201868Y-127491097D02*
X181463110Y-126987500D01*
X147475850Y-126643860D02*
X147658857Y-126619029D01*
X147658857Y-126619029D02*
X147841812Y-126594559D01*
X147841812Y-126594559D02*
X148024725Y-126570471D01*
X148024725Y-126570471D02*
X148207606Y-126546787D01*
X148207606Y-126546787D02*
X148390468Y-126523529D01*
X148390468Y-126523529D02*
X148573319Y-126500719D01*
X148573319Y-126500719D02*
X148756172Y-126478378D01*
X148756172Y-126478378D02*
X148939037Y-126456528D01*
X148939037Y-126456528D02*
X149121925Y-126435192D01*
X149121925Y-126435192D02*
X149304846Y-126414390D01*
X149304846Y-126414390D02*
X149487811Y-126394146D01*
X149487811Y-126394146D02*
X149670831Y-126374480D01*
X149670831Y-126374480D02*
X149853918Y-126355414D01*
X149853918Y-126355414D02*
X150037081Y-126336971D01*
X150037081Y-126336971D02*
X150220331Y-126319172D01*
X150220331Y-126319172D02*
X150403680Y-126302040D01*
X183923620Y-122917440D02*
X183946722Y-122790477D01*
X183946722Y-122790477D02*
X183966432Y-122663405D01*
X183966432Y-122663405D02*
X183982941Y-122536230D01*
X183982941Y-122536230D02*
X183996440Y-122408955D01*
X183996440Y-122408955D02*
X184007120Y-122281587D01*
X184007120Y-122281587D02*
X184015173Y-122154132D01*
X184015173Y-122154132D02*
X184020789Y-122026594D01*
X184020789Y-122026594D02*
X184024160Y-121898979D01*
X184024160Y-121898979D02*
X184025477Y-121771293D01*
X184025477Y-121771293D02*
X184024931Y-121643540D01*
X184024931Y-121643540D02*
X184022714Y-121515728D01*
X184022714Y-121515728D02*
X184019016Y-121387860D01*
X184019016Y-121387860D02*
X184014029Y-121259943D01*
X184014029Y-121259943D02*
X184007944Y-121131981D01*
X184007944Y-121131981D02*
X184000952Y-121003981D01*
X184000952Y-121003981D02*
X183993245Y-120875947D01*
X183993245Y-120875947D02*
X183985013Y-120747886D01*
X183985013Y-120747886D02*
X183976447Y-120619802D01*
X183976447Y-120619802D02*
X183967740Y-120491701D01*
X183967740Y-120491701D02*
X183959082Y-120363589D01*
X183959082Y-120363589D02*
X183950665Y-120235470D01*
X183950665Y-120235470D02*
X183942679Y-120107352D01*
X183942679Y-120107352D02*
X183935316Y-119979238D01*
X183935316Y-119979238D02*
X183928766Y-119851134D01*
X183928766Y-119851134D02*
X183923222Y-119723046D01*
X183923222Y-119723046D02*
X183918875Y-119594979D01*
X183918875Y-119594979D02*
X183915915Y-119466939D01*
X183915915Y-119466939D02*
X183914533Y-119338931D01*
X183914533Y-119338931D02*
X183914922Y-119210961D01*
X183914922Y-119210961D02*
X183917272Y-119083033D01*
X183917272Y-119083033D02*
X183921774Y-118955155D01*
X183921774Y-118955155D02*
X183928620Y-118827330D01*
X134662250Y-145029650D02*
X134773597Y-144603187D01*
X134773597Y-144603187D02*
X134881400Y-144175996D01*
X134881400Y-144175996D02*
X134985787Y-143748103D01*
X134985787Y-143748103D02*
X135086882Y-143319538D01*
X135086882Y-143319538D02*
X135184813Y-142890329D01*
X135184813Y-142890329D02*
X135279706Y-142460505D01*
X135279706Y-142460505D02*
X135371687Y-142030093D01*
X135371687Y-142030093D02*
X135460882Y-141599123D01*
X135460882Y-141599123D02*
X135547419Y-141167622D01*
X135547419Y-141167622D02*
X135631422Y-140735619D01*
X135631422Y-140735619D02*
X135713019Y-140303143D01*
X135713019Y-140303143D02*
X135792336Y-139870222D01*
X135792336Y-139870222D02*
X135869499Y-139436884D01*
X135869499Y-139436884D02*
X135944635Y-139003158D01*
X135944635Y-139003158D02*
X136017869Y-138569073D01*
X136017869Y-138569073D02*
X136089328Y-138134656D01*
X136089328Y-138134656D02*
X136159139Y-137699936D01*
X136159139Y-137699936D02*
X136227428Y-137264941D01*
X136227428Y-137264941D02*
X136294321Y-136829701D01*
X136294321Y-136829701D02*
X136359944Y-136394243D01*
X136359944Y-136394243D02*
X136424425Y-135958596D01*
X136424425Y-135958596D02*
X136487888Y-135522788D01*
X136487888Y-135522788D02*
X136550461Y-135086847D01*
X136550461Y-135086847D02*
X136612270Y-134650803D01*
X136612270Y-134650803D02*
X136673441Y-134214683D01*
X136673441Y-134214683D02*
X136734100Y-133778517D01*
X136734100Y-133778517D02*
X136794374Y-133342331D01*
X136794374Y-133342331D02*
X136854390Y-132906155D01*
X136854390Y-132906155D02*
X136914272Y-132470018D01*
X136914272Y-132470018D02*
X136974149Y-132033947D01*
X136974149Y-132033947D02*
X137034146Y-131597972D01*
X137034146Y-131597972D02*
X137094390Y-131162120D01*
X131321840Y-37277680D02*
X131269575Y-37401230D01*
X131269575Y-37401230D02*
X131219716Y-37525684D01*
X131219716Y-37525684D02*
X131171916Y-37650910D01*
X131171916Y-37650910D02*
X131125828Y-37776778D01*
X131125828Y-37776778D02*
X131081106Y-37903159D01*
X131081106Y-37903159D02*
X131037404Y-38029921D01*
X131037404Y-38029921D02*
X130994375Y-38156936D01*
X130994375Y-38156936D02*
X130951675Y-38284073D01*
X130951675Y-38284073D02*
X130908955Y-38411202D01*
X130908955Y-38411202D02*
X130865870Y-38538193D01*
X130865870Y-38538193D02*
X130822075Y-38664915D01*
X130822075Y-38664915D02*
X130777221Y-38791239D01*
X130777221Y-38791239D02*
X130730964Y-38917035D01*
X130730964Y-38917035D02*
X130682958Y-39042172D01*
X130682958Y-39042172D02*
X130632855Y-39166520D01*
X130632855Y-39166520D02*
X130580310Y-39289950D01*
X166124410Y-53244160D02*
X165993296Y-53176365D01*
X165993296Y-53176365D02*
X165860608Y-53112331D01*
X165860608Y-53112331D02*
X165726474Y-53051795D01*
X165726474Y-53051795D02*
X165591023Y-52994497D01*
X165591023Y-52994497D02*
X165454385Y-52940175D01*
X165454385Y-52940175D02*
X165316688Y-52888568D01*
X165316688Y-52888568D02*
X165178062Y-52839416D01*
X165178062Y-52839416D02*
X165038637Y-52792457D01*
X165038637Y-52792457D02*
X164898541Y-52747430D01*
X164898541Y-52747430D02*
X164757904Y-52704073D01*
X164757904Y-52704073D02*
X164616855Y-52662127D01*
X164616855Y-52662127D02*
X164475522Y-52621329D01*
X164475522Y-52621329D02*
X164334036Y-52581418D01*
X164334036Y-52581418D02*
X164192526Y-52542134D01*
X164192526Y-52542134D02*
X164051121Y-52503215D01*
X164051121Y-52503215D02*
X163909950Y-52464400D01*
X181463110Y-126987500D02*
X181538018Y-126859300D01*
X181538018Y-126859300D02*
X181614453Y-126731903D01*
X181614453Y-126731903D02*
X181692274Y-126605234D01*
X181692274Y-126605234D02*
X181771342Y-126479220D01*
X181771342Y-126479220D02*
X181851516Y-126353787D01*
X181851516Y-126353787D02*
X181932657Y-126228861D01*
X181932657Y-126228861D02*
X182014625Y-126104369D01*
X182014625Y-126104369D02*
X182097280Y-125980237D01*
X182097280Y-125980237D02*
X182180483Y-125856391D01*
X182180483Y-125856391D02*
X182264093Y-125732757D01*
X182264093Y-125732757D02*
X182347971Y-125609263D01*
X182347971Y-125609263D02*
X182431977Y-125485833D01*
X182431977Y-125485833D02*
X182515971Y-125362395D01*
X182515971Y-125362395D02*
X182599813Y-125238875D01*
X182599813Y-125238875D02*
X182683363Y-125115199D01*
X182683363Y-125115199D02*
X182766482Y-124991293D01*
X182766482Y-124991293D02*
X182849030Y-124867084D01*
X182849030Y-124867084D02*
X182930867Y-124742498D01*
X182930867Y-124742498D02*
X183011852Y-124617461D01*
X183011852Y-124617461D02*
X183091848Y-124491900D01*
X183091848Y-124491900D02*
X183170712Y-124365741D01*
X183170712Y-124365741D02*
X183248307Y-124238910D01*
X183248307Y-124238910D02*
X183324491Y-124111334D01*
X183324491Y-124111334D02*
X183399125Y-123982938D01*
X183399125Y-123982938D02*
X183472069Y-123853650D01*
X183472069Y-123853650D02*
X183543184Y-123723395D01*
X183543184Y-123723395D02*
X183612329Y-123592099D01*
X183612329Y-123592099D02*
X183679365Y-123459690D01*
X183679365Y-123459690D02*
X183744152Y-123326093D01*
X183744152Y-123326093D02*
X183806550Y-123191235D01*
X183806550Y-123191235D02*
X183866419Y-123055042D01*
X183866419Y-123055042D02*
X183923620Y-122917440D01*
X141835660Y-128106020D02*
X142005894Y-128041846D01*
X142005894Y-128041846D02*
X142176450Y-127978061D01*
X142176450Y-127978061D02*
X142347336Y-127914745D01*
X142347336Y-127914745D02*
X142518556Y-127851978D01*
X142518556Y-127851978D02*
X142690119Y-127789840D01*
X142690119Y-127789840D02*
X142862030Y-127728413D01*
X142862030Y-127728413D02*
X143034296Y-127667775D01*
X143034296Y-127667775D02*
X143206925Y-127608008D01*
X143206925Y-127608008D02*
X143379921Y-127549193D01*
X143379921Y-127549193D02*
X143553293Y-127491409D01*
X143553293Y-127491409D02*
X143727047Y-127434737D01*
X143727047Y-127434737D02*
X143901190Y-127379257D01*
X143901190Y-127379257D02*
X144075727Y-127325050D01*
X144075727Y-127325050D02*
X144250667Y-127272195D01*
X144250667Y-127272195D02*
X144426014Y-127220775D01*
X144426014Y-127220775D02*
X144601777Y-127170868D01*
X144601777Y-127170868D02*
X144777961Y-127122556D01*
X144777961Y-127122556D02*
X144954574Y-127075918D01*
X144954574Y-127075918D02*
X145131622Y-127031036D01*
X145131622Y-127031036D02*
X145309111Y-126987989D01*
X145309111Y-126987989D02*
X145487049Y-126946858D01*
X145487049Y-126946858D02*
X145665442Y-126907723D01*
X145665442Y-126907723D02*
X145844296Y-126870665D01*
X145844296Y-126870665D02*
X146023618Y-126835764D01*
X146023618Y-126835764D02*
X146203415Y-126803100D01*
X146203415Y-126803100D02*
X146383694Y-126772755D01*
X146383694Y-126772755D02*
X146564461Y-126744807D01*
X146564461Y-126744807D02*
X146745723Y-126719339D01*
X146745723Y-126719339D02*
X146927486Y-126696429D01*
X146927486Y-126696429D02*
X147109757Y-126676159D01*
X147109757Y-126676159D02*
X147292542Y-126658609D01*
X147292542Y-126658609D02*
X147475850Y-126643860D01*
X153257770Y-47826650D02*
X153111852Y-47718512D01*
X153111852Y-47718512D02*
X152963332Y-47615272D01*
X152963332Y-47615272D02*
X152812313Y-47516828D01*
X152812313Y-47516828D02*
X152658900Y-47423080D01*
X152658900Y-47423080D02*
X152503199Y-47333928D01*
X152503199Y-47333928D02*
X152345312Y-47249271D01*
X152345312Y-47249271D02*
X152185346Y-47169010D01*
X152185346Y-47169010D02*
X152023404Y-47093042D01*
X152023404Y-47093042D02*
X151859591Y-47021269D01*
X151859591Y-47021269D02*
X151694012Y-46953590D01*
X151694012Y-46953590D02*
X151526771Y-46889903D01*
X151526771Y-46889903D02*
X151357972Y-46830110D01*
X151357972Y-46830110D02*
X151187721Y-46774109D01*
X151187721Y-46774109D02*
X151016122Y-46721800D01*
X151016122Y-46721800D02*
X150843279Y-46673082D01*
X150843279Y-46673082D02*
X150669297Y-46627856D01*
X150669297Y-46627856D02*
X150494281Y-46586020D01*
X150494281Y-46586020D02*
X150318334Y-46547475D01*
X150318334Y-46547475D02*
X150141563Y-46512119D01*
X150141563Y-46512119D02*
X149964070Y-46479853D01*
X149964070Y-46479853D02*
X149785962Y-46450576D01*
X149785962Y-46450576D02*
X149607341Y-46424188D01*
X149607341Y-46424188D02*
X149428314Y-46400588D01*
X149428314Y-46400588D02*
X149248984Y-46379676D01*
X149248984Y-46379676D02*
X149069456Y-46361351D01*
X149069456Y-46361351D02*
X148889835Y-46345513D01*
X148889835Y-46345513D02*
X148710224Y-46332062D01*
X148710224Y-46332062D02*
X148530730Y-46320897D01*
X148530730Y-46320897D02*
X148351455Y-46311917D01*
X148351455Y-46311917D02*
X148172506Y-46305023D01*
X148172506Y-46305023D02*
X147993986Y-46300114D01*
X147993986Y-46300114D02*
X147816000Y-46297090D01*
X111409960Y-66499810D02*
X111380236Y-66695927D01*
X111380236Y-66695927D02*
X111353715Y-66892239D01*
X111353715Y-66892239D02*
X111330205Y-67088740D01*
X111330205Y-67088740D02*
X111309515Y-67285426D01*
X111309515Y-67285426D02*
X111291455Y-67482293D01*
X111291455Y-67482293D02*
X111275833Y-67679337D01*
X111275833Y-67679337D02*
X111262459Y-67876552D01*
X111262459Y-67876552D02*
X111251142Y-68073936D01*
X111251142Y-68073936D02*
X111241690Y-68271482D01*
X111241690Y-68271482D02*
X111233913Y-68469188D01*
X111233913Y-68469188D02*
X111227619Y-68667047D01*
X111227619Y-68667047D02*
X111222618Y-68865057D01*
X111222618Y-68865057D02*
X111218719Y-69063213D01*
X111218719Y-69063213D02*
X111215731Y-69261510D01*
X111215731Y-69261510D02*
X111213463Y-69459943D01*
X111213463Y-69459943D02*
X111211723Y-69658510D01*
X111211723Y-69658510D02*
X111210322Y-69857204D01*
X111210322Y-69857204D02*
X111209067Y-70056022D01*
X111209067Y-70056022D02*
X111207769Y-70254959D01*
X111207769Y-70254959D02*
X111206235Y-70454011D01*
X111206235Y-70454011D02*
X111204276Y-70653174D01*
X111204276Y-70653174D02*
X111201700Y-70852442D01*
X111201700Y-70852442D02*
X111198316Y-71051813D01*
X111198316Y-71051813D02*
X111193933Y-71251281D01*
X111193933Y-71251281D02*
X111188360Y-71450841D01*
X111188360Y-71450841D02*
X111181407Y-71650491D01*
X111181407Y-71650491D02*
X111172882Y-71850224D01*
X111172882Y-71850224D02*
X111162595Y-72050037D01*
X111162595Y-72050037D02*
X111150354Y-72249926D01*
X111150354Y-72249926D02*
X111135968Y-72449885D01*
X111135968Y-72449885D02*
X111119247Y-72649911D01*
X111119247Y-72649911D02*
X111100000Y-72850000D01*
X161530170Y-51008690D02*
X161279641Y-50888534D01*
X161279641Y-50888534D02*
X161027179Y-50773153D01*
X161027179Y-50773153D02*
X160772924Y-50662203D01*
X160772924Y-50662203D02*
X160517018Y-50555339D01*
X160517018Y-50555339D02*
X160259604Y-50452218D01*
X160259604Y-50452218D02*
X160000823Y-50352496D01*
X160000823Y-50352496D02*
X159740818Y-50255830D01*
X159740818Y-50255830D02*
X159479730Y-50161875D01*
X159479730Y-50161875D02*
X159217701Y-50070288D01*
X159217701Y-50070288D02*
X158954872Y-49980726D01*
X158954872Y-49980726D02*
X158691387Y-49892843D01*
X158691387Y-49892843D02*
X158427387Y-49806297D01*
X158427387Y-49806297D02*
X158163014Y-49720744D01*
X158163014Y-49720744D02*
X157898409Y-49635840D01*
X157898409Y-49635840D02*
X157633715Y-49551241D01*
X157633715Y-49551241D02*
X157369073Y-49466603D01*
X157369073Y-49466603D02*
X157104626Y-49381583D01*
X157104626Y-49381583D02*
X156840516Y-49295838D01*
X156840516Y-49295838D02*
X156576883Y-49209022D01*
X156576883Y-49209022D02*
X156313872Y-49120793D01*
X156313872Y-49120793D02*
X156051622Y-49030806D01*
X156051622Y-49030806D02*
X155790276Y-48938718D01*
X155790276Y-48938718D02*
X155529977Y-48844186D01*
X155529977Y-48844186D02*
X155270865Y-48746864D01*
X155270865Y-48746864D02*
X155013083Y-48646411D01*
X155013083Y-48646411D02*
X154756773Y-48542481D01*
X154756773Y-48542481D02*
X154502077Y-48434731D01*
X154502077Y-48434731D02*
X154249137Y-48322817D01*
X154249137Y-48322817D02*
X153998094Y-48206396D01*
X153998094Y-48206396D02*
X153749090Y-48085123D01*
X153749090Y-48085123D02*
X153502268Y-47958656D01*
X153502268Y-47958656D02*
X153257770Y-47826650D01*
X143169400Y-33365600D02*
X143011317Y-33375486D01*
X143011317Y-33375486D02*
X142855289Y-33392098D01*
X142855289Y-33392098D02*
X142701321Y-33415224D01*
X142701321Y-33415224D02*
X142549414Y-33444651D01*
X142549414Y-33444651D02*
X142399572Y-33480166D01*
X142399572Y-33480166D02*
X142251798Y-33521558D01*
X142251798Y-33521558D02*
X142106095Y-33568613D01*
X142106095Y-33568613D02*
X141962465Y-33621120D01*
X141962465Y-33621120D02*
X141820913Y-33678866D01*
X141820913Y-33678866D02*
X141681441Y-33741639D01*
X141681441Y-33741639D02*
X141544051Y-33809225D01*
X141544051Y-33809225D02*
X141408748Y-33881414D01*
X141408748Y-33881414D02*
X141275534Y-33957992D01*
X141275534Y-33957992D02*
X141144413Y-34038747D01*
X141144413Y-34038747D02*
X141015386Y-34123466D01*
X141015386Y-34123466D02*
X140888458Y-34211938D01*
X140888458Y-34211938D02*
X140763632Y-34303949D01*
X140763632Y-34303949D02*
X140640909Y-34399287D01*
X140640909Y-34399287D02*
X140520294Y-34497741D01*
X140520294Y-34497741D02*
X140401790Y-34599097D01*
X140401790Y-34599097D02*
X140285400Y-34703143D01*
X140285400Y-34703143D02*
X140171125Y-34809667D01*
X140171125Y-34809667D02*
X140058971Y-34918456D01*
X140058971Y-34918456D02*
X139948939Y-35029298D01*
X139948939Y-35029298D02*
X139841033Y-35141981D01*
X139841033Y-35141981D02*
X139735256Y-35256292D01*
X139735256Y-35256292D02*
X139631611Y-35372018D01*
X139631611Y-35372018D02*
X139530101Y-35488947D01*
X139530101Y-35488947D02*
X139430728Y-35606868D01*
X139430728Y-35606868D02*
X139333497Y-35725566D01*
X139333497Y-35725566D02*
X139238410Y-35844831D01*
X139238410Y-35844831D02*
X139145470Y-35964450D01*
X130580310Y-39289950D02*
X130456058Y-39258865D01*
X130456058Y-39258865D02*
X130330413Y-39228933D01*
X130330413Y-39228933D02*
X130203504Y-39200320D01*
X130203504Y-39200320D02*
X130075459Y-39173193D01*
X130075459Y-39173193D02*
X129946407Y-39147719D01*
X129946407Y-39147719D02*
X129816476Y-39124067D01*
X129816476Y-39124067D02*
X129685796Y-39102403D01*
X129685796Y-39102403D02*
X129554496Y-39082894D01*
X129554496Y-39082894D02*
X129422703Y-39065709D01*
X129422703Y-39065709D02*
X129290547Y-39051013D01*
X129290547Y-39051013D02*
X129158157Y-39038976D01*
X129158157Y-39038976D02*
X129025661Y-39029763D01*
X129025661Y-39029763D02*
X128893189Y-39023543D01*
X128893189Y-39023543D02*
X128760868Y-39020482D01*
X128760868Y-39020482D02*
X128628828Y-39020749D01*
X128628828Y-39020749D02*
X128497197Y-39024510D01*
X128497197Y-39024510D02*
X128366104Y-39031932D01*
X128366104Y-39031932D02*
X128235679Y-39043183D01*
X128235679Y-39043183D02*
X128106049Y-39058431D01*
X128106049Y-39058431D02*
X127977343Y-39077842D01*
X127977343Y-39077842D02*
X127849691Y-39101584D01*
X127849691Y-39101584D02*
X127723221Y-39129825D01*
X127723221Y-39129825D02*
X127598062Y-39162731D01*
X127598062Y-39162731D02*
X127474342Y-39200470D01*
X127474342Y-39200470D02*
X127352191Y-39243209D01*
X127352191Y-39243209D02*
X127231736Y-39291116D01*
X127231736Y-39291116D02*
X127113108Y-39344358D01*
X127113108Y-39344358D02*
X126996434Y-39403103D01*
X126996434Y-39403103D02*
X126881843Y-39467517D01*
X126881843Y-39467517D02*
X126769465Y-39537767D01*
X126769465Y-39537767D02*
X126659427Y-39614023D01*
X126659427Y-39614023D02*
X126551860Y-39696450D01*
X146186420Y-35309450D02*
X146131282Y-35206065D01*
X146131282Y-35206065D02*
X146072709Y-35104319D01*
X146072709Y-35104319D02*
X146010792Y-35004325D01*
X146010792Y-35004325D02*
X145945621Y-34906191D01*
X145945621Y-34906191D02*
X145877288Y-34810031D01*
X145877288Y-34810031D02*
X145805884Y-34715955D01*
X145805884Y-34715955D02*
X145731499Y-34624074D01*
X145731499Y-34624074D02*
X145654225Y-34534500D01*
X145654225Y-34534500D02*
X145574153Y-34447343D01*
X145574153Y-34447343D02*
X145491373Y-34362714D01*
X145491373Y-34362714D02*
X145405976Y-34280726D01*
X145405976Y-34280726D02*
X145318055Y-34201488D01*
X145318055Y-34201488D02*
X145227699Y-34125112D01*
X145227699Y-34125112D02*
X145134999Y-34051710D01*
X145134999Y-34051710D02*
X145040047Y-33981392D01*
X145040047Y-33981392D02*
X144942933Y-33914270D01*
X144942933Y-33914270D02*
X144843749Y-33850454D01*
X144843749Y-33850454D02*
X144742586Y-33790056D01*
X144742586Y-33790056D02*
X144639533Y-33733187D01*
X144639533Y-33733187D02*
X144534684Y-33679958D01*
X144534684Y-33679958D02*
X144428128Y-33630480D01*
X144428128Y-33630480D02*
X144319956Y-33584865D01*
X144319956Y-33584865D02*
X144210260Y-33543224D01*
X144210260Y-33543224D02*
X144099130Y-33505667D01*
X144099130Y-33505667D02*
X143986657Y-33472306D01*
X143986657Y-33472306D02*
X143872933Y-33443252D01*
X143872933Y-33443252D02*
X143758048Y-33418616D01*
X143758048Y-33418616D02*
X143642094Y-33398509D01*
X143642094Y-33398509D02*
X143525161Y-33383043D01*
X143525161Y-33383043D02*
X143407340Y-33372329D01*
X143407340Y-33372329D02*
X143288723Y-33366477D01*
X143288723Y-33366477D02*
X143169400Y-33365600D01*
X163909950Y-52464400D02*
X163755746Y-52382307D01*
X163755746Y-52382307D02*
X163604966Y-52294522D01*
X163604966Y-52294522D02*
X163457032Y-52202011D01*
X163457032Y-52202011D02*
X163311365Y-52105739D01*
X163311365Y-52105739D02*
X163167390Y-52006672D01*
X163167390Y-52006672D02*
X163024528Y-51905776D01*
X163024528Y-51905776D02*
X162882203Y-51804016D01*
X162882203Y-51804016D02*
X162739837Y-51702360D01*
X162739837Y-51702360D02*
X162596853Y-51601771D01*
X162596853Y-51601771D02*
X162452674Y-51503216D01*
X162452674Y-51503216D02*
X162306722Y-51407662D01*
X162306722Y-51407662D02*
X162158420Y-51316073D01*
X162158420Y-51316073D02*
X162007191Y-51229415D01*
X162007191Y-51229415D02*
X161852458Y-51148655D01*
X161852458Y-51148655D02*
X161693643Y-51074758D01*
X161693643Y-51074758D02*
X161530170Y-51008690D01*
X114207530Y-58528330D02*
X114084857Y-58763481D01*
X114084857Y-58763481D02*
X113965796Y-59000154D01*
X113965796Y-59000154D02*
X113850212Y-59238286D01*
X113850212Y-59238286D02*
X113737971Y-59477815D01*
X113737971Y-59477815D02*
X113628941Y-59718679D01*
X113628941Y-59718679D02*
X113522987Y-59960815D01*
X113522987Y-59960815D02*
X113419975Y-60204163D01*
X113419975Y-60204163D02*
X113319772Y-60448660D01*
X113319772Y-60448660D02*
X113222245Y-60694243D01*
X113222245Y-60694243D02*
X113127258Y-60940850D01*
X113127258Y-60940850D02*
X113034680Y-61188420D01*
X113034680Y-61188420D02*
X112944376Y-61436891D01*
X112944376Y-61436891D02*
X112856212Y-61686200D01*
X112856212Y-61686200D02*
X112770055Y-61936286D01*
X112770055Y-61936286D02*
X112685771Y-62187085D01*
X112685771Y-62187085D02*
X112603226Y-62438537D01*
X112603226Y-62438537D02*
X112522287Y-62690579D01*
X112522287Y-62690579D02*
X112442819Y-62943149D01*
X112442819Y-62943149D02*
X112364690Y-63196185D01*
X112364690Y-63196185D02*
X112287766Y-63449624D01*
X112287766Y-63449624D02*
X112211912Y-63703406D01*
X112211912Y-63703406D02*
X112136995Y-63957467D01*
X112136995Y-63957467D02*
X112062882Y-64211746D01*
X112062882Y-64211746D02*
X111989439Y-64466181D01*
X111989439Y-64466181D02*
X111916531Y-64720709D01*
X111916531Y-64720709D02*
X111844026Y-64975268D01*
X111844026Y-64975268D02*
X111771790Y-65229797D01*
X111771790Y-65229797D02*
X111699689Y-65484233D01*
X111699689Y-65484233D02*
X111627589Y-65738515D01*
X111627589Y-65738515D02*
X111555356Y-65992579D01*
X111555356Y-65992579D02*
X111482858Y-66246365D01*
X111482858Y-66246365D02*
X111409960Y-66499810D01*
X120474250Y-52623440D02*
X120241638Y-52761556D01*
X120241638Y-52761556D02*
X120009443Y-52901842D01*
X120009443Y-52901842D02*
X119777860Y-53044380D01*
X119777860Y-53044380D02*
X119547085Y-53189253D01*
X119547085Y-53189253D02*
X119317314Y-53336543D01*
X119317314Y-53336543D02*
X119088742Y-53486333D01*
X119088742Y-53486333D02*
X118861565Y-53638705D01*
X118861565Y-53638705D02*
X118635978Y-53793742D01*
X118635978Y-53793742D02*
X118412177Y-53951525D01*
X118412177Y-53951525D02*
X118190358Y-54112138D01*
X118190358Y-54112138D02*
X117970715Y-54275663D01*
X117970715Y-54275663D02*
X117753446Y-54442182D01*
X117753446Y-54442182D02*
X117538744Y-54611777D01*
X117538744Y-54611777D02*
X117326807Y-54784532D01*
X117326807Y-54784532D02*
X117117829Y-54960529D01*
X117117829Y-54960529D02*
X116912006Y-55139850D01*
X116912006Y-55139850D02*
X116709533Y-55322577D01*
X116709533Y-55322577D02*
X116510607Y-55508793D01*
X116510607Y-55508793D02*
X116315423Y-55698580D01*
X116315423Y-55698580D02*
X116124176Y-55892022D01*
X116124176Y-55892022D02*
X115937063Y-56089199D01*
X115937063Y-56089199D02*
X115754277Y-56290196D01*
X115754277Y-56290196D02*
X115576016Y-56495094D01*
X115576016Y-56495094D02*
X115402475Y-56703975D01*
X115402475Y-56703975D02*
X115233849Y-56916922D01*
X115233849Y-56916922D02*
X115070335Y-57134018D01*
X115070335Y-57134018D02*
X114912126Y-57355345D01*
X114912126Y-57355345D02*
X114759420Y-57580985D01*
X114759420Y-57580985D02*
X114612412Y-57811021D01*
X114612412Y-57811021D02*
X114471297Y-58045536D01*
X114471297Y-58045536D02*
X114336271Y-58284611D01*
X114336271Y-58284611D02*
X114207530Y-58528330D01*
X168594120Y-142109810D02*
X168733032Y-142135301D01*
X168733032Y-142135301D02*
X168875011Y-142155203D01*
X168875011Y-142155203D02*
X169019166Y-142168940D01*
X169019166Y-142168940D02*
X169164604Y-142175938D01*
X169164604Y-142175938D02*
X169310435Y-142175623D01*
X169310435Y-142175623D02*
X169455765Y-142167418D01*
X169455765Y-142167418D02*
X169599703Y-142150751D01*
X169599703Y-142150751D02*
X169741358Y-142125046D01*
X169741358Y-142125046D02*
X169879838Y-142089728D01*
X169879838Y-142089728D02*
X170014250Y-142044223D01*
X170014250Y-142044223D02*
X170143703Y-141987956D01*
X170143703Y-141987956D02*
X170267305Y-141920352D01*
X170267305Y-141920352D02*
X170384165Y-141840838D01*
X170384165Y-141840838D02*
X170493390Y-141748837D01*
X170493390Y-141748837D02*
X170594089Y-141643776D01*
X170594089Y-141643776D02*
X170685370Y-141525080D01*
X137410390Y-129209360D02*
X137552171Y-129190965D01*
X137552171Y-129190965D02*
X137693887Y-129171837D01*
X137693887Y-129171837D02*
X137835522Y-129151945D01*
X137835522Y-129151945D02*
X137977060Y-129131258D01*
X137977060Y-129131258D02*
X138118485Y-129109746D01*
X138118485Y-129109746D02*
X138259781Y-129087379D01*
X138259781Y-129087379D02*
X138400932Y-129064126D01*
X138400932Y-129064126D02*
X138541922Y-129039957D01*
X138541922Y-129039957D02*
X138682735Y-129014841D01*
X138682735Y-129014841D02*
X138823355Y-128988748D01*
X138823355Y-128988748D02*
X138963765Y-128961648D01*
X138963765Y-128961648D02*
X139103951Y-128933510D01*
X139103951Y-128933510D02*
X139243895Y-128904304D01*
X139243895Y-128904304D02*
X139383581Y-128873999D01*
X139383581Y-128873999D02*
X139522994Y-128842566D01*
X139522994Y-128842566D02*
X139662118Y-128809973D01*
X139662118Y-128809973D02*
X139800937Y-128776191D01*
X139800937Y-128776191D02*
X139939434Y-128741188D01*
X139939434Y-128741188D02*
X140077593Y-128704935D01*
X140077593Y-128704935D02*
X140215399Y-128667401D01*
X140215399Y-128667401D02*
X140352836Y-128628556D01*
X140352836Y-128628556D02*
X140489886Y-128588369D01*
X140489886Y-128588369D02*
X140626536Y-128546810D01*
X140626536Y-128546810D02*
X140762767Y-128503848D01*
X140762767Y-128503848D02*
X140898565Y-128459454D01*
X140898565Y-128459454D02*
X141033913Y-128413596D01*
X141033913Y-128413596D02*
X141168795Y-128366245D01*
X141168795Y-128366245D02*
X141303196Y-128317369D01*
X141303196Y-128317369D02*
X141437099Y-128266940D01*
X141437099Y-128266940D02*
X141570488Y-128214925D01*
X141570488Y-128214925D02*
X141703346Y-128161295D01*
X141703346Y-128161295D02*
X141835660Y-128106020D01*
X147816000Y-46297090D02*
X147792550Y-45950880D01*
X147792550Y-45950880D02*
X147769146Y-45604317D01*
X147769146Y-45604317D02*
X147745607Y-45257454D01*
X147745607Y-45257454D02*
X147721750Y-44910345D01*
X147721750Y-44910345D02*
X147697393Y-44563045D01*
X147697393Y-44563045D02*
X147672355Y-44215606D01*
X147672355Y-44215606D02*
X147646453Y-43868082D01*
X147646453Y-43868082D02*
X147619506Y-43520526D01*
X147619506Y-43520526D02*
X147591333Y-43172994D01*
X147591333Y-43172994D02*
X147561750Y-42825537D01*
X147561750Y-42825537D02*
X147530577Y-42478211D01*
X147530577Y-42478211D02*
X147497631Y-42131068D01*
X147497631Y-42131068D02*
X147462731Y-41784163D01*
X147462731Y-41784163D02*
X147425694Y-41437548D01*
X147425694Y-41437548D02*
X147386339Y-41091278D01*
X147386339Y-41091278D02*
X147344485Y-40745407D01*
X147344485Y-40745407D02*
X147299948Y-40399988D01*
X147299948Y-40399988D02*
X147252548Y-40055074D01*
X147252548Y-40055074D02*
X147202102Y-39710720D01*
X147202102Y-39710720D02*
X147148429Y-39366979D01*
X147148429Y-39366979D02*
X147091346Y-39023904D01*
X147091346Y-39023904D02*
X147030673Y-38681550D01*
X147030673Y-38681550D02*
X146966226Y-38339971D01*
X146966226Y-38339971D02*
X146897825Y-37999219D01*
X146897825Y-37999219D02*
X146825287Y-37659349D01*
X146825287Y-37659349D02*
X146748431Y-37320414D01*
X146748431Y-37320414D02*
X146667074Y-36982467D01*
X146667074Y-36982467D02*
X146581035Y-36645564D01*
X146581035Y-36645564D02*
X146490132Y-36309757D01*
X146490132Y-36309757D02*
X146394183Y-35975099D01*
X146394183Y-35975099D02*
X146293006Y-35641646D01*
X146293006Y-35641646D02*
X146186420Y-35309450D01*
X161883280Y-140032200D02*
X162069072Y-140155593D01*
X162069072Y-140155593D02*
X162257118Y-140275362D01*
X162257118Y-140275362D02*
X162447346Y-140391492D01*
X162447346Y-140391492D02*
X162639685Y-140503968D01*
X162639685Y-140503968D02*
X162834064Y-140612774D01*
X162834064Y-140612774D02*
X163030412Y-140717897D01*
X163030412Y-140717897D02*
X163228659Y-140819321D01*
X163228659Y-140819321D02*
X163428733Y-140917032D01*
X163428733Y-140917032D02*
X163630563Y-141011016D01*
X163630563Y-141011016D02*
X163834078Y-141101256D01*
X163834078Y-141101256D02*
X164039207Y-141187740D01*
X164039207Y-141187740D02*
X164245880Y-141270451D01*
X164245880Y-141270451D02*
X164454025Y-141349375D01*
X164454025Y-141349375D02*
X164663572Y-141424497D01*
X164663572Y-141424497D02*
X164874448Y-141495803D01*
X164874448Y-141495803D02*
X165086585Y-141563278D01*
X165086585Y-141563278D02*
X165299909Y-141626907D01*
X165299909Y-141626907D02*
X165514351Y-141686676D01*
X165514351Y-141686676D02*
X165729839Y-141742569D01*
X165729839Y-141742569D02*
X165946303Y-141794572D01*
X165946303Y-141794572D02*
X166163672Y-141842670D01*
X166163672Y-141842670D02*
X166381874Y-141886848D01*
X166381874Y-141886848D02*
X166600838Y-141927092D01*
X166600838Y-141927092D02*
X166820494Y-141963387D01*
X166820494Y-141963387D02*
X167040770Y-141995718D01*
X167040770Y-141995718D02*
X167261596Y-142024071D01*
X167261596Y-142024071D02*
X167482901Y-142048430D01*
X167482901Y-142048430D02*
X167704613Y-142068781D01*
X167704613Y-142068781D02*
X167926662Y-142085109D01*
X167926662Y-142085109D02*
X168148977Y-142097400D01*
X168148977Y-142097400D02*
X168371486Y-142105638D01*
X168371486Y-142105638D02*
X168594120Y-142109810D01*
X187816830Y-88322820D02*
X187749741Y-88104000D01*
X187749741Y-88104000D02*
X187679423Y-87886215D01*
X187679423Y-87886215D02*
X187605909Y-87669495D01*
X187605909Y-87669495D02*
X187529235Y-87453875D01*
X187529235Y-87453875D02*
X187449437Y-87239386D01*
X187449437Y-87239386D02*
X187366549Y-87026060D01*
X187366549Y-87026060D02*
X187280608Y-86813931D01*
X187280608Y-86813931D02*
X187191648Y-86603032D01*
X187191648Y-86603032D02*
X187099704Y-86393393D01*
X187099704Y-86393393D02*
X187004813Y-86185049D01*
X187004813Y-86185049D02*
X186907010Y-85978031D01*
X186907010Y-85978031D02*
X186806329Y-85772372D01*
X186806329Y-85772372D02*
X186702807Y-85568105D01*
X186702807Y-85568105D02*
X186596478Y-85365262D01*
X186596478Y-85365262D02*
X186487378Y-85163875D01*
X186487378Y-85163875D02*
X186375542Y-84963978D01*
X186375542Y-84963978D02*
X186261006Y-84765603D01*
X186261006Y-84765603D02*
X186143805Y-84568782D01*
X186143805Y-84568782D02*
X186023974Y-84373548D01*
X186023974Y-84373548D02*
X185901548Y-84179933D01*
X185901548Y-84179933D02*
X185776564Y-83987970D01*
X185776564Y-83987970D02*
X185649056Y-83797692D01*
X185649056Y-83797692D02*
X185519059Y-83609130D01*
X185519059Y-83609130D02*
X185386610Y-83422318D01*
X185386610Y-83422318D02*
X185251743Y-83237288D01*
X185251743Y-83237288D02*
X185114494Y-83054073D01*
X185114494Y-83054073D02*
X184974898Y-82872705D01*
X184974898Y-82872705D02*
X184832990Y-82693216D01*
X184832990Y-82693216D02*
X184688806Y-82515640D01*
X184688806Y-82515640D02*
X184542381Y-82340008D01*
X184542381Y-82340008D02*
X184393750Y-82166354D01*
X184393750Y-82166354D02*
X184242950Y-81994710D01*
X183300000Y-104900000D02*
X183306432Y-104737703D01*
X183306432Y-104737703D02*
X183312949Y-104575342D01*
X183312949Y-104575342D02*
X183319614Y-104412938D01*
X183319614Y-104412938D02*
X183326494Y-104250512D01*
X183326494Y-104250512D02*
X183333653Y-104088087D01*
X183333653Y-104088087D02*
X183341156Y-103925683D01*
X183341156Y-103925683D02*
X183349069Y-103763323D01*
X183349069Y-103763323D02*
X183357456Y-103601027D01*
X183357456Y-103601027D02*
X183366383Y-103438818D01*
X183366383Y-103438818D02*
X183375914Y-103276717D01*
X183375914Y-103276717D02*
X183386115Y-103114746D01*
X183386115Y-103114746D02*
X183397052Y-102952925D01*
X183397052Y-102952925D02*
X183408788Y-102791278D01*
X183408788Y-102791278D02*
X183421390Y-102629825D01*
X183421390Y-102629825D02*
X183434922Y-102468589D01*
X183434922Y-102468589D02*
X183449450Y-102307590D01*
M02*
