%TF.GenerationSoftware,KiCad,Pcbnew,5.1.10-88a1d61d58~90~ubuntu20.04.1*%
%TF.CreationDate,2021-07-22T12:56:01-07:00*%
%TF.ProjectId,TwinTCPO,5477696e-5443-4504-9f2e-6b696361645f,A*%
%TF.SameCoordinates,Original*%
%TF.FileFunction,Legend,Bot*%
%TF.FilePolarity,Positive*%
%FSLAX46Y46*%
G04 Gerber Fmt 4.6, Leading zero omitted, Abs format (unit mm)*
G04 Created by KiCad (PCBNEW 5.1.10-88a1d61d58~90~ubuntu20.04.1) date 2021-07-22 12:56:01*
%MOMM*%
%LPD*%
G01*
G04 APERTURE LIST*
%ADD10C,0.150000*%
%ADD11C,0.010000*%
%ADD12C,0.120000*%
G04 APERTURE END LIST*
D10*
X97211904Y-128375000D02*
X97259523Y-128441666D01*
X97402380Y-128508333D01*
X97497619Y-128508333D01*
X97640476Y-128441666D01*
X97735714Y-128308333D01*
X97783333Y-128175000D01*
X97830952Y-127908333D01*
X97830952Y-127708333D01*
X97783333Y-127441666D01*
X97735714Y-127308333D01*
X97640476Y-127175000D01*
X97497619Y-127108333D01*
X97402380Y-127108333D01*
X97259523Y-127175000D01*
X97211904Y-127241666D01*
X96783333Y-128508333D02*
X96783333Y-127575000D01*
X96783333Y-127841666D02*
X96735714Y-127708333D01*
X96688095Y-127641666D01*
X96592857Y-127575000D01*
X96497619Y-127575000D01*
X95783333Y-128441666D02*
X95878571Y-128508333D01*
X96069047Y-128508333D01*
X96164285Y-128441666D01*
X96211904Y-128308333D01*
X96211904Y-127775000D01*
X96164285Y-127641666D01*
X96069047Y-127575000D01*
X95878571Y-127575000D01*
X95783333Y-127641666D01*
X95735714Y-127775000D01*
X95735714Y-127908333D01*
X96211904Y-128041666D01*
X94878571Y-128508333D02*
X94878571Y-127775000D01*
X94926190Y-127641666D01*
X95021428Y-127575000D01*
X95211904Y-127575000D01*
X95307142Y-127641666D01*
X94878571Y-128441666D02*
X94973809Y-128508333D01*
X95211904Y-128508333D01*
X95307142Y-128441666D01*
X95354761Y-128308333D01*
X95354761Y-128175000D01*
X95307142Y-128041666D01*
X95211904Y-127975000D01*
X94973809Y-127975000D01*
X94878571Y-127908333D01*
X94545238Y-127575000D02*
X94164285Y-127575000D01*
X94402380Y-127108333D02*
X94402380Y-128308333D01*
X94354761Y-128441666D01*
X94259523Y-128508333D01*
X94164285Y-128508333D01*
X93830952Y-128508333D02*
X93830952Y-127575000D01*
X93830952Y-127108333D02*
X93878571Y-127175000D01*
X93830952Y-127241666D01*
X93783333Y-127175000D01*
X93830952Y-127108333D01*
X93830952Y-127241666D01*
X93450000Y-127575000D02*
X93211904Y-128508333D01*
X92973809Y-127575000D01*
X92211904Y-128441666D02*
X92307142Y-128508333D01*
X92497619Y-128508333D01*
X92592857Y-128441666D01*
X92640476Y-128308333D01*
X92640476Y-127775000D01*
X92592857Y-127641666D01*
X92497619Y-127575000D01*
X92307142Y-127575000D01*
X92211904Y-127641666D01*
X92164285Y-127775000D01*
X92164285Y-127908333D01*
X92640476Y-128041666D01*
X90402380Y-128375000D02*
X90450000Y-128441666D01*
X90592857Y-128508333D01*
X90688095Y-128508333D01*
X90830952Y-128441666D01*
X90926190Y-128308333D01*
X90973809Y-128175000D01*
X91021428Y-127908333D01*
X91021428Y-127708333D01*
X90973809Y-127441666D01*
X90926190Y-127308333D01*
X90830952Y-127175000D01*
X90688095Y-127108333D01*
X90592857Y-127108333D01*
X90450000Y-127175000D01*
X90402380Y-127241666D01*
X89830952Y-128508333D02*
X89926190Y-128441666D01*
X89973809Y-128375000D01*
X90021428Y-128241666D01*
X90021428Y-127841666D01*
X89973809Y-127708333D01*
X89926190Y-127641666D01*
X89830952Y-127575000D01*
X89688095Y-127575000D01*
X89592857Y-127641666D01*
X89545238Y-127708333D01*
X89497619Y-127841666D01*
X89497619Y-128241666D01*
X89545238Y-128375000D01*
X89592857Y-128441666D01*
X89688095Y-128508333D01*
X89830952Y-128508333D01*
X89069047Y-128508333D02*
X89069047Y-127575000D01*
X89069047Y-127708333D02*
X89021428Y-127641666D01*
X88926190Y-127575000D01*
X88783333Y-127575000D01*
X88688095Y-127641666D01*
X88640476Y-127775000D01*
X88640476Y-128508333D01*
X88640476Y-127775000D02*
X88592857Y-127641666D01*
X88497619Y-127575000D01*
X88354761Y-127575000D01*
X88259523Y-127641666D01*
X88211904Y-127775000D01*
X88211904Y-128508333D01*
X87735714Y-128508333D02*
X87735714Y-127575000D01*
X87735714Y-127708333D02*
X87688095Y-127641666D01*
X87592857Y-127575000D01*
X87450000Y-127575000D01*
X87354761Y-127641666D01*
X87307142Y-127775000D01*
X87307142Y-128508333D01*
X87307142Y-127775000D02*
X87259523Y-127641666D01*
X87164285Y-127575000D01*
X87021428Y-127575000D01*
X86926190Y-127641666D01*
X86878571Y-127775000D01*
X86878571Y-128508333D01*
X86259523Y-128508333D02*
X86354761Y-128441666D01*
X86402380Y-128375000D01*
X86450000Y-128241666D01*
X86450000Y-127841666D01*
X86402380Y-127708333D01*
X86354761Y-127641666D01*
X86259523Y-127575000D01*
X86116666Y-127575000D01*
X86021428Y-127641666D01*
X85973809Y-127708333D01*
X85926190Y-127841666D01*
X85926190Y-128241666D01*
X85973809Y-128375000D01*
X86021428Y-128441666D01*
X86116666Y-128508333D01*
X86259523Y-128508333D01*
X85497619Y-127575000D02*
X85497619Y-128508333D01*
X85497619Y-127708333D02*
X85450000Y-127641666D01*
X85354761Y-127575000D01*
X85211904Y-127575000D01*
X85116666Y-127641666D01*
X85069047Y-127775000D01*
X85069047Y-128508333D01*
X84640476Y-128441666D02*
X84545238Y-128508333D01*
X84354761Y-128508333D01*
X84259523Y-128441666D01*
X84211904Y-128308333D01*
X84211904Y-128241666D01*
X84259523Y-128108333D01*
X84354761Y-128041666D01*
X84497619Y-128041666D01*
X84592857Y-127975000D01*
X84640476Y-127841666D01*
X84640476Y-127775000D01*
X84592857Y-127641666D01*
X84497619Y-127575000D01*
X84354761Y-127575000D01*
X84259523Y-127641666D01*
X82592857Y-127575000D02*
X82592857Y-128508333D01*
X82830952Y-127041666D02*
X83069047Y-128041666D01*
X82450000Y-128041666D01*
X82069047Y-128375000D02*
X82021428Y-128441666D01*
X82069047Y-128508333D01*
X82116666Y-128441666D01*
X82069047Y-128375000D01*
X82069047Y-128508333D01*
X81402380Y-127108333D02*
X81307142Y-127108333D01*
X81211904Y-127175000D01*
X81164285Y-127241666D01*
X81116666Y-127375000D01*
X81069047Y-127641666D01*
X81069047Y-127975000D01*
X81116666Y-128241666D01*
X81164285Y-128375000D01*
X81211904Y-128441666D01*
X81307142Y-128508333D01*
X81402380Y-128508333D01*
X81497619Y-128441666D01*
X81545238Y-128375000D01*
X81592857Y-128241666D01*
X81640476Y-127975000D01*
X81640476Y-127641666D01*
X81592857Y-127375000D01*
X81545238Y-127241666D01*
X81497619Y-127175000D01*
X81402380Y-127108333D01*
X92711904Y-130625000D02*
X92759523Y-130691666D01*
X92902380Y-130758333D01*
X92997619Y-130758333D01*
X93140476Y-130691666D01*
X93235714Y-130558333D01*
X93283333Y-130425000D01*
X93330952Y-130158333D01*
X93330952Y-129958333D01*
X93283333Y-129691666D01*
X93235714Y-129558333D01*
X93140476Y-129425000D01*
X92997619Y-129358333D01*
X92902380Y-129358333D01*
X92759523Y-129425000D01*
X92711904Y-129491666D01*
X91711904Y-130625000D02*
X91759523Y-130691666D01*
X91902380Y-130758333D01*
X91997619Y-130758333D01*
X92140476Y-130691666D01*
X92235714Y-130558333D01*
X92283333Y-130425000D01*
X92330952Y-130158333D01*
X92330952Y-129958333D01*
X92283333Y-129691666D01*
X92235714Y-129558333D01*
X92140476Y-129425000D01*
X91997619Y-129358333D01*
X91902380Y-129358333D01*
X91759523Y-129425000D01*
X91711904Y-129491666D01*
X91283333Y-130225000D02*
X90521428Y-130225000D01*
X89711904Y-130025000D02*
X89569047Y-130091666D01*
X89521428Y-130158333D01*
X89473809Y-130291666D01*
X89473809Y-130491666D01*
X89521428Y-130625000D01*
X89569047Y-130691666D01*
X89664285Y-130758333D01*
X90045238Y-130758333D01*
X90045238Y-129358333D01*
X89711904Y-129358333D01*
X89616666Y-129425000D01*
X89569047Y-129491666D01*
X89521428Y-129625000D01*
X89521428Y-129758333D01*
X89569047Y-129891666D01*
X89616666Y-129958333D01*
X89711904Y-130025000D01*
X90045238Y-130025000D01*
X88854761Y-130091666D02*
X88854761Y-130758333D01*
X89188095Y-129358333D02*
X88854761Y-130091666D01*
X88521428Y-129358333D01*
X88188095Y-130225000D02*
X87426190Y-130225000D01*
X86997619Y-130691666D02*
X86854761Y-130758333D01*
X86616666Y-130758333D01*
X86521428Y-130691666D01*
X86473809Y-130625000D01*
X86426190Y-130491666D01*
X86426190Y-130358333D01*
X86473809Y-130225000D01*
X86521428Y-130158333D01*
X86616666Y-130091666D01*
X86807142Y-130025000D01*
X86902380Y-129958333D01*
X86950000Y-129891666D01*
X86997619Y-129758333D01*
X86997619Y-129625000D01*
X86950000Y-129491666D01*
X86902380Y-129425000D01*
X86807142Y-129358333D01*
X86569047Y-129358333D01*
X86426190Y-129425000D01*
X86045238Y-130358333D02*
X85569047Y-130358333D01*
X86140476Y-130758333D02*
X85807142Y-129358333D01*
X85473809Y-130758333D01*
D11*
%TO.C,G\u002A\u002A\u002A*%
G36*
X143383164Y-36523141D02*
G01*
X143679120Y-36937848D01*
X143838919Y-37536045D01*
X143854512Y-37802678D01*
X143908511Y-38330929D01*
X144046585Y-39013564D01*
X144203709Y-39585333D01*
X144332537Y-40070237D01*
X144443561Y-40671325D01*
X144542244Y-41436070D01*
X144634049Y-42411944D01*
X144724439Y-43646418D01*
X144788335Y-44665333D01*
X144860238Y-45811008D01*
X144932622Y-46859150D01*
X145001329Y-47757209D01*
X145062197Y-48452633D01*
X145111068Y-48892871D01*
X145132242Y-49010452D01*
X145190156Y-49152907D01*
X145303016Y-49254437D01*
X145524058Y-49323750D01*
X145906519Y-49369552D01*
X146503634Y-49400552D01*
X147368639Y-49425456D01*
X147720432Y-49433785D01*
X148695394Y-49459484D01*
X149403016Y-49491945D01*
X149914587Y-49542991D01*
X150301395Y-49624441D01*
X150634729Y-49748116D01*
X150985879Y-49925837D01*
X151114615Y-49996586D01*
X151634464Y-50316195D01*
X152042529Y-50624287D01*
X152215281Y-50807237D01*
X152471348Y-51007684D01*
X152978206Y-51246750D01*
X153656448Y-51487808D01*
X153758328Y-51518962D01*
X154420559Y-51717488D01*
X155305884Y-51982744D01*
X156312946Y-52284370D01*
X157340388Y-52592003D01*
X157661057Y-52687995D01*
X158683236Y-53001876D01*
X159438302Y-53256808D01*
X159986996Y-53478734D01*
X160390059Y-53693597D01*
X160708232Y-53927343D01*
X160840210Y-54045896D01*
X161386376Y-54468136D01*
X162158011Y-54945096D01*
X163058362Y-55427233D01*
X163990682Y-55865002D01*
X164858219Y-56208859D01*
X165371212Y-56366159D01*
X165716750Y-56466726D01*
X166031041Y-56602107D01*
X166360890Y-56808793D01*
X166753102Y-57123277D01*
X167254481Y-57582051D01*
X167911832Y-58221608D01*
X168495632Y-58802184D01*
X169912971Y-60288488D01*
X171135479Y-61738197D01*
X172199498Y-63212252D01*
X173141371Y-64771594D01*
X173997439Y-66477165D01*
X174804044Y-68389906D01*
X175597529Y-70570759D01*
X175708337Y-70897081D01*
X176399708Y-73149399D01*
X176892781Y-75242714D01*
X177207433Y-77277049D01*
X177356843Y-79192008D01*
X177464994Y-81630016D01*
X178988994Y-82241847D01*
X180037364Y-82684434D01*
X180836192Y-83081357D01*
X181461613Y-83479852D01*
X181989761Y-83927153D01*
X182397460Y-84356462D01*
X183065485Y-85208020D01*
X183722968Y-86212101D01*
X184302370Y-87253346D01*
X184736156Y-88216397D01*
X184852521Y-88549868D01*
X185127157Y-89921210D01*
X185174165Y-91455327D01*
X185010333Y-93080563D01*
X184652448Y-94725266D01*
X184117298Y-96317780D01*
X183421670Y-97786453D01*
X182582352Y-99059630D01*
X182314763Y-99381720D01*
X181797797Y-99971877D01*
X181391195Y-100462577D01*
X181077743Y-100906291D01*
X180840226Y-101355492D01*
X180661431Y-101862649D01*
X180524144Y-102480233D01*
X180411150Y-103260716D01*
X180305236Y-104256568D01*
X180189188Y-105520261D01*
X180147185Y-105988851D01*
X180149441Y-106850163D01*
X180280777Y-107960537D01*
X180414458Y-108698184D01*
X180509370Y-109203350D01*
X180587399Y-109713231D01*
X180650854Y-110270287D01*
X180702050Y-110916983D01*
X180743298Y-111695779D01*
X180776911Y-112649138D01*
X180805200Y-113819523D01*
X180830479Y-115249395D01*
X180851688Y-116727571D01*
X180935802Y-123003808D01*
X180410830Y-123500904D01*
X179815280Y-124149408D01*
X179164251Y-125025894D01*
X178441498Y-126155183D01*
X177630777Y-127562096D01*
X177047516Y-128639910D01*
X176474461Y-129709373D01*
X175985130Y-130587434D01*
X175530250Y-131349865D01*
X175060549Y-132072438D01*
X174526756Y-132830923D01*
X173879597Y-133701094D01*
X173069801Y-134758721D01*
X173062328Y-134768410D01*
X172028514Y-136075678D01*
X171137963Y-137119898D01*
X170357416Y-137927050D01*
X169653617Y-138523113D01*
X168993309Y-138934066D01*
X168343237Y-139185890D01*
X167670142Y-139304561D01*
X167232309Y-139322667D01*
X166191820Y-139217930D01*
X165237013Y-138959926D01*
X164549597Y-138679627D01*
X163891084Y-138348304D01*
X163226303Y-137937950D01*
X162520088Y-137420552D01*
X161737270Y-136768101D01*
X160842680Y-135952588D01*
X159801150Y-134946001D01*
X158577513Y-133720332D01*
X158283781Y-133421963D01*
X157192408Y-132306851D01*
X156311155Y-131389948D01*
X155610226Y-130630429D01*
X155059827Y-129987469D01*
X154630163Y-129420246D01*
X154291439Y-128887934D01*
X154013861Y-128349710D01*
X153767634Y-127764750D01*
X153522964Y-127092230D01*
X153397536Y-126726950D01*
X153088260Y-125876486D01*
X152753823Y-125054075D01*
X152422529Y-124319443D01*
X152122683Y-123732314D01*
X151882588Y-123352414D01*
X151743593Y-123236944D01*
X151465085Y-123279576D01*
X151028593Y-123382724D01*
X150964328Y-123400019D01*
X150593609Y-123477531D01*
X149960352Y-123584836D01*
X149138162Y-123710463D01*
X148200643Y-123842941D01*
X147662328Y-123914594D01*
X146308877Y-124099369D01*
X145221363Y-124272736D01*
X144328328Y-124452636D01*
X143558315Y-124657011D01*
X142839866Y-124903799D01*
X142101526Y-125210943D01*
X141618481Y-125432023D01*
X140125149Y-126057584D01*
X138820436Y-126440752D01*
X137666516Y-126590963D01*
X137040488Y-126574084D01*
X136416239Y-126544542D01*
X135982099Y-126612035D01*
X135597103Y-126802293D01*
X135522886Y-126851063D01*
X135090147Y-127188340D01*
X134768336Y-127572298D01*
X134536487Y-128062255D01*
X134373632Y-128717533D01*
X134258802Y-129597450D01*
X134177490Y-130657336D01*
X134103686Y-131588724D01*
X134006690Y-132471695D01*
X133898418Y-133213650D01*
X133790789Y-133721988D01*
X133777338Y-133766484D01*
X133618630Y-134450652D01*
X133529819Y-135200017D01*
X133522994Y-135418598D01*
X133463037Y-136471663D01*
X133287631Y-137806823D01*
X133003472Y-139390298D01*
X132617257Y-141188311D01*
X132135683Y-143167083D01*
X131565446Y-145292837D01*
X131565207Y-145293689D01*
X131331568Y-146067799D01*
X131089727Y-146668914D01*
X130785622Y-147168860D01*
X130365189Y-147639461D01*
X129774367Y-148152541D01*
X128959091Y-148779927D01*
X128917847Y-148810811D01*
X127926623Y-149522357D01*
X127032882Y-150105599D01*
X126268216Y-150544439D01*
X125664221Y-150822778D01*
X125252489Y-150924519D01*
X125064616Y-150833564D01*
X125056328Y-150778306D01*
X124917504Y-150502296D01*
X124556316Y-150143628D01*
X124055683Y-149766259D01*
X123498525Y-149434144D01*
X123066420Y-149243517D01*
X122614390Y-149109409D01*
X121937129Y-148938755D01*
X121142209Y-148757761D01*
X120638125Y-148651982D01*
X119319237Y-148339304D01*
X118254595Y-147967460D01*
X117360056Y-147490950D01*
X116551475Y-146864275D01*
X115744708Y-146041936D01*
X115683460Y-145972843D01*
X115137843Y-145320133D01*
X114635196Y-144659383D01*
X114250164Y-144091319D01*
X114119205Y-143862064D01*
X113626519Y-142681156D01*
X113191011Y-141207978D01*
X112819651Y-139485186D01*
X112519410Y-137555434D01*
X112297258Y-135461377D01*
X112160167Y-133245671D01*
X112118247Y-131618000D01*
X112095771Y-130317201D01*
X112053663Y-129250566D01*
X111982757Y-128313754D01*
X111873884Y-127402424D01*
X111717877Y-126412236D01*
X111604979Y-125776000D01*
X111328209Y-124056700D01*
X111220564Y-123043503D01*
X112039194Y-123043503D01*
X112080525Y-123970396D01*
X112252913Y-124872098D01*
X112426560Y-125461400D01*
X112641122Y-126180923D01*
X112818387Y-126931557D01*
X112964711Y-127764138D01*
X113086452Y-128729504D01*
X113189966Y-129878491D01*
X113281611Y-131261936D01*
X113367742Y-132930675D01*
X113372003Y-133022192D01*
X113473635Y-134969561D01*
X113587916Y-136628461D01*
X113722160Y-138049051D01*
X113883685Y-139281488D01*
X114079804Y-140375927D01*
X114317833Y-141382526D01*
X114605087Y-142351442D01*
X114827323Y-143000590D01*
X115088977Y-143659947D01*
X115373671Y-144172376D01*
X115760525Y-144653120D01*
X116328656Y-145217423D01*
X116386504Y-145271684D01*
X117526106Y-146181084D01*
X118828654Y-146915842D01*
X120330014Y-147488829D01*
X122066050Y-147912917D01*
X124072629Y-148200976D01*
X124717661Y-148261529D01*
X125679844Y-148331941D01*
X126386790Y-148350883D01*
X126918968Y-148311555D01*
X127356847Y-148207156D01*
X127780898Y-148030888D01*
X127850328Y-147996813D01*
X128923067Y-147275221D01*
X129819942Y-146272353D01*
X130534407Y-145000237D01*
X131059918Y-143470898D01*
X131389928Y-141696365D01*
X131419076Y-141439333D01*
X131515131Y-140791231D01*
X131675559Y-139968662D01*
X131870197Y-139122361D01*
X131927334Y-138899333D01*
X132323112Y-137163500D01*
X132652454Y-135202975D01*
X132922692Y-132971376D01*
X133011528Y-132041333D01*
X133108842Y-131059752D01*
X133228768Y-130014122D01*
X133361344Y-128976544D01*
X133496612Y-128019118D01*
X133624609Y-127213946D01*
X133735376Y-126633129D01*
X133786442Y-126431851D01*
X134002259Y-126224096D01*
X134504815Y-125978561D01*
X135246404Y-125710780D01*
X136179319Y-125436288D01*
X137255855Y-125170618D01*
X138363646Y-124941397D01*
X139217281Y-124763084D01*
X140278785Y-124514686D01*
X141432049Y-124224777D01*
X142560965Y-123921931D01*
X142935646Y-123816219D01*
X143984567Y-123533130D01*
X145058939Y-123273282D01*
X146057254Y-123059265D01*
X146878007Y-122913669D01*
X147154328Y-122877365D01*
X147948191Y-122778025D01*
X148713035Y-122661228D01*
X149314449Y-122548065D01*
X149440328Y-122518631D01*
X150326761Y-122347033D01*
X151218778Y-122262502D01*
X152012432Y-122268947D01*
X152603779Y-122370280D01*
X152675977Y-122396920D01*
X153010169Y-122575040D01*
X153264879Y-122833642D01*
X153476164Y-123238688D01*
X153680076Y-123856137D01*
X153871081Y-124583326D01*
X154393986Y-126191192D01*
X155150742Y-127826757D01*
X156078104Y-129355150D01*
X156170238Y-129486304D01*
X156539808Y-129953294D01*
X157097946Y-130591745D01*
X157802470Y-131359058D01*
X158611197Y-132212636D01*
X159481944Y-133109880D01*
X160372528Y-134008192D01*
X161240767Y-134864974D01*
X162044478Y-135637629D01*
X162741477Y-136283558D01*
X163289584Y-136760163D01*
X163618070Y-137007465D01*
X164483502Y-137458428D01*
X165472576Y-137825325D01*
X166448599Y-138064771D01*
X167172652Y-138135679D01*
X168050507Y-138010578D01*
X168940306Y-137677311D01*
X169716523Y-137193842D01*
X170156048Y-136757998D01*
X170407605Y-136434328D01*
X170822653Y-135902852D01*
X171355433Y-135222056D01*
X171960190Y-134450426D01*
X172388934Y-133904000D01*
X173940332Y-131862845D01*
X175242415Y-130005980D01*
X176311380Y-128307459D01*
X177163422Y-126741336D01*
X177814737Y-125281664D01*
X177885398Y-125098667D01*
X178137206Y-124622668D01*
X178523812Y-124081321D01*
X178741416Y-123828667D01*
X179046452Y-123497410D01*
X179287575Y-123203158D01*
X179472753Y-122902042D01*
X179609957Y-122550193D01*
X179707154Y-122103743D01*
X179772314Y-121518823D01*
X179813406Y-120751564D01*
X179838399Y-119758098D01*
X179855262Y-118494556D01*
X179864173Y-117648000D01*
X179877340Y-116253053D01*
X179881983Y-115134637D01*
X179874349Y-114230653D01*
X179850685Y-113478999D01*
X179807242Y-112817574D01*
X179740265Y-112184277D01*
X179646004Y-111517007D01*
X179520705Y-110753663D01*
X179408492Y-110105846D01*
X179165074Y-108625174D01*
X179005961Y-107433705D01*
X178929246Y-106493130D01*
X178933024Y-105765142D01*
X179015389Y-105211435D01*
X179146837Y-104847016D01*
X179433229Y-104164882D01*
X179508293Y-103656447D01*
X179376689Y-103234560D01*
X179243486Y-103039753D01*
X179008118Y-102795064D01*
X178701858Y-102602400D01*
X178277296Y-102451110D01*
X177687022Y-102330546D01*
X176883627Y-102230058D01*
X175819701Y-102138996D01*
X174971598Y-102080185D01*
X172145861Y-101788701D01*
X169449843Y-101282594D01*
X166817454Y-100542194D01*
X164182601Y-99547828D01*
X161479194Y-98279826D01*
X160531661Y-97782329D01*
X159429816Y-97181763D01*
X158568559Y-96684375D01*
X157886563Y-96239900D01*
X157322502Y-95798076D01*
X156815050Y-95308639D01*
X156302883Y-94721327D01*
X155724674Y-93985875D01*
X155436427Y-93606219D01*
X154402551Y-92184543D01*
X153583889Y-90923961D01*
X152948097Y-89754463D01*
X152462830Y-88606036D01*
X152095744Y-87408670D01*
X151814496Y-86092352D01*
X151728800Y-85580752D01*
X151601670Y-84660063D01*
X151554212Y-83951828D01*
X151582969Y-83340195D01*
X151648718Y-82895748D01*
X151780985Y-82448932D01*
X153183832Y-82448932D01*
X153222448Y-83293909D01*
X153360324Y-84025844D01*
X153390683Y-84120000D01*
X153510994Y-84667412D01*
X153426302Y-85192250D01*
X153388558Y-85305333D01*
X153191996Y-86359315D01*
X153284142Y-87534500D01*
X153655473Y-88791622D01*
X154296460Y-90091413D01*
X154704436Y-90729579D01*
X155660815Y-92084921D01*
X156507401Y-93194988D01*
X157298276Y-94110884D01*
X158087517Y-94883713D01*
X158929205Y-95564581D01*
X159877418Y-96204591D01*
X160986237Y-96854849D01*
X161462994Y-97116372D01*
X163474231Y-98081751D01*
X165753698Y-98958013D01*
X168238725Y-99728143D01*
X170866641Y-100375129D01*
X173574775Y-100881958D01*
X176300456Y-101231617D01*
X176787661Y-101276512D01*
X177462701Y-101335698D01*
X177967061Y-101358072D01*
X178366574Y-101313765D01*
X178727074Y-101172903D01*
X179114391Y-100905615D01*
X179594360Y-100482028D01*
X180232812Y-99872271D01*
X180545349Y-99571438D01*
X181516371Y-98599317D01*
X182234653Y-97782250D01*
X182725879Y-97082486D01*
X183015734Y-96462274D01*
X183129903Y-95883862D01*
X183133942Y-95766731D01*
X183211737Y-95378132D01*
X183410832Y-94822446D01*
X183655312Y-94287457D01*
X184141610Y-92968839D01*
X184315076Y-91575344D01*
X184183823Y-90140213D01*
X183755965Y-88696684D01*
X183039614Y-87277998D01*
X182042885Y-85917395D01*
X181458033Y-85285427D01*
X180734416Y-84595558D01*
X180169941Y-84146994D01*
X179722996Y-83908289D01*
X179581661Y-83867414D01*
X178597623Y-83530777D01*
X177501431Y-82917870D01*
X176277772Y-82019138D01*
X175352402Y-81228516D01*
X174537220Y-80506380D01*
X173840696Y-79922238D01*
X173204687Y-79444496D01*
X172571047Y-79041561D01*
X171881635Y-78681839D01*
X171078305Y-78333738D01*
X170102913Y-77965662D01*
X168897317Y-77546020D01*
X168046662Y-77258821D01*
X164160460Y-75953934D01*
X161160727Y-76739731D01*
X159657725Y-77151085D01*
X158437237Y-77528867D01*
X157447582Y-77894362D01*
X156637079Y-78268859D01*
X155954049Y-78673643D01*
X155346810Y-79130000D01*
X155336402Y-79138696D01*
X154822086Y-79558819D01*
X154338588Y-79936941D01*
X154091295Y-80119394D01*
X153706708Y-80504123D01*
X153406969Y-80991739D01*
X153402221Y-81002955D01*
X153243936Y-81636688D01*
X153183832Y-82448932D01*
X151780985Y-82448932D01*
X152077682Y-81446657D01*
X152799072Y-80089455D01*
X153770428Y-78865565D01*
X154949291Y-77816410D01*
X156293201Y-76983413D01*
X157759699Y-76407997D01*
X158471202Y-76239812D01*
X159179246Y-76078089D01*
X160059328Y-75835107D01*
X160967655Y-75551853D01*
X161378328Y-75411184D01*
X162652361Y-75011244D01*
X163728932Y-74807581D01*
X164688527Y-74802980D01*
X165611634Y-75000227D01*
X166578738Y-75402107D01*
X166966328Y-75604585D01*
X167266226Y-75731636D01*
X167804020Y-75926470D01*
X168493476Y-76158708D01*
X168998328Y-76320424D01*
X170825296Y-76980395D01*
X172668325Y-77804542D01*
X174380554Y-78724600D01*
X175018583Y-79118818D01*
X175575457Y-79465386D01*
X176017334Y-79714745D01*
X176274643Y-79828683D01*
X176309967Y-79828138D01*
X176340204Y-79615261D01*
X176323853Y-79129237D01*
X176267992Y-78431310D01*
X176179697Y-77582719D01*
X176066048Y-76644707D01*
X175934120Y-75678517D01*
X175790993Y-74745388D01*
X175643743Y-73906563D01*
X175599580Y-73681261D01*
X174904333Y-70861023D01*
X173997322Y-68205340D01*
X172892766Y-65738335D01*
X171604880Y-63484130D01*
X170147884Y-61466850D01*
X168535994Y-59710617D01*
X166783430Y-58239554D01*
X166299613Y-57902173D01*
X165487048Y-57400463D01*
X164764349Y-57066295D01*
X163977334Y-56832403D01*
X163711280Y-56772927D01*
X162560344Y-56514736D01*
X161682921Y-56278141D01*
X161016979Y-56038868D01*
X160500483Y-55772649D01*
X160071401Y-55455210D01*
X159870909Y-55270337D01*
X159479511Y-54938113D01*
X158981076Y-54619865D01*
X158313366Y-54282390D01*
X157414142Y-53892482D01*
X156890994Y-53680538D01*
X155942873Y-53316675D01*
X154979539Y-52971723D01*
X154104485Y-52681232D01*
X153421203Y-52480754D01*
X153334994Y-52459017D01*
X152534371Y-52231902D01*
X151697448Y-51944413D01*
X151062422Y-51683783D01*
X150640702Y-51501089D01*
X150235938Y-51367111D01*
X149776135Y-51270020D01*
X149189299Y-51197984D01*
X148403434Y-51139172D01*
X147421756Y-51085519D01*
X146460651Y-51027650D01*
X145574672Y-50956737D01*
X144839660Y-50880132D01*
X144331455Y-50805185D01*
X144192112Y-50772498D01*
X143709899Y-50687637D01*
X142955872Y-50631039D01*
X141995706Y-50602713D01*
X140895073Y-50602672D01*
X139719647Y-50630925D01*
X138535100Y-50687483D01*
X137417661Y-50771390D01*
X134369871Y-51185096D01*
X131517082Y-51852981D01*
X130884163Y-52043457D01*
X130131736Y-52317760D01*
X129151889Y-52731638D01*
X128009058Y-53252869D01*
X126767683Y-53849232D01*
X125492200Y-54488506D01*
X124247047Y-55138470D01*
X123096662Y-55766902D01*
X122105482Y-56341581D01*
X121412710Y-56779532D01*
X119903840Y-57933333D01*
X118627068Y-59198774D01*
X117611599Y-60539441D01*
X116886642Y-61918923D01*
X116593087Y-62788272D01*
X116436342Y-63300967D01*
X116194486Y-63999577D01*
X115912037Y-64757140D01*
X115822444Y-64986001D01*
X115620589Y-65502596D01*
X115444751Y-65983694D01*
X115293204Y-66455670D01*
X115164223Y-66944898D01*
X115056085Y-67477752D01*
X114967063Y-68080609D01*
X114895434Y-68779841D01*
X114839472Y-69601823D01*
X114797453Y-70572931D01*
X114767652Y-71719538D01*
X114748344Y-73068019D01*
X114737804Y-74644749D01*
X114734308Y-76476102D01*
X114736132Y-78588452D01*
X114741549Y-81008175D01*
X114742817Y-81495333D01*
X114748544Y-83943606D01*
X114751109Y-86081788D01*
X114749211Y-87938452D01*
X114741546Y-89542170D01*
X114726813Y-90921513D01*
X114703709Y-92105054D01*
X114670933Y-93121362D01*
X114627182Y-93999011D01*
X114571154Y-94766572D01*
X114501547Y-95452617D01*
X114417059Y-96085717D01*
X114316387Y-96694445D01*
X114198229Y-97307371D01*
X114061284Y-97953068D01*
X113974927Y-98344000D01*
X113729997Y-99483264D01*
X113522865Y-100550318D01*
X113349800Y-101589081D01*
X113207067Y-102643471D01*
X113090935Y-103757409D01*
X112997671Y-104974812D01*
X112923540Y-106339600D01*
X112864811Y-107895693D01*
X112817750Y-109687008D01*
X112778625Y-111757466D01*
X112765938Y-112568000D01*
X112737461Y-114317825D01*
X112708039Y-115769050D01*
X112675597Y-116961741D01*
X112638056Y-117935964D01*
X112593341Y-118731783D01*
X112539373Y-119389264D01*
X112474077Y-119948473D01*
X112395374Y-120449474D01*
X112342886Y-120728562D01*
X112127216Y-121995024D01*
X112039194Y-123043503D01*
X111220564Y-123043503D01*
X111166208Y-122531897D01*
X111106423Y-121099465D01*
X111086328Y-119047596D01*
X109046250Y-118934175D01*
X107692000Y-118833103D01*
X106606265Y-118685357D01*
X105720037Y-118472038D01*
X104964305Y-118174243D01*
X104270060Y-117773073D01*
X103931994Y-117533467D01*
X103381661Y-117122765D01*
X103381661Y-115046163D01*
X104641040Y-115046163D01*
X104649756Y-115472543D01*
X104699609Y-115743783D01*
X104792796Y-115920469D01*
X104828028Y-115962439D01*
X105227059Y-116231557D01*
X105909065Y-116499416D01*
X106818704Y-116749369D01*
X107900635Y-116964768D01*
X108431144Y-117046294D01*
X109356234Y-117216611D01*
X110101744Y-117434832D01*
X110491063Y-117616404D01*
X110790126Y-117787538D01*
X111002471Y-117842610D01*
X111147846Y-117740186D01*
X111245999Y-117438833D01*
X111316679Y-116897117D01*
X111379636Y-116073606D01*
X111404181Y-115700667D01*
X111441483Y-115085850D01*
X111491927Y-114194597D01*
X111552197Y-113088740D01*
X111618976Y-111830108D01*
X111688947Y-110480533D01*
X111758794Y-109101846D01*
X111767511Y-108927333D01*
X111896289Y-106540646D01*
X112031188Y-104450842D01*
X112176390Y-102616143D01*
X112336077Y-100994773D01*
X112514429Y-99544952D01*
X112715627Y-98224905D01*
X112943853Y-96992852D01*
X112979237Y-96820000D01*
X113153728Y-95972009D01*
X113309043Y-95206983D01*
X113428776Y-94606410D01*
X113496521Y-94251780D01*
X113498255Y-94241936D01*
X113447412Y-93697666D01*
X113173807Y-93084028D01*
X112744314Y-92507178D01*
X112225803Y-92073269D01*
X112083790Y-91996553D01*
X111462629Y-91805899D01*
X110529987Y-91670834D01*
X109731830Y-91612782D01*
X108002625Y-91524528D01*
X107887604Y-92541179D01*
X107823266Y-93024616D01*
X107711916Y-93771343D01*
X107564608Y-94710998D01*
X107392395Y-95773218D01*
X107206330Y-96887642D01*
X107185687Y-97009248D01*
X106779022Y-99403976D01*
X106425545Y-101494866D01*
X106120816Y-103311807D01*
X105860395Y-104884686D01*
X105639843Y-106243395D01*
X105454720Y-107417821D01*
X105300585Y-108437854D01*
X105172999Y-109333383D01*
X105067523Y-110134297D01*
X104979716Y-110870484D01*
X104905138Y-111571835D01*
X104839350Y-112268238D01*
X104777912Y-112989581D01*
X104738235Y-113485637D01*
X104671265Y-114404056D01*
X104641040Y-115046163D01*
X103381661Y-115046163D01*
X103381661Y-114754042D01*
X103387739Y-113743691D01*
X103410170Y-112825001D01*
X103455249Y-111951588D01*
X103529273Y-111077070D01*
X103638535Y-110155064D01*
X103789332Y-109139186D01*
X103987960Y-107983055D01*
X104240712Y-106640287D01*
X104553886Y-105064499D01*
X104933776Y-103209309D01*
X104976912Y-103000667D01*
X105137171Y-102156913D01*
X105320987Y-101076704D01*
X105512541Y-99859951D01*
X105696014Y-98606569D01*
X105832840Y-97594439D01*
X106112780Y-95605746D01*
X106397917Y-93942492D01*
X106691044Y-92591460D01*
X106994951Y-91539430D01*
X107243691Y-90912758D01*
X107472757Y-90547171D01*
X107781904Y-90327818D01*
X108223770Y-90249671D01*
X108850995Y-90307704D01*
X109716218Y-90496890D01*
X110216978Y-90628844D01*
X111262910Y-90890665D01*
X112045658Y-91026208D01*
X112615767Y-91036746D01*
X113023783Y-90923550D01*
X113303750Y-90706498D01*
X113374529Y-90614273D01*
X113434745Y-90488020D01*
X113485654Y-90300041D01*
X113528517Y-90022635D01*
X113564590Y-89628101D01*
X113595133Y-89088738D01*
X113621404Y-88376848D01*
X113644662Y-87464728D01*
X113666165Y-86324680D01*
X113687171Y-84929002D01*
X113708940Y-83249994D01*
X113732658Y-81266165D01*
X113764903Y-78722676D01*
X113799545Y-76489889D01*
X113838536Y-74539843D01*
X113883829Y-72844573D01*
X113937377Y-71376117D01*
X114001132Y-70106511D01*
X114077048Y-69007791D01*
X114167078Y-68051995D01*
X114273175Y-67211159D01*
X114397291Y-66457320D01*
X114541380Y-65762515D01*
X114707394Y-65098780D01*
X114897288Y-64438153D01*
X114911109Y-64392667D01*
X115450654Y-62700068D01*
X115955750Y-61300303D01*
X116449979Y-60152549D01*
X116956925Y-59215981D01*
X117500171Y-58449776D01*
X118103299Y-57813110D01*
X118789893Y-57265160D01*
X119176673Y-57008671D01*
X119668630Y-56695539D01*
X120352399Y-56254703D01*
X121137116Y-55744978D01*
X121923661Y-55230599D01*
X123781298Y-54081581D01*
X125506390Y-53157473D01*
X127066113Y-52475302D01*
X127600036Y-52285878D01*
X128481781Y-51960207D01*
X129325319Y-51585485D01*
X130070331Y-51195260D01*
X130656498Y-50823082D01*
X131023504Y-50502500D01*
X131117329Y-50329570D01*
X131063013Y-50054123D01*
X130879207Y-49546358D01*
X130593297Y-48874095D01*
X130232671Y-48105158D01*
X130157911Y-47953619D01*
X129456124Y-46520360D01*
X128911817Y-45352098D01*
X128515547Y-44419156D01*
X128496054Y-44364136D01*
X129741547Y-44364136D01*
X129822425Y-44958364D01*
X130024706Y-45697052D01*
X130322560Y-46525703D01*
X130690156Y-47389819D01*
X131101663Y-48234904D01*
X131531253Y-49006461D01*
X131953094Y-49649993D01*
X132341356Y-50111002D01*
X132670209Y-50334992D01*
X132824956Y-50334281D01*
X133115605Y-50256278D01*
X133639372Y-50146519D01*
X134294825Y-50025896D01*
X134454328Y-49998681D01*
X135346813Y-49866395D01*
X136344451Y-49744875D01*
X137163661Y-49666259D01*
X137836924Y-49604469D01*
X138706720Y-49510922D01*
X139682197Y-49396885D01*
X140672503Y-49273621D01*
X141586784Y-49152396D01*
X142334187Y-49044475D01*
X142778577Y-48970058D01*
X143116832Y-48748046D01*
X143470769Y-48230741D01*
X143540577Y-48094976D01*
X143691756Y-47763183D01*
X143798894Y-47437443D01*
X143869482Y-47051896D01*
X143911010Y-46540682D01*
X143930968Y-45837943D01*
X143936846Y-44877817D01*
X143936994Y-44609350D01*
X143931881Y-43566818D01*
X143913520Y-42813229D01*
X143877382Y-42298971D01*
X143818939Y-41974434D01*
X143733659Y-41790005D01*
X143674164Y-41730683D01*
X143493933Y-41462871D01*
X143308503Y-40983262D01*
X143203042Y-40588890D01*
X142967916Y-39780325D01*
X142682404Y-39214902D01*
X142369299Y-38932669D01*
X142246349Y-38908000D01*
X141938127Y-39064105D01*
X141560413Y-39507654D01*
X141140326Y-40201492D01*
X140805335Y-40882295D01*
X140388519Y-41645821D01*
X139962070Y-42095499D01*
X139496465Y-42255564D01*
X139175620Y-42220101D01*
X138747638Y-42010476D01*
X138223274Y-41615446D01*
X137703164Y-41125069D01*
X137287941Y-40629403D01*
X137151712Y-40408894D01*
X136779518Y-40009580D01*
X136206232Y-39726520D01*
X135562813Y-39609347D01*
X135150081Y-39650246D01*
X134885676Y-39764555D01*
X134646176Y-39995894D01*
X134404227Y-40392210D01*
X134132471Y-41001449D01*
X133803552Y-41871559D01*
X133671748Y-42241260D01*
X133271613Y-43293420D01*
X132911703Y-44040305D01*
X132567462Y-44509053D01*
X132214330Y-44726802D01*
X131827751Y-44720691D01*
X131534457Y-44603142D01*
X131074346Y-44300810D01*
X130744683Y-44005336D01*
X130348137Y-43696218D01*
X130018830Y-43718215D01*
X129807901Y-43968865D01*
X129741547Y-44364136D01*
X128496054Y-44364136D01*
X128257868Y-43691860D01*
X128129337Y-43140534D01*
X128120510Y-42735503D01*
X128221942Y-42447091D01*
X128357249Y-42295561D01*
X128576021Y-42166373D01*
X128845593Y-42166853D01*
X129278584Y-42304146D01*
X129433697Y-42363867D01*
X130368248Y-42659228D01*
X131155179Y-42766034D01*
X131737598Y-42677616D01*
X131812095Y-42642734D01*
X132086283Y-42374397D01*
X132427833Y-41865362D01*
X132795284Y-41195633D01*
X133147174Y-40445218D01*
X133442039Y-39694122D01*
X133594058Y-39204238D01*
X133791448Y-38497186D01*
X133952075Y-38051281D01*
X134114249Y-37797431D01*
X134316285Y-37666543D01*
X134473616Y-37618028D01*
X134872317Y-37642547D01*
X135474150Y-37830765D01*
X136207018Y-38149038D01*
X136998822Y-38563726D01*
X137777465Y-39041185D01*
X138267840Y-39388489D01*
X138961290Y-39854440D01*
X139495260Y-40066406D01*
X139916210Y-40039258D01*
X140064958Y-39963740D01*
X140226636Y-39755748D01*
X140469773Y-39326903D01*
X140743147Y-38767948D01*
X140756485Y-38738667D01*
X141152907Y-38019666D01*
X141641961Y-37358612D01*
X142162336Y-36820391D01*
X142652722Y-36469886D01*
X142996547Y-36368000D01*
X143383164Y-36523141D01*
G37*
X143383164Y-36523141D02*
X143679120Y-36937848D01*
X143838919Y-37536045D01*
X143854512Y-37802678D01*
X143908511Y-38330929D01*
X144046585Y-39013564D01*
X144203709Y-39585333D01*
X144332537Y-40070237D01*
X144443561Y-40671325D01*
X144542244Y-41436070D01*
X144634049Y-42411944D01*
X144724439Y-43646418D01*
X144788335Y-44665333D01*
X144860238Y-45811008D01*
X144932622Y-46859150D01*
X145001329Y-47757209D01*
X145062197Y-48452633D01*
X145111068Y-48892871D01*
X145132242Y-49010452D01*
X145190156Y-49152907D01*
X145303016Y-49254437D01*
X145524058Y-49323750D01*
X145906519Y-49369552D01*
X146503634Y-49400552D01*
X147368639Y-49425456D01*
X147720432Y-49433785D01*
X148695394Y-49459484D01*
X149403016Y-49491945D01*
X149914587Y-49542991D01*
X150301395Y-49624441D01*
X150634729Y-49748116D01*
X150985879Y-49925837D01*
X151114615Y-49996586D01*
X151634464Y-50316195D01*
X152042529Y-50624287D01*
X152215281Y-50807237D01*
X152471348Y-51007684D01*
X152978206Y-51246750D01*
X153656448Y-51487808D01*
X153758328Y-51518962D01*
X154420559Y-51717488D01*
X155305884Y-51982744D01*
X156312946Y-52284370D01*
X157340388Y-52592003D01*
X157661057Y-52687995D01*
X158683236Y-53001876D01*
X159438302Y-53256808D01*
X159986996Y-53478734D01*
X160390059Y-53693597D01*
X160708232Y-53927343D01*
X160840210Y-54045896D01*
X161386376Y-54468136D01*
X162158011Y-54945096D01*
X163058362Y-55427233D01*
X163990682Y-55865002D01*
X164858219Y-56208859D01*
X165371212Y-56366159D01*
X165716750Y-56466726D01*
X166031041Y-56602107D01*
X166360890Y-56808793D01*
X166753102Y-57123277D01*
X167254481Y-57582051D01*
X167911832Y-58221608D01*
X168495632Y-58802184D01*
X169912971Y-60288488D01*
X171135479Y-61738197D01*
X172199498Y-63212252D01*
X173141371Y-64771594D01*
X173997439Y-66477165D01*
X174804044Y-68389906D01*
X175597529Y-70570759D01*
X175708337Y-70897081D01*
X176399708Y-73149399D01*
X176892781Y-75242714D01*
X177207433Y-77277049D01*
X177356843Y-79192008D01*
X177464994Y-81630016D01*
X178988994Y-82241847D01*
X180037364Y-82684434D01*
X180836192Y-83081357D01*
X181461613Y-83479852D01*
X181989761Y-83927153D01*
X182397460Y-84356462D01*
X183065485Y-85208020D01*
X183722968Y-86212101D01*
X184302370Y-87253346D01*
X184736156Y-88216397D01*
X184852521Y-88549868D01*
X185127157Y-89921210D01*
X185174165Y-91455327D01*
X185010333Y-93080563D01*
X184652448Y-94725266D01*
X184117298Y-96317780D01*
X183421670Y-97786453D01*
X182582352Y-99059630D01*
X182314763Y-99381720D01*
X181797797Y-99971877D01*
X181391195Y-100462577D01*
X181077743Y-100906291D01*
X180840226Y-101355492D01*
X180661431Y-101862649D01*
X180524144Y-102480233D01*
X180411150Y-103260716D01*
X180305236Y-104256568D01*
X180189188Y-105520261D01*
X180147185Y-105988851D01*
X180149441Y-106850163D01*
X180280777Y-107960537D01*
X180414458Y-108698184D01*
X180509370Y-109203350D01*
X180587399Y-109713231D01*
X180650854Y-110270287D01*
X180702050Y-110916983D01*
X180743298Y-111695779D01*
X180776911Y-112649138D01*
X180805200Y-113819523D01*
X180830479Y-115249395D01*
X180851688Y-116727571D01*
X180935802Y-123003808D01*
X180410830Y-123500904D01*
X179815280Y-124149408D01*
X179164251Y-125025894D01*
X178441498Y-126155183D01*
X177630777Y-127562096D01*
X177047516Y-128639910D01*
X176474461Y-129709373D01*
X175985130Y-130587434D01*
X175530250Y-131349865D01*
X175060549Y-132072438D01*
X174526756Y-132830923D01*
X173879597Y-133701094D01*
X173069801Y-134758721D01*
X173062328Y-134768410D01*
X172028514Y-136075678D01*
X171137963Y-137119898D01*
X170357416Y-137927050D01*
X169653617Y-138523113D01*
X168993309Y-138934066D01*
X168343237Y-139185890D01*
X167670142Y-139304561D01*
X167232309Y-139322667D01*
X166191820Y-139217930D01*
X165237013Y-138959926D01*
X164549597Y-138679627D01*
X163891084Y-138348304D01*
X163226303Y-137937950D01*
X162520088Y-137420552D01*
X161737270Y-136768101D01*
X160842680Y-135952588D01*
X159801150Y-134946001D01*
X158577513Y-133720332D01*
X158283781Y-133421963D01*
X157192408Y-132306851D01*
X156311155Y-131389948D01*
X155610226Y-130630429D01*
X155059827Y-129987469D01*
X154630163Y-129420246D01*
X154291439Y-128887934D01*
X154013861Y-128349710D01*
X153767634Y-127764750D01*
X153522964Y-127092230D01*
X153397536Y-126726950D01*
X153088260Y-125876486D01*
X152753823Y-125054075D01*
X152422529Y-124319443D01*
X152122683Y-123732314D01*
X151882588Y-123352414D01*
X151743593Y-123236944D01*
X151465085Y-123279576D01*
X151028593Y-123382724D01*
X150964328Y-123400019D01*
X150593609Y-123477531D01*
X149960352Y-123584836D01*
X149138162Y-123710463D01*
X148200643Y-123842941D01*
X147662328Y-123914594D01*
X146308877Y-124099369D01*
X145221363Y-124272736D01*
X144328328Y-124452636D01*
X143558315Y-124657011D01*
X142839866Y-124903799D01*
X142101526Y-125210943D01*
X141618481Y-125432023D01*
X140125149Y-126057584D01*
X138820436Y-126440752D01*
X137666516Y-126590963D01*
X137040488Y-126574084D01*
X136416239Y-126544542D01*
X135982099Y-126612035D01*
X135597103Y-126802293D01*
X135522886Y-126851063D01*
X135090147Y-127188340D01*
X134768336Y-127572298D01*
X134536487Y-128062255D01*
X134373632Y-128717533D01*
X134258802Y-129597450D01*
X134177490Y-130657336D01*
X134103686Y-131588724D01*
X134006690Y-132471695D01*
X133898418Y-133213650D01*
X133790789Y-133721988D01*
X133777338Y-133766484D01*
X133618630Y-134450652D01*
X133529819Y-135200017D01*
X133522994Y-135418598D01*
X133463037Y-136471663D01*
X133287631Y-137806823D01*
X133003472Y-139390298D01*
X132617257Y-141188311D01*
X132135683Y-143167083D01*
X131565446Y-145292837D01*
X131565207Y-145293689D01*
X131331568Y-146067799D01*
X131089727Y-146668914D01*
X130785622Y-147168860D01*
X130365189Y-147639461D01*
X129774367Y-148152541D01*
X128959091Y-148779927D01*
X128917847Y-148810811D01*
X127926623Y-149522357D01*
X127032882Y-150105599D01*
X126268216Y-150544439D01*
X125664221Y-150822778D01*
X125252489Y-150924519D01*
X125064616Y-150833564D01*
X125056328Y-150778306D01*
X124917504Y-150502296D01*
X124556316Y-150143628D01*
X124055683Y-149766259D01*
X123498525Y-149434144D01*
X123066420Y-149243517D01*
X122614390Y-149109409D01*
X121937129Y-148938755D01*
X121142209Y-148757761D01*
X120638125Y-148651982D01*
X119319237Y-148339304D01*
X118254595Y-147967460D01*
X117360056Y-147490950D01*
X116551475Y-146864275D01*
X115744708Y-146041936D01*
X115683460Y-145972843D01*
X115137843Y-145320133D01*
X114635196Y-144659383D01*
X114250164Y-144091319D01*
X114119205Y-143862064D01*
X113626519Y-142681156D01*
X113191011Y-141207978D01*
X112819651Y-139485186D01*
X112519410Y-137555434D01*
X112297258Y-135461377D01*
X112160167Y-133245671D01*
X112118247Y-131618000D01*
X112095771Y-130317201D01*
X112053663Y-129250566D01*
X111982757Y-128313754D01*
X111873884Y-127402424D01*
X111717877Y-126412236D01*
X111604979Y-125776000D01*
X111328209Y-124056700D01*
X111220564Y-123043503D01*
X112039194Y-123043503D01*
X112080525Y-123970396D01*
X112252913Y-124872098D01*
X112426560Y-125461400D01*
X112641122Y-126180923D01*
X112818387Y-126931557D01*
X112964711Y-127764138D01*
X113086452Y-128729504D01*
X113189966Y-129878491D01*
X113281611Y-131261936D01*
X113367742Y-132930675D01*
X113372003Y-133022192D01*
X113473635Y-134969561D01*
X113587916Y-136628461D01*
X113722160Y-138049051D01*
X113883685Y-139281488D01*
X114079804Y-140375927D01*
X114317833Y-141382526D01*
X114605087Y-142351442D01*
X114827323Y-143000590D01*
X115088977Y-143659947D01*
X115373671Y-144172376D01*
X115760525Y-144653120D01*
X116328656Y-145217423D01*
X116386504Y-145271684D01*
X117526106Y-146181084D01*
X118828654Y-146915842D01*
X120330014Y-147488829D01*
X122066050Y-147912917D01*
X124072629Y-148200976D01*
X124717661Y-148261529D01*
X125679844Y-148331941D01*
X126386790Y-148350883D01*
X126918968Y-148311555D01*
X127356847Y-148207156D01*
X127780898Y-148030888D01*
X127850328Y-147996813D01*
X128923067Y-147275221D01*
X129819942Y-146272353D01*
X130534407Y-145000237D01*
X131059918Y-143470898D01*
X131389928Y-141696365D01*
X131419076Y-141439333D01*
X131515131Y-140791231D01*
X131675559Y-139968662D01*
X131870197Y-139122361D01*
X131927334Y-138899333D01*
X132323112Y-137163500D01*
X132652454Y-135202975D01*
X132922692Y-132971376D01*
X133011528Y-132041333D01*
X133108842Y-131059752D01*
X133228768Y-130014122D01*
X133361344Y-128976544D01*
X133496612Y-128019118D01*
X133624609Y-127213946D01*
X133735376Y-126633129D01*
X133786442Y-126431851D01*
X134002259Y-126224096D01*
X134504815Y-125978561D01*
X135246404Y-125710780D01*
X136179319Y-125436288D01*
X137255855Y-125170618D01*
X138363646Y-124941397D01*
X139217281Y-124763084D01*
X140278785Y-124514686D01*
X141432049Y-124224777D01*
X142560965Y-123921931D01*
X142935646Y-123816219D01*
X143984567Y-123533130D01*
X145058939Y-123273282D01*
X146057254Y-123059265D01*
X146878007Y-122913669D01*
X147154328Y-122877365D01*
X147948191Y-122778025D01*
X148713035Y-122661228D01*
X149314449Y-122548065D01*
X149440328Y-122518631D01*
X150326761Y-122347033D01*
X151218778Y-122262502D01*
X152012432Y-122268947D01*
X152603779Y-122370280D01*
X152675977Y-122396920D01*
X153010169Y-122575040D01*
X153264879Y-122833642D01*
X153476164Y-123238688D01*
X153680076Y-123856137D01*
X153871081Y-124583326D01*
X154393986Y-126191192D01*
X155150742Y-127826757D01*
X156078104Y-129355150D01*
X156170238Y-129486304D01*
X156539808Y-129953294D01*
X157097946Y-130591745D01*
X157802470Y-131359058D01*
X158611197Y-132212636D01*
X159481944Y-133109880D01*
X160372528Y-134008192D01*
X161240767Y-134864974D01*
X162044478Y-135637629D01*
X162741477Y-136283558D01*
X163289584Y-136760163D01*
X163618070Y-137007465D01*
X164483502Y-137458428D01*
X165472576Y-137825325D01*
X166448599Y-138064771D01*
X167172652Y-138135679D01*
X168050507Y-138010578D01*
X168940306Y-137677311D01*
X169716523Y-137193842D01*
X170156048Y-136757998D01*
X170407605Y-136434328D01*
X170822653Y-135902852D01*
X171355433Y-135222056D01*
X171960190Y-134450426D01*
X172388934Y-133904000D01*
X173940332Y-131862845D01*
X175242415Y-130005980D01*
X176311380Y-128307459D01*
X177163422Y-126741336D01*
X177814737Y-125281664D01*
X177885398Y-125098667D01*
X178137206Y-124622668D01*
X178523812Y-124081321D01*
X178741416Y-123828667D01*
X179046452Y-123497410D01*
X179287575Y-123203158D01*
X179472753Y-122902042D01*
X179609957Y-122550193D01*
X179707154Y-122103743D01*
X179772314Y-121518823D01*
X179813406Y-120751564D01*
X179838399Y-119758098D01*
X179855262Y-118494556D01*
X179864173Y-117648000D01*
X179877340Y-116253053D01*
X179881983Y-115134637D01*
X179874349Y-114230653D01*
X179850685Y-113478999D01*
X179807242Y-112817574D01*
X179740265Y-112184277D01*
X179646004Y-111517007D01*
X179520705Y-110753663D01*
X179408492Y-110105846D01*
X179165074Y-108625174D01*
X179005961Y-107433705D01*
X178929246Y-106493130D01*
X178933024Y-105765142D01*
X179015389Y-105211435D01*
X179146837Y-104847016D01*
X179433229Y-104164882D01*
X179508293Y-103656447D01*
X179376689Y-103234560D01*
X179243486Y-103039753D01*
X179008118Y-102795064D01*
X178701858Y-102602400D01*
X178277296Y-102451110D01*
X177687022Y-102330546D01*
X176883627Y-102230058D01*
X175819701Y-102138996D01*
X174971598Y-102080185D01*
X172145861Y-101788701D01*
X169449843Y-101282594D01*
X166817454Y-100542194D01*
X164182601Y-99547828D01*
X161479194Y-98279826D01*
X160531661Y-97782329D01*
X159429816Y-97181763D01*
X158568559Y-96684375D01*
X157886563Y-96239900D01*
X157322502Y-95798076D01*
X156815050Y-95308639D01*
X156302883Y-94721327D01*
X155724674Y-93985875D01*
X155436427Y-93606219D01*
X154402551Y-92184543D01*
X153583889Y-90923961D01*
X152948097Y-89754463D01*
X152462830Y-88606036D01*
X152095744Y-87408670D01*
X151814496Y-86092352D01*
X151728800Y-85580752D01*
X151601670Y-84660063D01*
X151554212Y-83951828D01*
X151582969Y-83340195D01*
X151648718Y-82895748D01*
X151780985Y-82448932D01*
X153183832Y-82448932D01*
X153222448Y-83293909D01*
X153360324Y-84025844D01*
X153390683Y-84120000D01*
X153510994Y-84667412D01*
X153426302Y-85192250D01*
X153388558Y-85305333D01*
X153191996Y-86359315D01*
X153284142Y-87534500D01*
X153655473Y-88791622D01*
X154296460Y-90091413D01*
X154704436Y-90729579D01*
X155660815Y-92084921D01*
X156507401Y-93194988D01*
X157298276Y-94110884D01*
X158087517Y-94883713D01*
X158929205Y-95564581D01*
X159877418Y-96204591D01*
X160986237Y-96854849D01*
X161462994Y-97116372D01*
X163474231Y-98081751D01*
X165753698Y-98958013D01*
X168238725Y-99728143D01*
X170866641Y-100375129D01*
X173574775Y-100881958D01*
X176300456Y-101231617D01*
X176787661Y-101276512D01*
X177462701Y-101335698D01*
X177967061Y-101358072D01*
X178366574Y-101313765D01*
X178727074Y-101172903D01*
X179114391Y-100905615D01*
X179594360Y-100482028D01*
X180232812Y-99872271D01*
X180545349Y-99571438D01*
X181516371Y-98599317D01*
X182234653Y-97782250D01*
X182725879Y-97082486D01*
X183015734Y-96462274D01*
X183129903Y-95883862D01*
X183133942Y-95766731D01*
X183211737Y-95378132D01*
X183410832Y-94822446D01*
X183655312Y-94287457D01*
X184141610Y-92968839D01*
X184315076Y-91575344D01*
X184183823Y-90140213D01*
X183755965Y-88696684D01*
X183039614Y-87277998D01*
X182042885Y-85917395D01*
X181458033Y-85285427D01*
X180734416Y-84595558D01*
X180169941Y-84146994D01*
X179722996Y-83908289D01*
X179581661Y-83867414D01*
X178597623Y-83530777D01*
X177501431Y-82917870D01*
X176277772Y-82019138D01*
X175352402Y-81228516D01*
X174537220Y-80506380D01*
X173840696Y-79922238D01*
X173204687Y-79444496D01*
X172571047Y-79041561D01*
X171881635Y-78681839D01*
X171078305Y-78333738D01*
X170102913Y-77965662D01*
X168897317Y-77546020D01*
X168046662Y-77258821D01*
X164160460Y-75953934D01*
X161160727Y-76739731D01*
X159657725Y-77151085D01*
X158437237Y-77528867D01*
X157447582Y-77894362D01*
X156637079Y-78268859D01*
X155954049Y-78673643D01*
X155346810Y-79130000D01*
X155336402Y-79138696D01*
X154822086Y-79558819D01*
X154338588Y-79936941D01*
X154091295Y-80119394D01*
X153706708Y-80504123D01*
X153406969Y-80991739D01*
X153402221Y-81002955D01*
X153243936Y-81636688D01*
X153183832Y-82448932D01*
X151780985Y-82448932D01*
X152077682Y-81446657D01*
X152799072Y-80089455D01*
X153770428Y-78865565D01*
X154949291Y-77816410D01*
X156293201Y-76983413D01*
X157759699Y-76407997D01*
X158471202Y-76239812D01*
X159179246Y-76078089D01*
X160059328Y-75835107D01*
X160967655Y-75551853D01*
X161378328Y-75411184D01*
X162652361Y-75011244D01*
X163728932Y-74807581D01*
X164688527Y-74802980D01*
X165611634Y-75000227D01*
X166578738Y-75402107D01*
X166966328Y-75604585D01*
X167266226Y-75731636D01*
X167804020Y-75926470D01*
X168493476Y-76158708D01*
X168998328Y-76320424D01*
X170825296Y-76980395D01*
X172668325Y-77804542D01*
X174380554Y-78724600D01*
X175018583Y-79118818D01*
X175575457Y-79465386D01*
X176017334Y-79714745D01*
X176274643Y-79828683D01*
X176309967Y-79828138D01*
X176340204Y-79615261D01*
X176323853Y-79129237D01*
X176267992Y-78431310D01*
X176179697Y-77582719D01*
X176066048Y-76644707D01*
X175934120Y-75678517D01*
X175790993Y-74745388D01*
X175643743Y-73906563D01*
X175599580Y-73681261D01*
X174904333Y-70861023D01*
X173997322Y-68205340D01*
X172892766Y-65738335D01*
X171604880Y-63484130D01*
X170147884Y-61466850D01*
X168535994Y-59710617D01*
X166783430Y-58239554D01*
X166299613Y-57902173D01*
X165487048Y-57400463D01*
X164764349Y-57066295D01*
X163977334Y-56832403D01*
X163711280Y-56772927D01*
X162560344Y-56514736D01*
X161682921Y-56278141D01*
X161016979Y-56038868D01*
X160500483Y-55772649D01*
X160071401Y-55455210D01*
X159870909Y-55270337D01*
X159479511Y-54938113D01*
X158981076Y-54619865D01*
X158313366Y-54282390D01*
X157414142Y-53892482D01*
X156890994Y-53680538D01*
X155942873Y-53316675D01*
X154979539Y-52971723D01*
X154104485Y-52681232D01*
X153421203Y-52480754D01*
X153334994Y-52459017D01*
X152534371Y-52231902D01*
X151697448Y-51944413D01*
X151062422Y-51683783D01*
X150640702Y-51501089D01*
X150235938Y-51367111D01*
X149776135Y-51270020D01*
X149189299Y-51197984D01*
X148403434Y-51139172D01*
X147421756Y-51085519D01*
X146460651Y-51027650D01*
X145574672Y-50956737D01*
X144839660Y-50880132D01*
X144331455Y-50805185D01*
X144192112Y-50772498D01*
X143709899Y-50687637D01*
X142955872Y-50631039D01*
X141995706Y-50602713D01*
X140895073Y-50602672D01*
X139719647Y-50630925D01*
X138535100Y-50687483D01*
X137417661Y-50771390D01*
X134369871Y-51185096D01*
X131517082Y-51852981D01*
X130884163Y-52043457D01*
X130131736Y-52317760D01*
X129151889Y-52731638D01*
X128009058Y-53252869D01*
X126767683Y-53849232D01*
X125492200Y-54488506D01*
X124247047Y-55138470D01*
X123096662Y-55766902D01*
X122105482Y-56341581D01*
X121412710Y-56779532D01*
X119903840Y-57933333D01*
X118627068Y-59198774D01*
X117611599Y-60539441D01*
X116886642Y-61918923D01*
X116593087Y-62788272D01*
X116436342Y-63300967D01*
X116194486Y-63999577D01*
X115912037Y-64757140D01*
X115822444Y-64986001D01*
X115620589Y-65502596D01*
X115444751Y-65983694D01*
X115293204Y-66455670D01*
X115164223Y-66944898D01*
X115056085Y-67477752D01*
X114967063Y-68080609D01*
X114895434Y-68779841D01*
X114839472Y-69601823D01*
X114797453Y-70572931D01*
X114767652Y-71719538D01*
X114748344Y-73068019D01*
X114737804Y-74644749D01*
X114734308Y-76476102D01*
X114736132Y-78588452D01*
X114741549Y-81008175D01*
X114742817Y-81495333D01*
X114748544Y-83943606D01*
X114751109Y-86081788D01*
X114749211Y-87938452D01*
X114741546Y-89542170D01*
X114726813Y-90921513D01*
X114703709Y-92105054D01*
X114670933Y-93121362D01*
X114627182Y-93999011D01*
X114571154Y-94766572D01*
X114501547Y-95452617D01*
X114417059Y-96085717D01*
X114316387Y-96694445D01*
X114198229Y-97307371D01*
X114061284Y-97953068D01*
X113974927Y-98344000D01*
X113729997Y-99483264D01*
X113522865Y-100550318D01*
X113349800Y-101589081D01*
X113207067Y-102643471D01*
X113090935Y-103757409D01*
X112997671Y-104974812D01*
X112923540Y-106339600D01*
X112864811Y-107895693D01*
X112817750Y-109687008D01*
X112778625Y-111757466D01*
X112765938Y-112568000D01*
X112737461Y-114317825D01*
X112708039Y-115769050D01*
X112675597Y-116961741D01*
X112638056Y-117935964D01*
X112593341Y-118731783D01*
X112539373Y-119389264D01*
X112474077Y-119948473D01*
X112395374Y-120449474D01*
X112342886Y-120728562D01*
X112127216Y-121995024D01*
X112039194Y-123043503D01*
X111220564Y-123043503D01*
X111166208Y-122531897D01*
X111106423Y-121099465D01*
X111086328Y-119047596D01*
X109046250Y-118934175D01*
X107692000Y-118833103D01*
X106606265Y-118685357D01*
X105720037Y-118472038D01*
X104964305Y-118174243D01*
X104270060Y-117773073D01*
X103931994Y-117533467D01*
X103381661Y-117122765D01*
X103381661Y-115046163D01*
X104641040Y-115046163D01*
X104649756Y-115472543D01*
X104699609Y-115743783D01*
X104792796Y-115920469D01*
X104828028Y-115962439D01*
X105227059Y-116231557D01*
X105909065Y-116499416D01*
X106818704Y-116749369D01*
X107900635Y-116964768D01*
X108431144Y-117046294D01*
X109356234Y-117216611D01*
X110101744Y-117434832D01*
X110491063Y-117616404D01*
X110790126Y-117787538D01*
X111002471Y-117842610D01*
X111147846Y-117740186D01*
X111245999Y-117438833D01*
X111316679Y-116897117D01*
X111379636Y-116073606D01*
X111404181Y-115700667D01*
X111441483Y-115085850D01*
X111491927Y-114194597D01*
X111552197Y-113088740D01*
X111618976Y-111830108D01*
X111688947Y-110480533D01*
X111758794Y-109101846D01*
X111767511Y-108927333D01*
X111896289Y-106540646D01*
X112031188Y-104450842D01*
X112176390Y-102616143D01*
X112336077Y-100994773D01*
X112514429Y-99544952D01*
X112715627Y-98224905D01*
X112943853Y-96992852D01*
X112979237Y-96820000D01*
X113153728Y-95972009D01*
X113309043Y-95206983D01*
X113428776Y-94606410D01*
X113496521Y-94251780D01*
X113498255Y-94241936D01*
X113447412Y-93697666D01*
X113173807Y-93084028D01*
X112744314Y-92507178D01*
X112225803Y-92073269D01*
X112083790Y-91996553D01*
X111462629Y-91805899D01*
X110529987Y-91670834D01*
X109731830Y-91612782D01*
X108002625Y-91524528D01*
X107887604Y-92541179D01*
X107823266Y-93024616D01*
X107711916Y-93771343D01*
X107564608Y-94710998D01*
X107392395Y-95773218D01*
X107206330Y-96887642D01*
X107185687Y-97009248D01*
X106779022Y-99403976D01*
X106425545Y-101494866D01*
X106120816Y-103311807D01*
X105860395Y-104884686D01*
X105639843Y-106243395D01*
X105454720Y-107417821D01*
X105300585Y-108437854D01*
X105172999Y-109333383D01*
X105067523Y-110134297D01*
X104979716Y-110870484D01*
X104905138Y-111571835D01*
X104839350Y-112268238D01*
X104777912Y-112989581D01*
X104738235Y-113485637D01*
X104671265Y-114404056D01*
X104641040Y-115046163D01*
X103381661Y-115046163D01*
X103381661Y-114754042D01*
X103387739Y-113743691D01*
X103410170Y-112825001D01*
X103455249Y-111951588D01*
X103529273Y-111077070D01*
X103638535Y-110155064D01*
X103789332Y-109139186D01*
X103987960Y-107983055D01*
X104240712Y-106640287D01*
X104553886Y-105064499D01*
X104933776Y-103209309D01*
X104976912Y-103000667D01*
X105137171Y-102156913D01*
X105320987Y-101076704D01*
X105512541Y-99859951D01*
X105696014Y-98606569D01*
X105832840Y-97594439D01*
X106112780Y-95605746D01*
X106397917Y-93942492D01*
X106691044Y-92591460D01*
X106994951Y-91539430D01*
X107243691Y-90912758D01*
X107472757Y-90547171D01*
X107781904Y-90327818D01*
X108223770Y-90249671D01*
X108850995Y-90307704D01*
X109716218Y-90496890D01*
X110216978Y-90628844D01*
X111262910Y-90890665D01*
X112045658Y-91026208D01*
X112615767Y-91036746D01*
X113023783Y-90923550D01*
X113303750Y-90706498D01*
X113374529Y-90614273D01*
X113434745Y-90488020D01*
X113485654Y-90300041D01*
X113528517Y-90022635D01*
X113564590Y-89628101D01*
X113595133Y-89088738D01*
X113621404Y-88376848D01*
X113644662Y-87464728D01*
X113666165Y-86324680D01*
X113687171Y-84929002D01*
X113708940Y-83249994D01*
X113732658Y-81266165D01*
X113764903Y-78722676D01*
X113799545Y-76489889D01*
X113838536Y-74539843D01*
X113883829Y-72844573D01*
X113937377Y-71376117D01*
X114001132Y-70106511D01*
X114077048Y-69007791D01*
X114167078Y-68051995D01*
X114273175Y-67211159D01*
X114397291Y-66457320D01*
X114541380Y-65762515D01*
X114707394Y-65098780D01*
X114897288Y-64438153D01*
X114911109Y-64392667D01*
X115450654Y-62700068D01*
X115955750Y-61300303D01*
X116449979Y-60152549D01*
X116956925Y-59215981D01*
X117500171Y-58449776D01*
X118103299Y-57813110D01*
X118789893Y-57265160D01*
X119176673Y-57008671D01*
X119668630Y-56695539D01*
X120352399Y-56254703D01*
X121137116Y-55744978D01*
X121923661Y-55230599D01*
X123781298Y-54081581D01*
X125506390Y-53157473D01*
X127066113Y-52475302D01*
X127600036Y-52285878D01*
X128481781Y-51960207D01*
X129325319Y-51585485D01*
X130070331Y-51195260D01*
X130656498Y-50823082D01*
X131023504Y-50502500D01*
X131117329Y-50329570D01*
X131063013Y-50054123D01*
X130879207Y-49546358D01*
X130593297Y-48874095D01*
X130232671Y-48105158D01*
X130157911Y-47953619D01*
X129456124Y-46520360D01*
X128911817Y-45352098D01*
X128515547Y-44419156D01*
X128496054Y-44364136D01*
X129741547Y-44364136D01*
X129822425Y-44958364D01*
X130024706Y-45697052D01*
X130322560Y-46525703D01*
X130690156Y-47389819D01*
X131101663Y-48234904D01*
X131531253Y-49006461D01*
X131953094Y-49649993D01*
X132341356Y-50111002D01*
X132670209Y-50334992D01*
X132824956Y-50334281D01*
X133115605Y-50256278D01*
X133639372Y-50146519D01*
X134294825Y-50025896D01*
X134454328Y-49998681D01*
X135346813Y-49866395D01*
X136344451Y-49744875D01*
X137163661Y-49666259D01*
X137836924Y-49604469D01*
X138706720Y-49510922D01*
X139682197Y-49396885D01*
X140672503Y-49273621D01*
X141586784Y-49152396D01*
X142334187Y-49044475D01*
X142778577Y-48970058D01*
X143116832Y-48748046D01*
X143470769Y-48230741D01*
X143540577Y-48094976D01*
X143691756Y-47763183D01*
X143798894Y-47437443D01*
X143869482Y-47051896D01*
X143911010Y-46540682D01*
X143930968Y-45837943D01*
X143936846Y-44877817D01*
X143936994Y-44609350D01*
X143931881Y-43566818D01*
X143913520Y-42813229D01*
X143877382Y-42298971D01*
X143818939Y-41974434D01*
X143733659Y-41790005D01*
X143674164Y-41730683D01*
X143493933Y-41462871D01*
X143308503Y-40983262D01*
X143203042Y-40588890D01*
X142967916Y-39780325D01*
X142682404Y-39214902D01*
X142369299Y-38932669D01*
X142246349Y-38908000D01*
X141938127Y-39064105D01*
X141560413Y-39507654D01*
X141140326Y-40201492D01*
X140805335Y-40882295D01*
X140388519Y-41645821D01*
X139962070Y-42095499D01*
X139496465Y-42255564D01*
X139175620Y-42220101D01*
X138747638Y-42010476D01*
X138223274Y-41615446D01*
X137703164Y-41125069D01*
X137287941Y-40629403D01*
X137151712Y-40408894D01*
X136779518Y-40009580D01*
X136206232Y-39726520D01*
X135562813Y-39609347D01*
X135150081Y-39650246D01*
X134885676Y-39764555D01*
X134646176Y-39995894D01*
X134404227Y-40392210D01*
X134132471Y-41001449D01*
X133803552Y-41871559D01*
X133671748Y-42241260D01*
X133271613Y-43293420D01*
X132911703Y-44040305D01*
X132567462Y-44509053D01*
X132214330Y-44726802D01*
X131827751Y-44720691D01*
X131534457Y-44603142D01*
X131074346Y-44300810D01*
X130744683Y-44005336D01*
X130348137Y-43696218D01*
X130018830Y-43718215D01*
X129807901Y-43968865D01*
X129741547Y-44364136D01*
X128496054Y-44364136D01*
X128257868Y-43691860D01*
X128129337Y-43140534D01*
X128120510Y-42735503D01*
X128221942Y-42447091D01*
X128357249Y-42295561D01*
X128576021Y-42166373D01*
X128845593Y-42166853D01*
X129278584Y-42304146D01*
X129433697Y-42363867D01*
X130368248Y-42659228D01*
X131155179Y-42766034D01*
X131737598Y-42677616D01*
X131812095Y-42642734D01*
X132086283Y-42374397D01*
X132427833Y-41865362D01*
X132795284Y-41195633D01*
X133147174Y-40445218D01*
X133442039Y-39694122D01*
X133594058Y-39204238D01*
X133791448Y-38497186D01*
X133952075Y-38051281D01*
X134114249Y-37797431D01*
X134316285Y-37666543D01*
X134473616Y-37618028D01*
X134872317Y-37642547D01*
X135474150Y-37830765D01*
X136207018Y-38149038D01*
X136998822Y-38563726D01*
X137777465Y-39041185D01*
X138267840Y-39388489D01*
X138961290Y-39854440D01*
X139495260Y-40066406D01*
X139916210Y-40039258D01*
X140064958Y-39963740D01*
X140226636Y-39755748D01*
X140469773Y-39326903D01*
X140743147Y-38767948D01*
X140756485Y-38738667D01*
X141152907Y-38019666D01*
X141641961Y-37358612D01*
X142162336Y-36820391D01*
X142652722Y-36469886D01*
X142996547Y-36368000D01*
X143383164Y-36523141D01*
D12*
%TO.C,D1*%
X169800000Y-87400000D02*
X170400000Y-88000000D01*
X170400000Y-87400000D02*
X167200000Y-87400000D01*
X170400000Y-90200000D02*
X170400000Y-87400000D01*
X167200000Y-90200000D02*
X170400000Y-90200000D01*
X167200000Y-87400000D02*
X167200000Y-90200000D01*
D11*
%TO.C,G\u002A\u002A\u002A*%
G36*
X121990549Y-125819465D02*
G01*
X121924216Y-125872760D01*
X121875210Y-125920076D01*
X121849001Y-125959605D01*
X121840003Y-126008845D01*
X121842629Y-126085295D01*
X121845164Y-126120410D01*
X121856700Y-126230346D01*
X121875322Y-126361671D01*
X121897029Y-126486198D01*
X121897324Y-126487700D01*
X121962349Y-126843514D01*
X122021213Y-127214963D01*
X122052430Y-127440200D01*
X122068677Y-127563516D01*
X122084298Y-127679221D01*
X122097069Y-127770969D01*
X122102556Y-127808500D01*
X122112793Y-127878412D01*
X122127329Y-127981121D01*
X122144835Y-128106866D01*
X122163982Y-128245886D01*
X122183440Y-128388420D01*
X122201879Y-128524707D01*
X122217970Y-128644987D01*
X122230383Y-128739499D01*
X122237789Y-128798482D01*
X122239214Y-128811800D01*
X122253731Y-128976361D01*
X122273704Y-129168869D01*
X122296631Y-129367100D01*
X122320005Y-129548828D01*
X122330787Y-129624600D01*
X122345940Y-129728146D01*
X122357808Y-129815343D01*
X122367278Y-129896375D01*
X122375241Y-129981429D01*
X122382583Y-130080689D01*
X122390192Y-130204342D01*
X122398959Y-130362573D01*
X122404992Y-130475500D01*
X122413414Y-130620677D01*
X122422887Y-130762453D01*
X122432323Y-130885732D01*
X122440636Y-130975419D01*
X122441623Y-130984217D01*
X122446810Y-131057531D01*
X122451065Y-131175852D01*
X122454418Y-131333394D01*
X122456898Y-131524376D01*
X122458535Y-131743010D01*
X122459359Y-131983515D01*
X122459399Y-132240105D01*
X122458685Y-132506996D01*
X122457248Y-132778404D01*
X122455116Y-133048545D01*
X122452320Y-133311634D01*
X122448889Y-133561887D01*
X122444854Y-133793519D01*
X122440243Y-134000748D01*
X122435087Y-134177788D01*
X122429416Y-134318855D01*
X122423997Y-134408961D01*
X122412128Y-134567842D01*
X122404903Y-134685261D01*
X122402536Y-134770363D01*
X122405243Y-134832292D01*
X122413239Y-134880194D01*
X122426741Y-134923212D01*
X122436697Y-134948363D01*
X122475283Y-135028862D01*
X122513340Y-135066032D01*
X122563045Y-135065729D01*
X122625734Y-135039294D01*
X122712475Y-134968781D01*
X122779433Y-134853391D01*
X122826944Y-134692333D01*
X122853924Y-134501400D01*
X122874010Y-134246826D01*
X122889658Y-133979661D01*
X122901072Y-133692786D01*
X122908453Y-133379082D01*
X122912006Y-133031431D01*
X122911931Y-132642714D01*
X122911080Y-132494800D01*
X122905961Y-131988224D01*
X122898048Y-131531437D01*
X122887301Y-131123500D01*
X122873682Y-130763476D01*
X122857150Y-130450428D01*
X122837669Y-130183418D01*
X122815198Y-129961508D01*
X122801502Y-129858014D01*
X122786838Y-129740772D01*
X122772819Y-129600042D01*
X122762112Y-129463095D01*
X122760756Y-129441190D01*
X122753645Y-129337382D01*
X122746021Y-129253562D01*
X122739101Y-129202143D01*
X122736399Y-129192635D01*
X122729930Y-129162321D01*
X122719593Y-129091121D01*
X122706655Y-128988691D01*
X122692383Y-128864685D01*
X122687745Y-128822058D01*
X122669725Y-128664082D01*
X122648820Y-128496412D01*
X122627646Y-128339266D01*
X122609149Y-128214900D01*
X122588742Y-128084984D01*
X122568757Y-127953385D01*
X122552402Y-127841375D01*
X122547225Y-127804100D01*
X122533717Y-127717627D01*
X122520014Y-127651075D01*
X122510735Y-127622586D01*
X122502844Y-127587947D01*
X122494035Y-127514866D01*
X122485631Y-127415651D01*
X122481307Y-127348267D01*
X122473195Y-127240803D01*
X122462821Y-127153606D01*
X122451776Y-127098311D01*
X122445274Y-127085139D01*
X122430932Y-127052430D01*
X122415565Y-126975129D01*
X122400094Y-126859407D01*
X122385443Y-126711437D01*
X122380650Y-126652800D01*
X122368349Y-126571107D01*
X122348648Y-126500400D01*
X122334156Y-126447505D01*
X122316502Y-126359394D01*
X122298592Y-126251286D01*
X122290945Y-126198131D01*
X122272614Y-126078664D01*
X122253522Y-125996188D01*
X122229139Y-125937032D01*
X122194936Y-125887527D01*
X122183640Y-125874281D01*
X122117038Y-125812426D01*
X122056508Y-125794177D01*
X121990549Y-125819465D01*
G37*
X121990549Y-125819465D02*
X121924216Y-125872760D01*
X121875210Y-125920076D01*
X121849001Y-125959605D01*
X121840003Y-126008845D01*
X121842629Y-126085295D01*
X121845164Y-126120410D01*
X121856700Y-126230346D01*
X121875322Y-126361671D01*
X121897029Y-126486198D01*
X121897324Y-126487700D01*
X121962349Y-126843514D01*
X122021213Y-127214963D01*
X122052430Y-127440200D01*
X122068677Y-127563516D01*
X122084298Y-127679221D01*
X122097069Y-127770969D01*
X122102556Y-127808500D01*
X122112793Y-127878412D01*
X122127329Y-127981121D01*
X122144835Y-128106866D01*
X122163982Y-128245886D01*
X122183440Y-128388420D01*
X122201879Y-128524707D01*
X122217970Y-128644987D01*
X122230383Y-128739499D01*
X122237789Y-128798482D01*
X122239214Y-128811800D01*
X122253731Y-128976361D01*
X122273704Y-129168869D01*
X122296631Y-129367100D01*
X122320005Y-129548828D01*
X122330787Y-129624600D01*
X122345940Y-129728146D01*
X122357808Y-129815343D01*
X122367278Y-129896375D01*
X122375241Y-129981429D01*
X122382583Y-130080689D01*
X122390192Y-130204342D01*
X122398959Y-130362573D01*
X122404992Y-130475500D01*
X122413414Y-130620677D01*
X122422887Y-130762453D01*
X122432323Y-130885732D01*
X122440636Y-130975419D01*
X122441623Y-130984217D01*
X122446810Y-131057531D01*
X122451065Y-131175852D01*
X122454418Y-131333394D01*
X122456898Y-131524376D01*
X122458535Y-131743010D01*
X122459359Y-131983515D01*
X122459399Y-132240105D01*
X122458685Y-132506996D01*
X122457248Y-132778404D01*
X122455116Y-133048545D01*
X122452320Y-133311634D01*
X122448889Y-133561887D01*
X122444854Y-133793519D01*
X122440243Y-134000748D01*
X122435087Y-134177788D01*
X122429416Y-134318855D01*
X122423997Y-134408961D01*
X122412128Y-134567842D01*
X122404903Y-134685261D01*
X122402536Y-134770363D01*
X122405243Y-134832292D01*
X122413239Y-134880194D01*
X122426741Y-134923212D01*
X122436697Y-134948363D01*
X122475283Y-135028862D01*
X122513340Y-135066032D01*
X122563045Y-135065729D01*
X122625734Y-135039294D01*
X122712475Y-134968781D01*
X122779433Y-134853391D01*
X122826944Y-134692333D01*
X122853924Y-134501400D01*
X122874010Y-134246826D01*
X122889658Y-133979661D01*
X122901072Y-133692786D01*
X122908453Y-133379082D01*
X122912006Y-133031431D01*
X122911931Y-132642714D01*
X122911080Y-132494800D01*
X122905961Y-131988224D01*
X122898048Y-131531437D01*
X122887301Y-131123500D01*
X122873682Y-130763476D01*
X122857150Y-130450428D01*
X122837669Y-130183418D01*
X122815198Y-129961508D01*
X122801502Y-129858014D01*
X122786838Y-129740772D01*
X122772819Y-129600042D01*
X122762112Y-129463095D01*
X122760756Y-129441190D01*
X122753645Y-129337382D01*
X122746021Y-129253562D01*
X122739101Y-129202143D01*
X122736399Y-129192635D01*
X122729930Y-129162321D01*
X122719593Y-129091121D01*
X122706655Y-128988691D01*
X122692383Y-128864685D01*
X122687745Y-128822058D01*
X122669725Y-128664082D01*
X122648820Y-128496412D01*
X122627646Y-128339266D01*
X122609149Y-128214900D01*
X122588742Y-128084984D01*
X122568757Y-127953385D01*
X122552402Y-127841375D01*
X122547225Y-127804100D01*
X122533717Y-127717627D01*
X122520014Y-127651075D01*
X122510735Y-127622586D01*
X122502844Y-127587947D01*
X122494035Y-127514866D01*
X122485631Y-127415651D01*
X122481307Y-127348267D01*
X122473195Y-127240803D01*
X122462821Y-127153606D01*
X122451776Y-127098311D01*
X122445274Y-127085139D01*
X122430932Y-127052430D01*
X122415565Y-126975129D01*
X122400094Y-126859407D01*
X122385443Y-126711437D01*
X122380650Y-126652800D01*
X122368349Y-126571107D01*
X122348648Y-126500400D01*
X122334156Y-126447505D01*
X122316502Y-126359394D01*
X122298592Y-126251286D01*
X122290945Y-126198131D01*
X122272614Y-126078664D01*
X122253522Y-125996188D01*
X122229139Y-125937032D01*
X122194936Y-125887527D01*
X122183640Y-125874281D01*
X122117038Y-125812426D01*
X122056508Y-125794177D01*
X121990549Y-125819465D01*
G36*
X128203415Y-124830915D02*
G01*
X128151619Y-124871573D01*
X128097616Y-124946546D01*
X128049805Y-125040469D01*
X128016583Y-125137976D01*
X128007361Y-125189608D01*
X127994300Y-125319300D01*
X127740300Y-125336402D01*
X127640842Y-125342081D01*
X127501627Y-125348602D01*
X127333681Y-125355523D01*
X127148031Y-125362404D01*
X126955705Y-125368802D01*
X126856445Y-125371799D01*
X126647169Y-125377529D01*
X126482422Y-125380475D01*
X126355965Y-125379630D01*
X126261558Y-125373989D01*
X126192963Y-125362543D01*
X126143938Y-125344285D01*
X126108246Y-125318209D01*
X126079646Y-125283308D01*
X126054101Y-125242311D01*
X125997630Y-125178099D01*
X125930038Y-125144933D01*
X125865380Y-125146986D01*
X125826730Y-125174822D01*
X125807192Y-125229594D01*
X125800463Y-125315604D01*
X125805221Y-125415294D01*
X125820141Y-125511107D01*
X125843902Y-125585486D01*
X125859530Y-125610106D01*
X125951433Y-125695368D01*
X126053713Y-125753340D01*
X126180203Y-125790038D01*
X126316780Y-125808969D01*
X126437927Y-125816693D01*
X126557279Y-125817823D01*
X126653409Y-125812314D01*
X126672380Y-125809719D01*
X126737965Y-125802466D01*
X126838752Y-125795670D01*
X126966444Y-125789494D01*
X127112747Y-125784102D01*
X127269365Y-125779657D01*
X127428001Y-125776323D01*
X127580362Y-125774262D01*
X127718150Y-125773639D01*
X127833071Y-125774617D01*
X127916830Y-125777360D01*
X127961129Y-125782031D01*
X127965827Y-125784227D01*
X127972881Y-125816892D01*
X127981327Y-125887186D01*
X127989687Y-125982018D01*
X127992319Y-126018595D01*
X128006253Y-126216756D01*
X128019013Y-126379132D01*
X128032001Y-126520671D01*
X128046621Y-126656323D01*
X128064274Y-126801037D01*
X128069704Y-126843300D01*
X128086804Y-126980492D01*
X128103225Y-127121164D01*
X128116587Y-127244512D01*
X128122050Y-127300500D01*
X128136253Y-127417683D01*
X128156481Y-127538958D01*
X128173569Y-127618000D01*
X128194032Y-127712602D01*
X128215483Y-127833679D01*
X128233712Y-127957175D01*
X128235807Y-127973600D01*
X128269978Y-128229523D01*
X128304244Y-128450437D01*
X128324627Y-128564150D01*
X128333564Y-128626150D01*
X128324276Y-128653142D01*
X128290981Y-128659370D01*
X128285969Y-128659400D01*
X128233107Y-128647230D01*
X128156822Y-128615863D01*
X128098992Y-128586039D01*
X128015876Y-128541992D01*
X127940896Y-128506969D01*
X127905400Y-128493484D01*
X127841216Y-128464740D01*
X127770848Y-128420752D01*
X127765700Y-128416939D01*
X127659396Y-128355564D01*
X127538941Y-128325381D01*
X127392188Y-128324107D01*
X127314933Y-128332279D01*
X127213432Y-128348312D01*
X127145672Y-128368382D01*
X127094685Y-128399603D01*
X127048150Y-128444136D01*
X126985884Y-128537010D01*
X126964035Y-128631932D01*
X126979484Y-128718978D01*
X127029110Y-128788219D01*
X127109793Y-128829731D01*
X127171708Y-128837200D01*
X127240124Y-128829192D01*
X127287513Y-128809706D01*
X127289830Y-128807610D01*
X127328455Y-128801531D01*
X127401034Y-128817601D01*
X127497797Y-128852103D01*
X127608975Y-128901323D01*
X127724800Y-128961545D01*
X127781210Y-128994504D01*
X127849870Y-129034328D01*
X127900716Y-129060206D01*
X127917226Y-129065800D01*
X127947089Y-129079022D01*
X128004203Y-129113114D01*
X128054117Y-129145853D01*
X128155542Y-129202502D01*
X128255178Y-129227442D01*
X128299100Y-129230633D01*
X128426100Y-129235358D01*
X128443236Y-129360129D01*
X128452927Y-129427460D01*
X128468712Y-129533450D01*
X128488850Y-129666565D01*
X128511599Y-129815273D01*
X128527252Y-129916700D01*
X128582115Y-130279742D01*
X128627653Y-130602396D01*
X128664817Y-130894023D01*
X128694556Y-131163986D01*
X128717822Y-131421645D01*
X128735563Y-131676363D01*
X128748731Y-131937502D01*
X128757409Y-132184069D01*
X128773195Y-132724239D01*
X128686013Y-132760666D01*
X128631005Y-132775401D01*
X128540073Y-132787778D01*
X128409316Y-132798121D01*
X128234831Y-132806752D01*
X128058937Y-132812707D01*
X127856231Y-132817907D01*
X127693686Y-132819438D01*
X127560709Y-132815836D01*
X127446708Y-132805635D01*
X127341091Y-132787369D01*
X127233267Y-132759574D01*
X127112643Y-132720783D01*
X126968628Y-132669532D01*
X126934773Y-132657178D01*
X126837250Y-132638407D01*
X126767954Y-132658824D01*
X126731383Y-132712703D01*
X126732030Y-132794317D01*
X126762702Y-132876391D01*
X126796808Y-132931399D01*
X126842640Y-132976025D01*
X126912455Y-133019768D01*
X127010213Y-133068248D01*
X127091217Y-133104286D01*
X127166899Y-133132123D01*
X127247444Y-133153828D01*
X127343034Y-133171471D01*
X127463854Y-133187120D01*
X127620086Y-133202843D01*
X127714900Y-133211400D01*
X127758344Y-133211693D01*
X127841352Y-133209325D01*
X127952781Y-133204711D01*
X128081488Y-133198264D01*
X128108600Y-133196776D01*
X128250268Y-133189581D01*
X128352312Y-133186916D01*
X128425772Y-133189551D01*
X128481686Y-133198256D01*
X128531090Y-133213799D01*
X128566691Y-133228707D01*
X128636231Y-133260990D01*
X128684509Y-133286126D01*
X128695987Y-133293852D01*
X128700257Y-133325027D01*
X128695213Y-133388371D01*
X128689163Y-133428429D01*
X128672937Y-133533516D01*
X128655458Y-133665408D01*
X128638629Y-133807487D01*
X128624349Y-133943131D01*
X128614521Y-134055722D01*
X128611457Y-134107700D01*
X128619030Y-134189602D01*
X128653360Y-134271674D01*
X128690095Y-134329950D01*
X128743711Y-134404566D01*
X128780519Y-134440558D01*
X128810331Y-134442567D01*
X128842960Y-134415238D01*
X128851137Y-134406150D01*
X128883550Y-134350612D01*
X128908370Y-134276965D01*
X128909205Y-134273172D01*
X128933622Y-134193910D01*
X128966109Y-134126582D01*
X128966499Y-134125983D01*
X128988208Y-134072042D01*
X129013194Y-133975387D01*
X129040135Y-133843896D01*
X129067707Y-133685447D01*
X129094589Y-133507918D01*
X129119457Y-133319186D01*
X129140989Y-133127129D01*
X129150056Y-133032704D01*
X129162124Y-132849398D01*
X129168963Y-132634697D01*
X129170828Y-132400152D01*
X129167975Y-132157315D01*
X129160658Y-131917738D01*
X129149132Y-131692972D01*
X129133653Y-131494567D01*
X129114474Y-131334077D01*
X129112244Y-131319819D01*
X129093149Y-131192987D01*
X129076133Y-131065453D01*
X129063972Y-130958548D01*
X129061206Y-130927822D01*
X129053658Y-130842953D01*
X129042008Y-130724039D01*
X129027907Y-130587511D01*
X129014448Y-130462800D01*
X129000881Y-130338442D01*
X128989412Y-130230500D01*
X128981202Y-130150087D01*
X128977409Y-130108319D01*
X128977342Y-130107200D01*
X128970169Y-130060398D01*
X128954508Y-129987295D01*
X128946646Y-129954800D01*
X128931086Y-129879945D01*
X128912605Y-129771870D01*
X128894036Y-129647827D01*
X128884142Y-129573800D01*
X128867090Y-129450380D01*
X128848663Y-129334598D01*
X128831587Y-129242842D01*
X128822950Y-129205500D01*
X128807296Y-129121221D01*
X128796863Y-129015576D01*
X128794457Y-128951500D01*
X128788022Y-128853036D01*
X128772000Y-128728800D01*
X128749542Y-128602196D01*
X128743719Y-128574845D01*
X128722151Y-128473826D01*
X128706184Y-128392333D01*
X128698137Y-128342526D01*
X128697744Y-128333545D01*
X128695773Y-128299827D01*
X128686434Y-128236708D01*
X128682551Y-128214900D01*
X128666628Y-128128579D01*
X128647424Y-128024117D01*
X128638160Y-127973600D01*
X128618722Y-127872148D01*
X128598294Y-127772450D01*
X128589507Y-127732300D01*
X128577885Y-127661088D01*
X128566409Y-127557043D01*
X128556924Y-127438101D01*
X128553893Y-127386349D01*
X128547254Y-127276950D01*
X128539786Y-127184826D01*
X128532648Y-127123118D01*
X128529295Y-127106949D01*
X128519312Y-127061251D01*
X128508542Y-126988103D01*
X128504992Y-126957600D01*
X128495174Y-126875233D01*
X128480781Y-126765200D01*
X128464775Y-126650073D01*
X128463337Y-126640100D01*
X128454257Y-126550778D01*
X128446276Y-126422562D01*
X128439682Y-126267349D01*
X128434761Y-126097037D01*
X128431802Y-125923524D01*
X128431090Y-125758710D01*
X128432915Y-125614492D01*
X128436362Y-125522500D01*
X128437074Y-125452560D01*
X128434277Y-125352864D01*
X128428837Y-125238231D01*
X128421621Y-125123479D01*
X128413498Y-125023426D01*
X128405334Y-124952890D01*
X128401987Y-124935165D01*
X128368969Y-124888214D01*
X128307940Y-124848501D01*
X128241328Y-124827800D01*
X128203415Y-124830915D01*
G37*
X128203415Y-124830915D02*
X128151619Y-124871573D01*
X128097616Y-124946546D01*
X128049805Y-125040469D01*
X128016583Y-125137976D01*
X128007361Y-125189608D01*
X127994300Y-125319300D01*
X127740300Y-125336402D01*
X127640842Y-125342081D01*
X127501627Y-125348602D01*
X127333681Y-125355523D01*
X127148031Y-125362404D01*
X126955705Y-125368802D01*
X126856445Y-125371799D01*
X126647169Y-125377529D01*
X126482422Y-125380475D01*
X126355965Y-125379630D01*
X126261558Y-125373989D01*
X126192963Y-125362543D01*
X126143938Y-125344285D01*
X126108246Y-125318209D01*
X126079646Y-125283308D01*
X126054101Y-125242311D01*
X125997630Y-125178099D01*
X125930038Y-125144933D01*
X125865380Y-125146986D01*
X125826730Y-125174822D01*
X125807192Y-125229594D01*
X125800463Y-125315604D01*
X125805221Y-125415294D01*
X125820141Y-125511107D01*
X125843902Y-125585486D01*
X125859530Y-125610106D01*
X125951433Y-125695368D01*
X126053713Y-125753340D01*
X126180203Y-125790038D01*
X126316780Y-125808969D01*
X126437927Y-125816693D01*
X126557279Y-125817823D01*
X126653409Y-125812314D01*
X126672380Y-125809719D01*
X126737965Y-125802466D01*
X126838752Y-125795670D01*
X126966444Y-125789494D01*
X127112747Y-125784102D01*
X127269365Y-125779657D01*
X127428001Y-125776323D01*
X127580362Y-125774262D01*
X127718150Y-125773639D01*
X127833071Y-125774617D01*
X127916830Y-125777360D01*
X127961129Y-125782031D01*
X127965827Y-125784227D01*
X127972881Y-125816892D01*
X127981327Y-125887186D01*
X127989687Y-125982018D01*
X127992319Y-126018595D01*
X128006253Y-126216756D01*
X128019013Y-126379132D01*
X128032001Y-126520671D01*
X128046621Y-126656323D01*
X128064274Y-126801037D01*
X128069704Y-126843300D01*
X128086804Y-126980492D01*
X128103225Y-127121164D01*
X128116587Y-127244512D01*
X128122050Y-127300500D01*
X128136253Y-127417683D01*
X128156481Y-127538958D01*
X128173569Y-127618000D01*
X128194032Y-127712602D01*
X128215483Y-127833679D01*
X128233712Y-127957175D01*
X128235807Y-127973600D01*
X128269978Y-128229523D01*
X128304244Y-128450437D01*
X128324627Y-128564150D01*
X128333564Y-128626150D01*
X128324276Y-128653142D01*
X128290981Y-128659370D01*
X128285969Y-128659400D01*
X128233107Y-128647230D01*
X128156822Y-128615863D01*
X128098992Y-128586039D01*
X128015876Y-128541992D01*
X127940896Y-128506969D01*
X127905400Y-128493484D01*
X127841216Y-128464740D01*
X127770848Y-128420752D01*
X127765700Y-128416939D01*
X127659396Y-128355564D01*
X127538941Y-128325381D01*
X127392188Y-128324107D01*
X127314933Y-128332279D01*
X127213432Y-128348312D01*
X127145672Y-128368382D01*
X127094685Y-128399603D01*
X127048150Y-128444136D01*
X126985884Y-128537010D01*
X126964035Y-128631932D01*
X126979484Y-128718978D01*
X127029110Y-128788219D01*
X127109793Y-128829731D01*
X127171708Y-128837200D01*
X127240124Y-128829192D01*
X127287513Y-128809706D01*
X127289830Y-128807610D01*
X127328455Y-128801531D01*
X127401034Y-128817601D01*
X127497797Y-128852103D01*
X127608975Y-128901323D01*
X127724800Y-128961545D01*
X127781210Y-128994504D01*
X127849870Y-129034328D01*
X127900716Y-129060206D01*
X127917226Y-129065800D01*
X127947089Y-129079022D01*
X128004203Y-129113114D01*
X128054117Y-129145853D01*
X128155542Y-129202502D01*
X128255178Y-129227442D01*
X128299100Y-129230633D01*
X128426100Y-129235358D01*
X128443236Y-129360129D01*
X128452927Y-129427460D01*
X128468712Y-129533450D01*
X128488850Y-129666565D01*
X128511599Y-129815273D01*
X128527252Y-129916700D01*
X128582115Y-130279742D01*
X128627653Y-130602396D01*
X128664817Y-130894023D01*
X128694556Y-131163986D01*
X128717822Y-131421645D01*
X128735563Y-131676363D01*
X128748731Y-131937502D01*
X128757409Y-132184069D01*
X128773195Y-132724239D01*
X128686013Y-132760666D01*
X128631005Y-132775401D01*
X128540073Y-132787778D01*
X128409316Y-132798121D01*
X128234831Y-132806752D01*
X128058937Y-132812707D01*
X127856231Y-132817907D01*
X127693686Y-132819438D01*
X127560709Y-132815836D01*
X127446708Y-132805635D01*
X127341091Y-132787369D01*
X127233267Y-132759574D01*
X127112643Y-132720783D01*
X126968628Y-132669532D01*
X126934773Y-132657178D01*
X126837250Y-132638407D01*
X126767954Y-132658824D01*
X126731383Y-132712703D01*
X126732030Y-132794317D01*
X126762702Y-132876391D01*
X126796808Y-132931399D01*
X126842640Y-132976025D01*
X126912455Y-133019768D01*
X127010213Y-133068248D01*
X127091217Y-133104286D01*
X127166899Y-133132123D01*
X127247444Y-133153828D01*
X127343034Y-133171471D01*
X127463854Y-133187120D01*
X127620086Y-133202843D01*
X127714900Y-133211400D01*
X127758344Y-133211693D01*
X127841352Y-133209325D01*
X127952781Y-133204711D01*
X128081488Y-133198264D01*
X128108600Y-133196776D01*
X128250268Y-133189581D01*
X128352312Y-133186916D01*
X128425772Y-133189551D01*
X128481686Y-133198256D01*
X128531090Y-133213799D01*
X128566691Y-133228707D01*
X128636231Y-133260990D01*
X128684509Y-133286126D01*
X128695987Y-133293852D01*
X128700257Y-133325027D01*
X128695213Y-133388371D01*
X128689163Y-133428429D01*
X128672937Y-133533516D01*
X128655458Y-133665408D01*
X128638629Y-133807487D01*
X128624349Y-133943131D01*
X128614521Y-134055722D01*
X128611457Y-134107700D01*
X128619030Y-134189602D01*
X128653360Y-134271674D01*
X128690095Y-134329950D01*
X128743711Y-134404566D01*
X128780519Y-134440558D01*
X128810331Y-134442567D01*
X128842960Y-134415238D01*
X128851137Y-134406150D01*
X128883550Y-134350612D01*
X128908370Y-134276965D01*
X128909205Y-134273172D01*
X128933622Y-134193910D01*
X128966109Y-134126582D01*
X128966499Y-134125983D01*
X128988208Y-134072042D01*
X129013194Y-133975387D01*
X129040135Y-133843896D01*
X129067707Y-133685447D01*
X129094589Y-133507918D01*
X129119457Y-133319186D01*
X129140989Y-133127129D01*
X129150056Y-133032704D01*
X129162124Y-132849398D01*
X129168963Y-132634697D01*
X129170828Y-132400152D01*
X129167975Y-132157315D01*
X129160658Y-131917738D01*
X129149132Y-131692972D01*
X129133653Y-131494567D01*
X129114474Y-131334077D01*
X129112244Y-131319819D01*
X129093149Y-131192987D01*
X129076133Y-131065453D01*
X129063972Y-130958548D01*
X129061206Y-130927822D01*
X129053658Y-130842953D01*
X129042008Y-130724039D01*
X129027907Y-130587511D01*
X129014448Y-130462800D01*
X129000881Y-130338442D01*
X128989412Y-130230500D01*
X128981202Y-130150087D01*
X128977409Y-130108319D01*
X128977342Y-130107200D01*
X128970169Y-130060398D01*
X128954508Y-129987295D01*
X128946646Y-129954800D01*
X128931086Y-129879945D01*
X128912605Y-129771870D01*
X128894036Y-129647827D01*
X128884142Y-129573800D01*
X128867090Y-129450380D01*
X128848663Y-129334598D01*
X128831587Y-129242842D01*
X128822950Y-129205500D01*
X128807296Y-129121221D01*
X128796863Y-129015576D01*
X128794457Y-128951500D01*
X128788022Y-128853036D01*
X128772000Y-128728800D01*
X128749542Y-128602196D01*
X128743719Y-128574845D01*
X128722151Y-128473826D01*
X128706184Y-128392333D01*
X128698137Y-128342526D01*
X128697744Y-128333545D01*
X128695773Y-128299827D01*
X128686434Y-128236708D01*
X128682551Y-128214900D01*
X128666628Y-128128579D01*
X128647424Y-128024117D01*
X128638160Y-127973600D01*
X128618722Y-127872148D01*
X128598294Y-127772450D01*
X128589507Y-127732300D01*
X128577885Y-127661088D01*
X128566409Y-127557043D01*
X128556924Y-127438101D01*
X128553893Y-127386349D01*
X128547254Y-127276950D01*
X128539786Y-127184826D01*
X128532648Y-127123118D01*
X128529295Y-127106949D01*
X128519312Y-127061251D01*
X128508542Y-126988103D01*
X128504992Y-126957600D01*
X128495174Y-126875233D01*
X128480781Y-126765200D01*
X128464775Y-126650073D01*
X128463337Y-126640100D01*
X128454257Y-126550778D01*
X128446276Y-126422562D01*
X128439682Y-126267349D01*
X128434761Y-126097037D01*
X128431802Y-125923524D01*
X128431090Y-125758710D01*
X128432915Y-125614492D01*
X128436362Y-125522500D01*
X128437074Y-125452560D01*
X128434277Y-125352864D01*
X128428837Y-125238231D01*
X128421621Y-125123479D01*
X128413498Y-125023426D01*
X128405334Y-124952890D01*
X128401987Y-124935165D01*
X128368969Y-124888214D01*
X128307940Y-124848501D01*
X128241328Y-124827800D01*
X128203415Y-124830915D01*
G36*
X118144181Y-129132357D02*
G01*
X118053615Y-129180080D01*
X117992097Y-129266558D01*
X117961704Y-129389029D01*
X117962376Y-129524648D01*
X117965462Y-129612912D01*
X117962718Y-129739606D01*
X117954677Y-129892760D01*
X117941871Y-130060406D01*
X117935466Y-130129537D01*
X117916718Y-130353029D01*
X117905844Y-130567194D01*
X117902282Y-130790813D01*
X117905474Y-131042663D01*
X117906739Y-131093088D01*
X117915622Y-131411628D01*
X117924046Y-131682235D01*
X117932166Y-131907770D01*
X117940136Y-132091095D01*
X117948113Y-132235074D01*
X117956253Y-132342567D01*
X117964709Y-132416439D01*
X117973637Y-132459550D01*
X117981691Y-132474133D01*
X117995981Y-132504732D01*
X118014264Y-132575341D01*
X118034224Y-132675563D01*
X118053544Y-132795003D01*
X118054186Y-132799444D01*
X118072670Y-132923142D01*
X118090158Y-133031806D01*
X118104669Y-133113638D01*
X118114164Y-133156661D01*
X118146934Y-133199892D01*
X118195504Y-133204788D01*
X118245479Y-133173866D01*
X118275310Y-133128487D01*
X118291650Y-133073390D01*
X118305765Y-132985522D01*
X118317761Y-132862489D01*
X118327746Y-132701898D01*
X118335827Y-132501355D01*
X118342111Y-132258468D01*
X118346703Y-131970843D01*
X118349712Y-131636088D01*
X118350694Y-131440700D01*
X118352255Y-131213095D01*
X118355045Y-130992106D01*
X118358878Y-130785132D01*
X118363567Y-130599573D01*
X118368927Y-130442826D01*
X118374772Y-130322293D01*
X118380736Y-130246900D01*
X118403612Y-130046680D01*
X118421152Y-129888768D01*
X118434080Y-129765032D01*
X118443123Y-129667342D01*
X118449005Y-129587569D01*
X118452451Y-129517582D01*
X118454186Y-129449250D01*
X118454581Y-129418986D01*
X118450042Y-129295708D01*
X118429427Y-129213254D01*
X118386847Y-129162682D01*
X118316410Y-129135047D01*
X118261722Y-129126152D01*
X118144181Y-129132357D01*
G37*
X118144181Y-129132357D02*
X118053615Y-129180080D01*
X117992097Y-129266558D01*
X117961704Y-129389029D01*
X117962376Y-129524648D01*
X117965462Y-129612912D01*
X117962718Y-129739606D01*
X117954677Y-129892760D01*
X117941871Y-130060406D01*
X117935466Y-130129537D01*
X117916718Y-130353029D01*
X117905844Y-130567194D01*
X117902282Y-130790813D01*
X117905474Y-131042663D01*
X117906739Y-131093088D01*
X117915622Y-131411628D01*
X117924046Y-131682235D01*
X117932166Y-131907770D01*
X117940136Y-132091095D01*
X117948113Y-132235074D01*
X117956253Y-132342567D01*
X117964709Y-132416439D01*
X117973637Y-132459550D01*
X117981691Y-132474133D01*
X117995981Y-132504732D01*
X118014264Y-132575341D01*
X118034224Y-132675563D01*
X118053544Y-132795003D01*
X118054186Y-132799444D01*
X118072670Y-132923142D01*
X118090158Y-133031806D01*
X118104669Y-133113638D01*
X118114164Y-133156661D01*
X118146934Y-133199892D01*
X118195504Y-133204788D01*
X118245479Y-133173866D01*
X118275310Y-133128487D01*
X118291650Y-133073390D01*
X118305765Y-132985522D01*
X118317761Y-132862489D01*
X118327746Y-132701898D01*
X118335827Y-132501355D01*
X118342111Y-132258468D01*
X118346703Y-131970843D01*
X118349712Y-131636088D01*
X118350694Y-131440700D01*
X118352255Y-131213095D01*
X118355045Y-130992106D01*
X118358878Y-130785132D01*
X118363567Y-130599573D01*
X118368927Y-130442826D01*
X118374772Y-130322293D01*
X118380736Y-130246900D01*
X118403612Y-130046680D01*
X118421152Y-129888768D01*
X118434080Y-129765032D01*
X118443123Y-129667342D01*
X118449005Y-129587569D01*
X118452451Y-129517582D01*
X118454186Y-129449250D01*
X118454581Y-129418986D01*
X118450042Y-129295708D01*
X118429427Y-129213254D01*
X118386847Y-129162682D01*
X118316410Y-129135047D01*
X118261722Y-129126152D01*
X118144181Y-129132357D01*
G36*
X117741147Y-124615881D02*
G01*
X117717804Y-124636146D01*
X117666893Y-124677841D01*
X117624882Y-124699364D01*
X117590974Y-124716656D01*
X117576132Y-124744360D01*
X117576414Y-124797264D01*
X117583272Y-124855468D01*
X117607845Y-124955829D01*
X117649010Y-125038268D01*
X117699288Y-125090659D01*
X117735940Y-125102961D01*
X117774760Y-125121009D01*
X117796200Y-125141500D01*
X117845302Y-125176294D01*
X117896062Y-125161803D01*
X117942902Y-125109750D01*
X117979429Y-125037027D01*
X118009150Y-124941989D01*
X118028703Y-124841859D01*
X118034723Y-124753862D01*
X118023849Y-124695222D01*
X118023844Y-124695212D01*
X117970319Y-124637920D01*
X117893692Y-124603349D01*
X117811467Y-124594876D01*
X117741147Y-124615881D01*
G37*
X117741147Y-124615881D02*
X117717804Y-124636146D01*
X117666893Y-124677841D01*
X117624882Y-124699364D01*
X117590974Y-124716656D01*
X117576132Y-124744360D01*
X117576414Y-124797264D01*
X117583272Y-124855468D01*
X117607845Y-124955829D01*
X117649010Y-125038268D01*
X117699288Y-125090659D01*
X117735940Y-125102961D01*
X117774760Y-125121009D01*
X117796200Y-125141500D01*
X117845302Y-125176294D01*
X117896062Y-125161803D01*
X117942902Y-125109750D01*
X117979429Y-125037027D01*
X118009150Y-124941989D01*
X118028703Y-124841859D01*
X118034723Y-124753862D01*
X118023849Y-124695222D01*
X118023844Y-124695212D01*
X117970319Y-124637920D01*
X117893692Y-124603349D01*
X117811467Y-124594876D01*
X117741147Y-124615881D01*
G36*
X117161200Y-124735100D02*
G01*
X117136769Y-124767572D01*
X117135800Y-124774699D01*
X117155174Y-124797915D01*
X117161200Y-124798600D01*
X117183492Y-124777925D01*
X117186600Y-124759000D01*
X117174287Y-124732710D01*
X117161200Y-124735100D01*
G37*
X117161200Y-124735100D02*
X117136769Y-124767572D01*
X117135800Y-124774699D01*
X117155174Y-124797915D01*
X117161200Y-124798600D01*
X117183492Y-124777925D01*
X117186600Y-124759000D01*
X117174287Y-124732710D01*
X117161200Y-124735100D01*
%TO.C,D1*%
D10*
X169538095Y-86802380D02*
X169538095Y-85802380D01*
X169300000Y-85802380D01*
X169157142Y-85850000D01*
X169061904Y-85945238D01*
X169014285Y-86040476D01*
X168966666Y-86230952D01*
X168966666Y-86373809D01*
X169014285Y-86564285D01*
X169061904Y-86659523D01*
X169157142Y-86754761D01*
X169300000Y-86802380D01*
X169538095Y-86802380D01*
X168014285Y-86802380D02*
X168585714Y-86802380D01*
X168300000Y-86802380D02*
X168300000Y-85802380D01*
X168395238Y-85945238D01*
X168490476Y-86040476D01*
X168585714Y-86088095D01*
%TD*%
M02*
