M48
; DRILL file {KiCad 5.1.10-88a1d61d58~90~ubuntu20.04.1} date Thu Jul 22 12:56:08 2021
; FORMAT={-:-/ absolute / inch / decimal}
; #@! TF.CreationDate,2021-07-22T12:56:08-07:00
; #@! TF.GenerationSoftware,Kicad,Pcbnew,5.1.10-88a1d61d58~90~ubuntu20.04.1
FMAT,2
INCH
T1C0.0157
T2C0.0295
T3C0.0315
T4C0.0354
T5C0.0394
T6C0.0433
T7C0.0472
T8C0.0512
T9C0.0787
T10C0.1024
%
G90
G05
T1
X5.687Y-3.3602
X5.8602Y-3.3642
T2
X4.7421Y-3.7303
X4.7421Y-4.2953
X4.7921Y-3.7303
X4.7921Y-4.2953
X4.8421Y-3.7303
X4.8421Y-4.2953
X5.9508Y-2.4882
X6.0008Y-2.4882
X6.0508Y-2.4882
T3
X4.635Y-4.563
X4.6429Y-3.9941
X4.685Y-2.6063
X4.7638Y-2.6063
X4.7992Y-3.1319
X4.7992Y-3.4319
X4.8425Y-2.6063
X4.935Y-4.563
X4.9429Y-3.9941
X5.0768Y-2.1949
X5.0768Y-2.4606
X5.1555Y-3.3031
X5.1555Y-3.5
X5.2205Y-4.3012
X5.2205Y-4.6012
X5.2224Y-3.7571
X5.2224Y-4.0571
X5.3768Y-2.1949
X5.3768Y-2.4606
X5.4803Y-4.0059
X5.4803Y-4.1059
X5.4803Y-4.2059
X5.4803Y-4.3059
X5.4843Y-3.7579
X5.4854Y-3.5
X5.5098Y-2.4665
X5.5098Y-2.7047
X5.5276Y-4.5433
X5.5413Y-2.1634
X5.6201Y-2.1634
X5.7067Y-2.4665
X5.7067Y-2.7047
X5.7244Y-4.5433
X5.7776Y-2.189
X5.7803Y-4.0059
X5.7803Y-4.1059
X5.7803Y-4.2059
X5.7803Y-4.3059
X5.7843Y-3.7579
X5.7854Y-3.5
X5.874Y-2.7343
X5.874Y-2.9311
X6.0157Y-4.252
X6.0157Y-4.4488
X6.0177Y-3.7303
X6.0177Y-4.0303
X6.0776Y-2.189
X6.0787Y-2.7343
X6.0787Y-2.9311
X6.2126Y-2.3504
X6.2146Y-2.5965
X6.2157Y-2.8327
X6.2717Y-4.0906
X6.2717Y-4.2874
X6.4724Y-4.0886
X6.4724Y-4.2854
X6.5126Y-2.3504
X6.5146Y-2.5965
X6.5157Y-2.8327
X6.6594Y-4.3386
X6.7382Y-4.3386
T4
X5.3051Y-1.7717
X5.4051Y-1.7717
T5
X5.3287Y-3.2598
X5.5256Y-3.2598
T6
X4.6594Y-5.4173
X4.8563Y-5.6142
X5.0531Y-5.4173
X6.3445Y-4.9252
X6.5413Y-5.122
X6.7382Y-4.9252
T7
X3.1594Y-3.1319
X3.6594Y-3.1319
T8
X5.4272Y-3.1614
T9
X5.4272Y-3.2598
T10
X2.9724Y-3.5315
X2.9724Y-4.6339
X3.8465Y-4.0827
T0
M30
