  0
SECTION
  2
HEADER
  9
$ACADVER
  1
AC1014
  9
$HANDSEED
  5
FFFF
  9
$MEASUREMENT
 70
     1
  0
ENDSEC
  0
SECTION
  2
TABLES
  0
TABLE
  2
VPORT
  5
8
330
0
100
AcDbSymbolTable
 70
     4
  0
VPORT
  5
2E
330
8
100
AcDbSymbolTableRecord
100
AcDbViewportTableRecord
  2
*ACTIVE
 70
     0
 10
0.0
 20
0.0
 11
1.0
 21
1.0
 12
210.0
 22
148.5
 13
0.0
 23
0.0
 14
10.0
 24
10.0
 15
10.0
 25
10.0
 16
0.0
 26
0.0
 36
1.0
 17
0.0
 27
0.0
 37
0.0
 40
341.0
 41
1.24
 42
50.0
 43
0.0
 44
0.0
 50
0.0
 51
0.0
 71
     0
 72
   100
 73
     1
 74
     3
 75
     0
 76
     0
 77
     0
 78
     0
  0
ENDTAB
  0
TABLE
  2
LTYPE
  5
5
330
0
100
AcDbSymbolTable
 70
     1
  0
LTYPE
  5
14
330
5
100
AcDbSymbolTableRecord
100
AcDbLinetypeTableRecord
  2
BYBLOCK
 70
     0
  3

 72
    65
 73
     0
 40
0.0
  0
LTYPE
  5
15
330
5
100
AcDbSymbolTableRecord
100
AcDbLinetypeTableRecord
  2
BYLAYER
 70
     0
  3

 72
    65
 73
     0
 40
0.0
  0
LTYPE
  5
16
330
5
100
AcDbSymbolTableRecord
100
AcDbLinetypeTableRecord
  2
CONTINUOUS
 70
     0
  3
Solid line
 72
    65
 73
     0
 40
0.0
  0
ENDTAB
  0
TABLE
  2
LAYER
  5
2
100
AcDbSymbolTable
 70
2
  0
LAYER
  5
50
100
AcDbSymbolTableRecord
100
AcDbLayerTableRecord
  2
0
 70
0
  6
CONTINUOUS
  0
LAYER
  5
51
100
AcDbSymbolTableRecord
100
AcDbLayerTableRecord
  2
Layer_1
 70
0
  6
CONTINUOUS
  0
ENDTAB
  0
TABLE
  2
STYLE
  5
3
330
0
100
AcDbSymbolTable
 70
     1
  0
STYLE
  5
11
330
3
100
AcDbSymbolTableRecord
100
AcDbTextStyleTableRecord
  2
STANDARD
 70
     0
 40
0.0
 41
1.0
 50
0.0
 71
     0
 42
2.5
  3
txt
  4

  0
ENDTAB
  0
TABLE
  2
VIEW
  5
6
330
0
100
AcDbSymbolTable
 70
     0
  0
ENDTAB
  0
TABLE
  2
UCS
  5
7
330
0
100
AcDbSymbolTable
 70
     0
  0
ENDTAB
  0
TABLE
  2
APPID
  5
9
330
0
100
AcDbSymbolTable
 70
     2
  0
APPID
  5
12
330
9
100
AcDbSymbolTableRecord
100
AcDbRegAppTableRecord
  2
ACAD
 70
     0
  0
ENDTAB
  0
TABLE
  2
DIMSTYLE
  5
A
330
0
100
AcDbSymbolTable
 70
     1
  0
DIMSTYLE
105
27
330
A
100
AcDbSymbolTableRecord
100
AcDbDimStyleTableRecord
  2
ISO-25
 70
     0
  3

  4

  5

  6

  7

 40
1.0
 41
2.5
 42
0.625
 43
3.75
 44
1.25
 45
0.0
 46
0.0
 47
0.0
 48
0.0
140
2.5
141
2.5
142
0.0
143
0.03937007874016
144
1.0
145
0.0
146
1.0
147
0.625
 71
     0
 72
     0
 73
     0
 74
     0
 75
     0
 76
     0
 77
     1
 78
     8
170
     0
171
     3
172
     1
173
     0
174
     0
175
     0
176
     0
177
     0
178
     0
270
     2
271
     2
272
     2
273
     2
274
     3
340
11
275
     0
280
     0
281
     0
282
     0
283
     0
284
     8
285
     0
286
     0
287
     3
288
     0
  0
ENDTAB
  0
TABLE
  2
BLOCK_RECORD
  5
1
330
0
100
AcDbSymbolTable
 70
     1
  0
BLOCK_RECORD
  5
1F
330
1
100
AcDbSymbolTableRecord
100
AcDbBlockTableRecord
  2
*MODEL_SPACE
  0
BLOCK_RECORD
  5
1B
330
1
100
AcDbSymbolTableRecord
100
AcDbBlockTableRecord
  2
*PAPER_SPACE
  0
ENDTAB
  0
ENDSEC
  0
SECTION
  2
BLOCKS
  0
BLOCK
  5
20
330
1F
100
AcDbEntity
  8
0
100
AcDbBlockBegin
  2
*MODEL_SPACE
 70
     0
 10
0.0
 20
0.0
 30
0.0
  3
*MODEL_SPACE
  1

  0
ENDBLK
  5
21
330
1F
100
AcDbEntity
  8
0
100
AcDbBlockEnd
  0
BLOCK
  5
1C
330
1B
100
AcDbEntity
 67
     1
  8
0
100
AcDbBlockBegin
  2
*PAPER_SPACE
  1

  0
ENDBLK
  5
1D
330
1B
100
AcDbEntity
 67
     1
  8
0
100
AcDbBlockEnd
  0
ENDSEC
  0
SECTION
  2
ENTITIES
  0
SPLINE
  5
100
100
AcDbEntity
  8
Layer_1
 62
7
100
AcDbSpline
 70
8
 71
3
 72
8
 73
4
 74
0
 40
0
 40
0
 40
0
 40
0
 40
1
 40
1
 40
1
 40
1
 10
116.697798
 20
46.724973
 30
0.0
 10
114.792607
 20
49.319925
 30
0.0
 10
109.972345
 20
47.869948
 30
0.0
 10
108.048384
 20
50.710075
 30
0.0
  0
SPLINE
  5
101
100
AcDbEntity
  8
Layer_1
 62
7
100
AcDbSpline
 70
8
 71
3
 72
8
 73
4
 74
0
 40
0
 40
0
 40
0
 40
0
 40
1
 40
1
 40
1
 40
1
 10
108.048384
 20
50.710075
 30
0.0
 10
104.278723
 20
53.760154
 30
0.0
 10
104.561879
 20
59.323752
 30
0.0
 10
103.806177
 20
63.688117
 30
0.0
  0
SPLINE
  5
102
100
AcDbEntity
  8
Layer_1
 62
7
100
AcDbSpline
 70
8
 71
3
 72
8
 73
4
 74
0
 40
0
 40
0
 40
0
 40
0
 40
1
 40
1
 40
1
 40
1
 10
103.806177
 20
63.688117
 30
0.0
 10
104.791719
 20
68.474735
 30
0.0
 10
102.256558
 20
73.321773
 30
0.0
 10
102.985678
 20
78.211951
 30
0.0
  0
SPLINE
  5
103
100
AcDbEntity
  8
Layer_1
 62
7
100
AcDbSpline
 70
8
 71
3
 72
8
 73
4
 74
0
 40
0
 40
0
 40
0
 40
0
 40
1
 40
1
 40
1
 40
1
 10
102.985678
 20
78.211951
 30
0.0
 10
100.393947
 20
78.434217
 30
0.0
 10
97.045052
 20
78.048891
 30
0.0
 10
95.257988
 20
80.163486
 30
0.0
  0
SPLINE
  5
104
100
AcDbEntity
  8
Layer_1
 62
7
100
AcDbSpline
 70
8
 71
3
 72
8
 73
4
 74
0
 40
0
 40
0
 40
0
 40
0
 40
1
 40
1
 40
1
 40
1
 10
95.257988
 20
80.163486
 30
0.0
 10
94.810201
 20
84.653613
 30
0.0
 10
95.664179
 20
89.397409
 30
0.0
 10
96.729730
 20
93.798707
 30
0.0
  0
SPLINE
  5
105
100
AcDbEntity
  8
Layer_1
 62
7
100
AcDbSpline
 70
8
 71
3
 72
8
 73
4
 74
0
 40
0
 40
0
 40
0
 40
0
 40
1
 40
1
 40
1
 40
1
 10
96.729730
 20
93.798707
 30
0.0
 10
97.759027
 20
98.050258
 30
0.0
 10
97.519749
 20
103.009480
 30
0.0
 10
99.266483
 20
106.888110
 30
0.0
  0
SPLINE
  5
106
100
AcDbEntity
  8
Layer_1
 62
7
100
AcDbSpline
 70
8
 71
3
 72
8
 73
4
 74
0
 40
0
 40
0
 40
0
 40
0
 40
1
 40
1
 40
1
 40
1
 10
99.266483
 20
106.888110
 30
0.0
 10
101.328089
 20
107.725897
 30
0.0
 10
105.558107
 20
103.941099
 30
0.0
 10
105.508746
 20
108.028770
 30
0.0
  0
SPLINE
  5
107
100
AcDbEntity
  8
Layer_1
 62
7
100
AcDbSpline
 70
8
 71
3
 72
8
 73
4
 74
0
 40
0
 40
0
 40
0
 40
0
 40
1
 40
1
 40
1
 40
1
 10
105.508746
 20
108.028770
 30
0.0
 10
105.416985
 20
115.627725
 30
0.0
 10
105.457355
 20
123.116615
 30
0.0
 10
106.054806
 20
130.702651
 30
0.0
  0
SPLINE
  5
108
100
AcDbEntity
  8
Layer_1
 62
7
100
AcDbSpline
 70
8
 71
3
 72
8
 73
4
 74
0
 40
0
 40
0
 40
0
 40
0
 40
1
 40
1
 40
1
 40
1
 10
106.054806
 20
130.702651
 30
0.0
 10
107.357867
 20
134.365418
 30
0.0
 10
107.805247
 20
138.960793
 30
0.0
 10
111.842611
 20
140.694484
 30
0.0
  0
SPLINE
  5
109
100
AcDbEntity
  8
Layer_1
 62
7
100
AcDbSpline
 70
8
 71
3
 72
8
 73
4
 74
0
 40
0
 40
0
 40
0
 40
0
 40
1
 40
1
 40
1
 40
1
 10
111.842611
 20
140.694484
 30
0.0
 10
114.474853
 20
142.563771
 30
0.0
 10
117.271397
 20
144.474270
 30
0.0
 10
120.415191
 20
145.241300
 30
0.0
  0
SPLINE
  5
10a
100
AcDbEntity
  8
Layer_1
 62
7
100
AcDbSpline
 70
8
 71
3
 72
8
 73
4
 74
0
 40
0
 40
0
 40
0
 40
0
 40
1
 40
1
 40
1
 40
1
 10
120.415191
 20
145.241300
 30
0.0
 10
123.170614
 20
146.944430
 30
0.0
 10
123.750582
 20
145.968378
 30
0.0
 10
122.073402
 20
148.970585
 30
0.0
  0
SPLINE
  5
10b
100
AcDbEntity
  8
Layer_1
 62
7
100
AcDbSpline
 70
8
 71
3
 72
8
 73
4
 74
0
 40
0
 40
0
 40
0
 40
0
 40
1
 40
1
 40
1
 40
1
 10
122.073402
 20
148.970585
 30
0.0
 10
121.641694
 20
150.484025
 30
0.0
 10
118.023534
 20
155.854019
 30
0.0
 10
121.147010
 20
154.930083
 30
0.0
  0
SPLINE
  5
10c
100
AcDbEntity
  8
Layer_1
 62
7
100
AcDbSpline
 70
8
 71
3
 72
8
 73
4
 74
0
 40
0
 40
0
 40
0
 40
0
 40
1
 40
1
 40
1
 40
1
 10
121.147010
 20
154.930083
 30
0.0
 10
123.943560
 20
153.349872
 30
0.0
 10
124.243026
 20
155.236988
 30
0.0
 10
125.388144
 20
157.720926
 30
0.0
  0
SPLINE
  5
10d
100
AcDbEntity
  8
Layer_1
 62
7
100
AcDbSpline
 70
8
 71
3
 72
8
 73
4
 74
0
 40
0
 40
0
 40
0
 40
0
 40
1
 40
1
 40
1
 40
1
 10
125.388144
 20
157.720926
 30
0.0
 10
125.572249
 20
160.939353
 30
0.0
 10
127.329187
 20
159.241824
 30
0.0
 10
128.925060
 20
158.646524
 30
0.0
  0
SPLINE
  5
10e
100
AcDbEntity
  8
Layer_1
 62
7
100
AcDbSpline
 70
8
 71
3
 72
8
 73
4
 74
0
 40
0
 40
0
 40
0
 40
0
 40
1
 40
1
 40
1
 40
1
 10
128.925060
 20
158.646524
 30
0.0
 10
130.372407
 20
157.755352
 30
0.0
 10
131.817664
 20
155.641861
 30
0.0
 10
132.537803
 20
158.578959
 30
0.0
  0
SPLINE
  5
10f
100
AcDbEntity
  8
Layer_1
 62
7
100
AcDbSpline
 70
8
 71
3
 72
8
 73
4
 74
0
 40
0
 40
0
 40
0
 40
0
 40
1
 40
1
 40
1
 40
1
 10
132.537803
 20
158.578959
 30
0.0
 10
133.604229
 20
160.848694
 30
0.0
 10
135.893284
 20
162.311979
 30
0.0
 10
135.675531
 20
158.507586
 30
0.0
  0
SPLINE
  5
110
100
AcDbEntity
  8
Layer_1
 62
7
100
AcDbSpline
 70
8
 71
3
 72
8
 73
4
 74
0
 40
0
 40
0
 40
0
 40
0
 40
1
 40
1
 40
1
 40
1
 10
135.675531
 20
158.507586
 30
0.0
 10
137.086162
 20
155.148822
 30
0.0
 10
136.101343
 20
150.824349
 30
0.0
 10
137.009680
 20
147.796582
 30
0.0
  0
SPLINE
  5
111
100
AcDbEntity
  8
Layer_1
 62
7
100
AcDbSpline
 70
8
 71
3
 72
8
 73
4
 74
0
 40
0
 40
0
 40
0
 40
0
 40
1
 40
1
 40
1
 40
1
 10
137.009680
 20
147.796582
 30
0.0
 10
139.788630
 20
147.816820
 30
0.0
 10
142.490552
 20
148.414911
 30
0.0
 10
144.302001
 20
146.043083
 30
0.0
  0
SPLINE
  5
112
100
AcDbEntity
  8
Layer_1
 62
7
100
AcDbSpline
 70
8
 71
3
 72
8
 73
4
 74
0
 40
0
 40
0
 40
0
 40
0
 40
1
 40
1
 40
1
 40
1
 10
144.302001
 20
146.043083
 30
0.0
 10
148.297633
 20
144.880170
 30
0.0
 10
153.379746
 20
143.374907
 30
0.0
 10
152.104564
 20
143.690942
 30
0.0
  0
SPLINE
  5
113
100
AcDbEntity
  8
Layer_1
 62
7
100
AcDbSpline
 70
8
 71
3
 72
8
 73
4
 74
0
 40
0
 40
0
 40
0
 40
0
 40
1
 40
1
 40
1
 40
1
 10
152.104564
 20
143.690942
 30
0.0
 10
153.184828
 20
141.879521
 30
0.0
 10
159.460220
 20
139.903044
 30
0.0
 10
157.584409
 20
140.860202
 30
0.0
  0
SPLINE
  5
114
100
AcDbEntity
  8
Layer_1
 62
7
100
AcDbSpline
 70
8
 71
3
 72
8
 73
4
 74
0
 40
0
 40
0
 40
0
 40
0
 40
1
 40
1
 40
1
 40
1
 10
157.584409
 20
140.860202
 30
0.0
 10
161.462078
 20
137.841155
 30
0.0
 10
164.475460
 20
134.118441
 30
0.0
 10
166.325872
 20
129.480061
 30
0.0
  0
SPLINE
  5
115
100
AcDbEntity
  8
Layer_1
 62
7
100
AcDbSpline
 70
8
 71
3
 72
8
 73
4
 74
0
 40
0
 40
0
 40
0
 40
0
 40
1
 40
1
 40
1
 40
1
 10
166.325872
 20
129.480061
 30
0.0
 10
168.079128
 20
125.085223
 30
0.0
 10
169.536971
 20
120.363130
 30
0.0
 10
169.091007
 20
115.630180
 30
0.0
  0
SPLINE
  5
116
100
AcDbEntity
  8
Layer_1
 62
7
100
AcDbSpline
 70
8
 71
3
 72
8
 73
4
 74
0
 40
0
 40
0
 40
0
 40
0
 40
1
 40
1
 40
1
 40
1
 10
169.091007
 20
115.630180
 30
0.0
 10
171.313490
 20
114.690981
 30
0.0
 10
174.052460
 20
114.106715
 30
0.0
 10
175.077575
 20
111.522112
 30
0.0
  0
SPLINE
  5
117
100
AcDbEntity
  8
Layer_1
 62
7
100
AcDbSpline
 70
8
 71
3
 72
8
 73
4
 74
0
 40
0
 40
0
 40
0
 40
0
 40
1
 40
1
 40
1
 40
1
 10
175.077575
 20
111.522112
 30
0.0
 10
178.263321
 20
107.755852
 30
0.0
 10
177.002748
 20
102.735106
 30
0.0
 10
174.888641
 20
98.756911
 30
0.0
  0
SPLINE
  5
118
100
AcDbEntity
  8
Layer_1
 62
7
100
AcDbSpline
 70
8
 71
3
 72
8
 73
4
 74
0
 40
0
 40
0
 40
0
 40
0
 40
1
 40
1
 40
1
 40
1
 10
174.888641
 20
98.756911
 30
0.0
 10
173.287707
 20
96.999295
 30
0.0
 10
171.768928
 20
95.821427
 30
0.0
 10
172.210010
 20
92.984210
 30
0.0
  0
SPLINE
  5
119
100
AcDbEntity
  8
Layer_1
 62
7
100
AcDbSpline
 70
8
 71
3
 72
8
 73
4
 74
0
 40
0
 40
0
 40
0
 40
0
 40
1
 40
1
 40
1
 40
1
 10
172.210010
 20
92.984210
 30
0.0
 10
170.954226
 20
90.167137
 30
0.0
 10
173.257650
 20
87.117051
 30
0.0
 10
172.458620
 20
83.902349
 30
0.0
  0
SPLINE
  5
11a
100
AcDbEntity
  8
Layer_1
 62
7
100
AcDbSpline
 70
8
 71
3
 72
8
 73
4
 74
0
 40
0
 40
0
 40
0
 40
0
 40
1
 40
1
 40
1
 40
1
 10
172.458620
 20
83.902349
 30
0.0
 10
172.365675
 20
80.605781
 30
0.0
 10
172.910101
 20
77.296319
 30
0.0
 10
172.712309
 20
74.200768
 30
0.0
  0
SPLINE
  5
11b
100
AcDbEntity
  8
Layer_1
 62
7
100
AcDbSpline
 70
8
 71
3
 72
8
 73
4
 74
0
 40
0
 40
0
 40
0
 40
0
 40
1
 40
1
 40
1
 40
1
 10
172.712309
 20
74.200768
 30
0.0
 10
169.399144
 20
71.479785
 30
0.0
 10
168.702544
 20
66.970394
 30
0.0
 10
165.758921
 20
63.717054
 30
0.0
  0
SPLINE
  5
11c
100
AcDbEntity
  8
Layer_1
 62
7
100
AcDbSpline
 70
8
 71
3
 72
8
 73
4
 74
0
 40
0
 40
0
 40
0
 40
0
 40
1
 40
1
 40
1
 40
1
 10
165.758921
 20
63.717054
 30
0.0
 10
163.586593
 20
61.316166
 30
0.0
 10
161.728527
 20
56.749272
 30
0.0
 10
157.495403
 20
58.092578
 30
0.0
  0
SPLINE
  5
11d
100
AcDbEntity
  8
Layer_1
 62
7
100
AcDbSpline
 70
8
 71
3
 72
8
 73
4
 74
0
 40
0
 40
0
 40
0
 40
0
 40
1
 40
1
 40
1
 40
1
 10
157.495403
 20
58.092578
 30
0.0
 10
152.935891
 20
59.539458
 30
0.0
 10
150.431604
 20
64.091034
 30
0.0
 10
146.854698
 20
67.007918
 30
0.0
  0
SPLINE
  5
11e
100
AcDbEntity
  8
Layer_1
 62
7
100
AcDbSpline
 70
8
 71
3
 72
8
 73
4
 74
0
 40
0
 40
0
 40
0
 40
0
 40
1
 40
1
 40
1
 40
1
 10
146.854698
 20
67.007918
 30
0.0
 10
145.245690
 20
69.159208
 30
0.0
 10
145.068751
 20
72.058499
 30
0.0
 10
143.604141
 20
74.098983
 30
0.0
  0
SPLINE
  5
11f
100
AcDbEntity
  8
Layer_1
 62
7
100
AcDbSpline
 70
8
 71
3
 72
8
 73
4
 74
0
 40
0
 40
0
 40
0
 40
0
 40
1
 40
1
 40
1
 40
1
 10
143.604141
 20
74.098983
 30
0.0
 10
140.207777
 20
73.031092
 30
0.0
 10
136.601421
 20
73.591073
 30
0.0
 10
133.348734
 20
71.819232
 30
0.0
  0
SPLINE
  5
120
100
AcDbEntity
  8
Layer_1
 62
7
100
AcDbSpline
 70
8
 71
3
 72
8
 73
4
 74
0
 40
0
 40
0
 40
0
 40
0
 40
1
 40
1
 40
1
 40
1
 10
133.348734
 20
71.819232
 30
0.0
 10
131.919981
 20
71.040945
 30
0.0
 10
129.979097
 20
70.345517
 30
0.0
 10
127.996167
 20
70.768568
 30
0.0
  0
SPLINE
  5
121
100
AcDbEntity
  8
Layer_1
 62
7
100
AcDbSpline
 70
8
 71
3
 72
8
 73
4
 74
0
 40
0
 40
0
 40
0
 40
0
 40
1
 40
1
 40
1
 40
1
 10
127.996167
 20
70.768568
 30
0.0
 10
124.704641
 20
69.777576
 30
0.0
 10
126.700569
 20
65.469326
 30
0.0
 10
125.318741
 20
62.905507
 30
0.0
  0
SPLINE
  5
122
100
AcDbEntity
  8
Layer_1
 62
7
100
AcDbSpline
 70
8
 71
3
 72
8
 73
4
 74
0
 40
0
 40
0
 40
0
 40
0
 40
1
 40
1
 40
1
 40
1
 10
125.318741
 20
62.905507
 30
0.0
 10
125.332439
 20
58.488065
 30
0.0
 10
124.008403
 20
54.591026
 30
0.0
 10
122.920318
 20
50.465647
 30
0.0
  0
SPLINE
  5
123
100
AcDbEntity
  8
Layer_1
 62
7
100
AcDbSpline
 70
8
 71
3
 72
8
 73
4
 74
0
 40
0
 40
0
 40
0
 40
0
 40
1
 40
1
 40
1
 40
1
 10
122.920318
 20
50.465647
 30
0.0
 10
121.389363
 20
48.331009
 30
0.0
 10
115.788742
 20
45.209471
 30
0.0
 10
117.047848
 20
46.645834
 30
0.0
  0
SPLINE
  5
124
100
AcDbEntity
  8
Layer_1
 62
7
100
AcDbSpline
 70
8
 71
3
 72
8
 73
4
 74
0
 40
0
 40
0
 40
0
 40
0
 40
1
 40
1
 40
1
 40
1
 10
118.452231
 20
48.807259
 30
0.0
 10
122.384945
 20
49.560397
 30
0.0
 10
123.139339
 20
53.897140
 30
0.0
 10
123.417576
 20
57.311854
 30
0.0
  0
SPLINE
  5
125
100
AcDbEntity
  8
Layer_1
 62
7
100
AcDbSpline
 70
8
 71
3
 72
8
 73
4
 74
0
 40
0
 40
0
 40
0
 40
0
 40
1
 40
1
 40
1
 40
1
 10
123.417576
 20
57.311854
 30
0.0
 10
125.003663
 20
61.563907
 30
0.0
 10
124.593830
 20
66.924518
 30
0.0
 10
125.635979
 20
70.976376
 30
0.0
  0
SPLINE
  5
126
100
AcDbEntity
  8
Layer_1
 62
7
100
AcDbSpline
 70
8
 71
3
 72
8
 73
4
 74
0
 40
0
 40
0
 40
0
 40
0
 40
1
 40
1
 40
1
 40
1
 10
125.635979
 20
70.976376
 30
0.0
 10
127.592874
 20
72.001521
 30
0.0
 10
130.317887
 20
72.188010
 30
0.0
 10
132.745396
 20
72.817650
 30
0.0
  0
SPLINE
  5
127
100
AcDbEntity
  8
Layer_1
 62
7
100
AcDbSpline
 70
8
 71
3
 72
8
 73
4
 74
0
 40
0
 40
0
 40
0
 40
0
 40
1
 40
1
 40
1
 40
1
 10
132.745396
 20
72.817650
 30
0.0
 10
135.222646
 20
73.460191
 30
0.0
 10
137.937693
 20
74.615550
 30
0.0
 10
140.852840
 20
74.471222
 30
0.0
  0
SPLINE
  5
128
100
AcDbEntity
  8
Layer_1
 62
7
100
AcDbSpline
 70
8
 71
3
 72
8
 73
4
 74
0
 40
0
 40
0
 40
0
 40
0
 40
1
 40
1
 40
1
 40
1
 10
140.852840
 20
74.471222
 30
0.0
 10
142.713959
 20
75.293255
 30
0.0
 10
145.444994
 20
75.657057
 30
0.0
 10
145.533188
 20
72.930702
 30
0.0
  0
SPLINE
  5
129
100
AcDbEntity
  8
Layer_1
 62
7
100
AcDbSpline
 70
8
 71
3
 72
8
 73
4
 74
0
 40
0
 40
0
 40
0
 40
0
 40
1
 40
1
 40
1
 40
1
 10
145.533188
 20
72.930702
 30
0.0
 10
146.469876
 20
68.668428
 30
0.0
 10
149.423730
 20
65.578811
 30
0.0
 10
152.654880
 20
62.869886
 30
0.0
  0
SPLINE
  5
12a
100
AcDbEntity
  8
Layer_1
 62
7
100
AcDbSpline
 70
8
 71
3
 72
8
 73
4
 74
0
 40
0
 40
0
 40
0
 40
0
 40
1
 40
1
 40
1
 40
1
 10
152.654880
 20
62.869886
 30
0.0
 10
154.824846
 20
59.446140
 30
0.0
 10
160.336849
 20
57.073911
 30
0.0
 10
162.637845
 20
61.420501
 30
0.0
  0
SPLINE
  5
12b
100
AcDbEntity
  8
Layer_1
 62
7
100
AcDbSpline
 70
8
 71
3
 72
8
 73
4
 74
0
 40
0
 40
0
 40
0
 40
0
 40
1
 40
1
 40
1
 40
1
 10
162.637845
 20
61.420501
 30
0.0
 10
165.498222
 20
64.911092
 30
0.0
 10
168.524504
 20
68.511501
 30
0.0
 10
169.986883
 20
72.950286
 30
0.0
  0
SPLINE
  5
12c
100
AcDbEntity
  8
Layer_1
 62
7
100
AcDbSpline
 70
8
 71
3
 72
8
 73
4
 74
0
 40
0
 40
0
 40
0
 40
0
 40
1
 40
1
 40
1
 40
1
 10
169.986883
 20
72.950286
 30
0.0
 10
172.885579
 20
74.668145
 30
0.0
 10
171.171715
 20
77.703021
 30
0.0
 10
171.652282
 20
80.371472
 30
0.0
  0
SPLINE
  5
12d
100
AcDbEntity
  8
Layer_1
 62
7
100
AcDbSpline
 70
8
 71
3
 72
8
 73
4
 74
0
 40
0
 40
0
 40
0
 40
0
 40
1
 40
1
 40
1
 40
1
 10
171.652282
 20
80.371472
 30
0.0
 10
172.380424
 20
84.414664
 30
0.0
 10
170.462289
 20
88.515516
 30
0.0
 10
170.681831
 20
91.832339
 30
0.0
  0
SPLINE
  5
12e
100
AcDbEntity
  8
Layer_1
 62
7
100
AcDbSpline
 70
8
 71
3
 72
8
 73
4
 74
0
 40
0
 40
0
 40
0
 40
0
 40
1
 40
1
 40
1
 40
1
 10
170.681831
 20
91.832339
 30
0.0
 10
172.950334
 20
95.394301
 30
0.0
 10
168.849472
 20
95.011850
 30
0.0
 10
166.162926
 20
95.189293
 30
0.0
  0
SPLINE
  5
12f
100
AcDbEntity
  8
Layer_1
 62
7
100
AcDbSpline
 70
8
 71
3
 72
8
 73
4
 74
0
 40
0
 40
0
 40
0
 40
0
 40
1
 40
1
 40
1
 40
1
 10
166.162926
 20
95.189293
 30
0.0
 10
159.913055
 20
95.602091
 30
0.0
 10
154.043740
 20
98.103465
 30
0.0
 10
148.821448
 20
101.548015
 30
0.0
  0
SPLINE
  5
130
100
AcDbEntity
  8
Layer_1
 62
7
100
AcDbSpline
 70
8
 71
3
 72
8
 73
4
 74
0
 40
0
 40
0
 40
0
 40
0
 40
1
 40
1
 40
1
 40
1
 10
148.821448
 20
101.548015
 30
0.0
 10
146.566219
 20
104.540814
 30
0.0
 10
143.771185
 20
107.573201
 30
0.0
 10
143.567755
 20
111.706892
 30
0.0
  0
SPLINE
  5
131
100
AcDbEntity
  8
Layer_1
 62
7
100
AcDbSpline
 70
8
 71
3
 72
8
 73
4
 74
0
 40
0
 40
0
 40
0
 40
0
 40
1
 40
1
 40
1
 40
1
 10
143.567755
 20
111.706892
 30
0.0
 10
142.295336
 20
116.210797
 30
0.0
 10
146.690856
 20
120.994377
 30
0.0
 10
151.197159
 20
121.077185
 30
0.0
  0
SPLINE
  5
132
100
AcDbEntity
  8
Layer_1
 62
7
100
AcDbSpline
 70
8
 71
3
 72
8
 73
4
 74
0
 40
0
 40
0
 40
0
 40
0
 40
1
 40
1
 40
1
 40
1
 10
151.197159
 20
121.077185
 30
0.0
 10
153.690189
 20
122.082389
 30
0.0
 10
156.470614
 20
123.417668
 30
0.0
 10
158.805113
 20
121.500942
 30
0.0
  0
SPLINE
  5
133
100
AcDbEntity
  8
Layer_1
 62
7
100
AcDbSpline
 70
8
 71
3
 72
8
 73
4
 74
0
 40
0
 40
0
 40
0
 40
0
 40
1
 40
1
 40
1
 40
1
 10
158.805113
 20
121.500942
 30
0.0
 10
162.078054
 20
120.694296
 30
0.0
 10
165.417309
 20
119.233336
 30
0.0
 10
168.160667
 20
117.172371
 30
0.0
  0
SPLINE
  5
134
100
AcDbEntity
  8
Layer_1
 62
7
100
AcDbSpline
 70
8
 71
3
 72
8
 73
4
 74
0
 40
0
 40
0
 40
0
 40
0
 40
1
 40
1
 40
1
 40
1
 10
168.160667
 20
117.172371
 30
0.0
 10
167.923137
 20
125.811974
 30
0.0
 10
164.687702
 20
135.342384
 30
0.0
 10
157.431227
 20
139.812031
 30
0.0
  0
SPLINE
  5
135
100
AcDbEntity
  8
Layer_1
 62
7
100
AcDbSpline
 70
8
 71
3
 72
8
 73
4
 74
0
 40
0
 40
0
 40
0
 40
0
 40
1
 40
1
 40
1
 40
1
 10
157.431227
 20
139.812031
 30
0.0
 10
155.338085
 20
141.101308
 30
0.0
 10
152.485381
 20
140.247605
 30
0.0
 10
151.016702
 20
142.699861
 30
0.0
  0
SPLINE
  5
136
100
AcDbEntity
  8
Layer_1
 62
7
100
AcDbSpline
 70
8
 71
3
 72
8
 73
4
 74
0
 40
0
 40
0
 40
0
 40
0
 40
1
 40
1
 40
1
 40
1
 10
151.016702
 20
142.699861
 30
0.0
 10
148.646516
 20
143.490284
 30
0.0
 10
146.446651
 20
144.748896
 30
0.0
 10
143.830152
 20
145.057864
 30
0.0
  0
SPLINE
  5
137
100
AcDbEntity
  8
Layer_1
 62
7
100
AcDbSpline
 70
8
 71
3
 72
8
 73
4
 74
0
 40
0
 40
0
 40
0
 40
0
 40
1
 40
1
 40
1
 40
1
 10
143.830152
 20
145.057864
 30
0.0
 10
141.136315
 20
146.973348
 30
0.0
 10
138.255951
 20
145.585245
 30
0.0
 10
135.375655
 20
146.674872
 30
0.0
  0
SPLINE
  5
138
100
AcDbEntity
  8
Layer_1
 62
7
100
AcDbSpline
 70
8
 71
3
 72
8
 73
4
 74
0
 40
0
 40
0
 40
0
 40
0
 40
1
 40
1
 40
1
 40
1
 10
135.375655
 20
146.674872
 30
0.0
 10
129.885400
 20
146.790482
 30
0.0
 10
124.218085
 20
146.386300
 30
0.0
 10
119.322437
 20
143.835442
 30
0.0
  0
SPLINE
  5
139
100
AcDbEntity
  8
Layer_1
 62
7
100
AcDbSpline
 70
8
 71
3
 72
8
 73
4
 74
0
 40
0
 40
0
 40
0
 40
0
 40
1
 40
1
 40
1
 40
1
 10
119.322437
 20
143.835442
 30
0.0
 10
114.869665
 20
141.515347
 30
0.0
 10
108.927536
 20
139.159378
 30
0.0
 10
108.138183
 20
133.452319
 30
0.0
  0
SPLINE
  5
13a
100
AcDbEntity
  8
Layer_1
 62
7
100
AcDbSpline
 70
8
 71
3
 72
8
 73
4
 74
0
 40
0
 40
0
 40
0
 40
0
 40
1
 40
1
 40
1
 40
1
 10
108.138183
 20
133.452319
 30
0.0
 10
105.587357
 20
128.790826
 30
0.0
 10
106.686996
 20
123.522571
 30
0.0
 10
106.483407
 20
118.316325
 30
0.0
  0
SPLINE
  5
13b
100
AcDbEntity
  8
Layer_1
 62
7
100
AcDbSpline
 70
8
 71
3
 72
8
 73
4
 74
0
 40
0
 40
0
 40
0
 40
0
 40
1
 40
1
 40
1
 40
1
 10
106.483407
 20
118.316325
 30
0.0
 10
106.233360
 20
111.921991
 30
0.0
 10
107.270902
 20
104.955339
 30
0.0
 10
105.707267
 20
98.747744
 30
0.0
  0
SPLINE
  5
13c
100
AcDbEntity
  8
Layer_1
 62
7
100
AcDbSpline
 70
8
 71
3
 72
8
 73
4
 74
0
 40
0
 40
0
 40
0
 40
0
 40
1
 40
1
 40
1
 40
1
 10
105.707267
 20
98.747744
 30
0.0
 10
104.254364
 20
92.979757
 30
0.0
 10
104.657373
 20
86.606473
 30
0.0
 10
104.365790
 20
80.710199
 30
0.0
  0
SPLINE
  5
13d
100
AcDbEntity
  8
Layer_1
 62
7
100
AcDbSpline
 70
8
 71
3
 72
8
 73
4
 74
0
 40
0
 40
0
 40
0
 40
0
 40
1
 40
1
 40
1
 40
1
 10
104.365790
 20
80.710199
 30
0.0
 10
105.203061
 20
77.556028
 30
0.0
 10
102.565693
 20
74.731916
 30
0.0
 10
104.436062
 20
71.213468
 30
0.0
  0
SPLINE
  5
13e
100
AcDbEntity
  8
Layer_1
 62
7
100
AcDbSpline
 70
8
 71
3
 72
8
 73
4
 74
0
 40
0
 40
0
 40
0
 40
0
 40
1
 40
1
 40
1
 40
1
 10
104.436062
 20
71.213468
 30
0.0
 10
105.772456
 20
65.214488
 30
0.0
 10
104.359284
 20
58.963746
 30
0.0
 10
106.990476
 20
53.188169
 30
0.0
  0
SPLINE
  5
13f
100
AcDbEntity
  8
Layer_1
 62
7
100
AcDbSpline
 70
8
 71
3
 72
8
 73
4
 74
0
 40
0
 40
0
 40
0
 40
0
 40
1
 40
1
 40
1
 40
1
 10
106.990476
 20
53.188169
 30
0.0
 10
109.596277
 20
49.433707
 30
0.0
 10
114.371739
 20
49.023952
 30
0.0
 10
118.452231
 20
48.807259
 30
0.0
  0
LWPOLYLINE
  5
140
100
AcDbEntity
  8
Layer_1
 62
7
100
AcDbPolyline
 90
4
 70
0
 10
117.047848
 20
46.645834
 30
0.0
 10
116.697294
 20
46.724245
 30
0.0
 10
116.697760
 20
46.724992
 30
0.0
 10
116.697798
 20
46.724973
 30
0.0
  0
SPLINE
  5
141
100
AcDbEntity
  8
Layer_1
 62
7
100
AcDbSpline
 70
8
 71
3
 72
8
 73
4
 74
0
 40
0
 40
0
 40
0
 40
0
 40
1
 40
1
 40
1
 40
1
 10
103.022251
 20
79.242630
 30
0.0
 10
103.813609
 20
87.115138
 30
0.0
 10
103.285941
 20
95.467429
 30
0.0
 10
105.402947
 20
103.176710
 30
0.0
  0
SPLINE
  5
142
100
AcDbEntity
  8
Layer_1
 62
7
100
AcDbSpline
 70
8
 71
3
 72
8
 73
4
 74
0
 40
0
 40
0
 40
0
 40
0
 40
1
 40
1
 40
1
 40
1
 10
105.402947
 20
103.176710
 30
0.0
 10
104.506327
 20
106.880969
 30
0.0
 10
100.688434
 20
105.048303
 30
0.0
 10
99.807978
 20
105.832378
 30
0.0
  0
SPLINE
  5
143
100
AcDbEntity
  8
Layer_1
 62
7
100
AcDbSpline
 70
8
 71
3
 72
8
 73
4
 74
0
 40
0
 40
0
 40
0
 40
0
 40
1
 40
1
 40
1
 40
1
 10
99.807978
 20
105.832378
 30
0.0
 10
98.797961
 20
97.708067
 30
0.0
 10
96.643404
 20
89.670915
 30
0.0
 10
96.364576
 20
81.476622
 30
0.0
  0
SPLINE
  5
144
100
AcDbEntity
  8
Layer_1
 62
7
100
AcDbSpline
 70
8
 71
3
 72
8
 73
4
 74
0
 40
0
 40
0
 40
0
 40
0
 40
1
 40
1
 40
1
 40
1
 10
96.364576
 20
81.476622
 30
0.0
 10
97.333062
 20
79.944504
 30
0.0
 10
104.135521
 20
79.964863
 30
0.0
 10
101.367176
 20
79.982449
 30
0.0
  0
SPLINE
  5
145
100
AcDbEntity
  8
Layer_1
 62
7
100
AcDbSpline
 70
8
 71
3
 72
8
 73
4
 74
0
 40
0
 40
0
 40
0
 40
0
 40
1
 40
1
 40
1
 40
1
 10
101.367176
 20
79.982449
 30
0.0
 10
101.985378
 20
79.905494
 30
0.0
 10
102.486096
 20
79.314572
 30
0.0
 10
103.022251
 20
79.242630
 30
0.0
  0
LWPOLYLINE
  5
146
100
AcDbEntity
  8
Layer_1
 62
7
100
AcDbPolyline
 90
1
 70
1
 10
118.452231
 20
48.807259
 30
0.0
  0
SPLINE
  5
147
100
AcDbEntity
  8
Layer_1
 62
7
100
AcDbSpline
 70
8
 71
3
 72
8
 73
4
 74
0
 40
0
 40
0
 40
0
 40
0
 40
1
 40
1
 40
1
 40
1
 10
170.559519
 20
95.824993
 30
0.0
 10
171.939277
 20
97.970185
 30
0.0
 10
175.053286
 20
98.785522
 30
0.0
 10
174.997511
 20
102.116600
 30
0.0
  0
SPLINE
  5
148
100
AcDbEntity
  8
Layer_1
 62
7
100
AcDbSpline
 70
8
 71
3
 72
8
 73
4
 74
0
 40
0
 40
0
 40
0
 40
0
 40
1
 40
1
 40
1
 40
1
 10
174.997511
 20
102.116600
 30
0.0
 10
177.773997
 20
105.918938
 30
0.0
 10
175.093976
 20
111.207301
 30
0.0
 10
171.716346
 20
113.314528
 30
0.0
  0
SPLINE
  5
149
100
AcDbEntity
  8
Layer_1
 62
7
100
AcDbSpline
 70
8
 71
3
 72
8
 73
4
 74
0
 40
0
 40
0
 40
0
 40
0
 40
1
 40
1
 40
1
 40
1
 10
171.716346
 20
113.314528
 30
0.0
 10
167.971556
 20
113.927377
 30
0.0
 10
166.587915
 20
117.607394
 30
0.0
 10
163.153782
 20
118.874753
 30
0.0
  0
SPLINE
  5
14a
100
AcDbEntity
  8
Layer_1
 62
7
100
AcDbSpline
 70
8
 71
3
 72
8
 73
4
 74
0
 40
0
 40
0
 40
0
 40
0
 40
1
 40
1
 40
1
 40
1
 10
163.153782
 20
118.874753
 30
0.0
 10
160.912985
 20
119.701712
 30
0.0
 10
158.160965
 20
120.506314
 30
0.0
 10
155.828445
 20
121.337007
 30
0.0
  0
SPLINE
  5
14b
100
AcDbEntity
  8
Layer_1
 62
7
100
AcDbSpline
 70
8
 71
3
 72
8
 73
4
 74
0
 40
0
 40
0
 40
0
 40
0
 40
1
 40
1
 40
1
 40
1
 10
155.828445
 20
121.337007
 30
0.0
 10
152.788917
 20
120.195890
 30
0.0
 10
148.752325
 20
120.157944
 30
0.0
 10
146.598909
 20
117.600841
 30
0.0
  0
SPLINE
  5
14c
100
AcDbEntity
  8
Layer_1
 62
7
100
AcDbSpline
 70
8
 71
3
 72
8
 73
4
 74
0
 40
0
 40
0
 40
0
 40
0
 40
1
 40
1
 40
1
 40
1
 10
146.598909
 20
117.600841
 30
0.0
 10
144.475215
 20
116.938108
 30
0.0
 10
144.617289
 20
113.994606
 30
0.0
 10
145.372464
 20
112.512250
 30
0.0
  0
SPLINE
  5
14d
100
AcDbEntity
  8
Layer_1
 62
7
100
AcDbSpline
 70
8
 71
3
 72
8
 73
4
 74
0
 40
0
 40
0
 40
0
 40
0
 40
1
 40
1
 40
1
 40
1
 10
145.372464
 20
112.512250
 30
0.0
 10
143.609098
 20
108.687789
 30
0.0
 10
147.514743
 20
105.306537
 30
0.0
 10
149.540124
 20
102.425269
 30
0.0
  0
SPLINE
  5
14e
100
AcDbEntity
  8
Layer_1
 62
7
100
AcDbSpline
 70
8
 71
3
 72
8
 73
4
 74
0
 40
0
 40
0
 40
0
 40
0
 40
1
 40
1
 40
1
 40
1
 10
149.540124
 20
102.425269
 30
0.0
 10
155.531444
 20
97.925229
 30
0.0
 10
163.185203
 20
96.154040
 30
0.0
 10
170.559519
 20
95.824993
 30
0.0
  0
LWPOLYLINE
  5
14f
100
AcDbEntity
  8
Layer_1
 62
7
100
AcDbPolyline
 90
1
 70
1
 10
103.022251
 20
79.242630
 30
0.0
  0
SPLINE
  5
150
100
AcDbEntity
  8
Layer_1
 62
7
100
AcDbSpline
 70
8
 71
3
 72
8
 73
4
 74
0
 40
0
 40
0
 40
0
 40
0
 40
1
 40
1
 40
1
 40
1
 10
173.353227
 20
112.065661
 30
0.0
 10
173.408834
 20
112.520474
 30
0.0
 10
173.371421
 20
112.033568
 30
0.0
 10
173.353227
 20
112.065661
 30
0.0
  0
LWPOLYLINE
  5
151
100
AcDbEntity
  8
Layer_1
 62
7
100
AcDbPolyline
 90
1
 70
1
 10
170.559519
 20
95.824993
 30
0.0
  0
SPLINE
  5
152
100
AcDbEntity
  8
Layer_1
 62
7
100
AcDbSpline
 70
8
 71
3
 72
8
 73
4
 74
0
 40
0
 40
0
 40
0
 40
0
 40
1
 40
1
 40
1
 40
1
 10
115.612511
 20
142.024665
 30
0.0
 10
115.461674
 20
142.822920
 30
0.0
 10
115.473780
 20
141.282074
 30
0.0
 10
115.612511
 20
142.024665
 30
0.0
  0
LWPOLYLINE
  5
153
100
AcDbEntity
  8
Layer_1
 62
7
100
AcDbPolyline
 90
1
 70
1
 10
173.353227
 20
112.065661
 30
0.0
  0
SPLINE
  5
154
100
AcDbEntity
  8
Layer_1
 62
7
100
AcDbSpline
 70
8
 71
3
 72
8
 73
4
 74
0
 40
0
 40
0
 40
0
 40
0
 40
1
 40
1
 40
1
 40
1
 10
124.165974
 20
146.753788
 30
0.0
 10
127.264772
 20
147.763099
 30
0.0
 10
130.354274
 20
147.351225
 30
0.0
 10
133.714653
 20
148.201558
 30
0.0
  0
SPLINE
  5
155
100
AcDbEntity
  8
Layer_1
 62
7
100
AcDbSpline
 70
8
 71
3
 72
8
 73
4
 74
0
 40
0
 40
0
 40
0
 40
0
 40
1
 40
1
 40
1
 40
1
 10
133.714653
 20
148.201558
 30
0.0
 10
136.910680
 20
147.039802
 30
0.0
 10
135.801908
 20
157.438542
 30
0.0
 10
135.260026
 20
155.406403
 30
0.0
  0
SPLINE
  5
156
100
AcDbEntity
  8
Layer_1
 62
7
100
AcDbSpline
 70
8
 71
3
 72
8
 73
4
 74
0
 40
0
 40
0
 40
0
 40
0
 40
1
 40
1
 40
1
 40
1
 10
135.260026
 20
155.406403
 30
0.0
 10
134.845719
 20
158.508763
 30
0.0
 10
133.898116
 20
159.872269
 30
0.0
 10
132.486359
 20
156.084716
 30
0.0
  0
SPLINE
  5
157
100
AcDbEntity
  8
Layer_1
 62
7
100
AcDbSpline
 70
8
 71
3
 72
8
 73
4
 74
0
 40
0
 40
0
 40
0
 40
0
 40
1
 40
1
 40
1
 40
1
 10
132.486359
 20
156.084716
 30
0.0
 10
131.241496
 20
152.744920
 30
0.0
 10
127.733796
 20
158.245067
 30
0.0
 10
129.108020
 20
157.052563
 30
0.0
  0
SPLINE
  5
158
100
AcDbEntity
  8
Layer_1
 62
7
100
AcDbSpline
 70
8
 71
3
 72
8
 73
4
 74
0
 40
0
 40
0
 40
0
 40
0
 40
1
 40
1
 40
1
 40
1
 10
129.108020
 20
157.052563
 30
0.0
 10
127.523311
 20
157.778735
 30
0.0
 10
126.729077
 20
158.377919
 30
0.0
 10
125.915562
 20
156.351081
 30
0.0
  0
SPLINE
  5
159
100
AcDbEntity
  8
Layer_1
 62
7
100
AcDbSpline
 70
8
 71
3
 72
8
 73
4
 74
0
 40
0
 40
0
 40
0
 40
0
 40
1
 40
1
 40
1
 40
1
 10
125.915562
 20
156.351081
 30
0.0
 10
124.986007
 20
154.035130
 30
0.0
 10
124.551660
 20
150.714433
 30
0.0
 10
122.293364
 20
153.579701
 30
0.0
  0
SPLINE
  5
15a
100
AcDbEntity
  8
Layer_1
 62
7
100
AcDbSpline
 70
8
 71
3
 72
8
 73
4
 74
0
 40
0
 40
0
 40
0
 40
0
 40
1
 40
1
 40
1
 40
1
 10
122.293364
 20
153.579701
 30
0.0
 10
119.625894
 20
154.329845
 30
0.0
 10
124.241565
 20
146.066513
 30
0.0
 10
123.849006
 20
147.628792
 30
0.0
  0
SPLINE
  5
15b
100
AcDbEntity
  8
Layer_1
 62
7
100
AcDbSpline
 70
8
 71
3
 72
8
 73
4
 74
0
 40
0
 40
0
 40
0
 40
0
 40
1
 40
1
 40
1
 40
1
 10
123.849006
 20
147.628792
 30
0.0
 10
123.890809
 20
146.926152
 30
0.0
 10
124.418113
 20
146.959486
 30
0.0
 10
124.165974
 20
146.753788
 30
0.0
  0
LWPOLYLINE
  5
15c
100
AcDbEntity
  8
Layer_1
 62
7
100
AcDbPolyline
 90
1
 70
1
 10
115.612511
 20
142.024665
 30
0.0
  0
LWPOLYLINE
  5
15d
100
AcDbEntity
  8
Layer_1
 62
7
100
AcDbPolyline
 90
1
 70
1
 10
124.165974
 20
146.753788
 30
0.0
  0
ENDSEC
  0
SECTION
  2
OBJECTS
  0
DICTIONARY
  5
C
330
0
100
AcDbDictionary
  3
ACAD_GROUP
350
D
  3
ACAD_MLINESTYLE
350
17
  0
DICTIONARY
  5
D
330
C
100
AcDbDictionary
  0
DICTIONARY
  5
1A
330
C
100
AcDbDictionary
  0
DICTIONARY
  5
17
330
C
100
AcDbDictionary
  3
STANDARD
350
18
  0
DICTIONARY
  5
19
330
C
100
AcDbDictionary
  0
ENDSEC
  0
EOF
