<?xml version="1.0" encoding="UTF-8" standalone="no"?>
<!-- Created with Inkscape (http://www.inkscape.org/) -->

<svg
   xmlns:dc="http://purl.org/dc/elements/1.1/"
   xmlns:cc="http://creativecommons.org/ns#"
   xmlns:rdf="http://www.w3.org/1999/02/22-rdf-syntax-ns#"
   xmlns:svg="http://www.w3.org/2000/svg"
   xmlns="http://www.w3.org/2000/svg"
   xmlns:sodipodi="http://sodipodi.sourceforge.net/DTD/sodipodi-0.dtd"
   xmlns:inkscape="http://www.inkscape.org/namespaces/inkscape"
   width="11in"
   height="8.5in"
   viewBox="0 0 279.4 215.9"
   version="1.1"
   id="svg4988"
   inkscape:version="0.92.5 (2060ec1f9f, 2020-04-08)"
   sodipodi:docname="Eli_Amogus_Board_Outline.svg">
  <defs
     id="defs4982" />
  <sodipodi:namedview
     id="base"
     pagecolor="#ffffff"
     bordercolor="#666666"
     borderopacity="1.0"
     inkscape:pageopacity="0.0"
     inkscape:pageshadow="2"
     inkscape:zoom="0.35"
     inkscape:cx="268.36818"
     inkscape:cy="560"
     inkscape:document-units="mm"
     inkscape:current-layer="layer1"
     showgrid="false"
     units="in"
     inkscape:window-width="1080"
     inkscape:window-height="933"
     inkscape:window-x="0"
     inkscape:window-y="960"
     inkscape:window-maximized="0" />
  <metadata
     id="metadata4985">
    <rdf:RDF>
      <cc:Work
         rdf:about="">
        <dc:format>image/svg+xml</dc:format>
        <dc:type
           rdf:resource="http://purl.org/dc/dcmitype/StillImage" />
        <dc:title></dc:title>
      </cc:Work>
    </rdf:RDF>
  </metadata>
  <g
     inkscape:label="Layer 1"
     inkscape:groupmode="layer"
     id="layer1"
     transform="translate(0,-81.1)">
    <path
       style="display:inline;fill:none;fill-opacity:1;stroke:#000000;stroke-width:0.2646049;stroke-linecap:square;stroke-linejoin:miter;stroke-miterlimit:4;stroke-dasharray:none;stroke-opacity:1"
       d="m 159.77724,99.549238 c -1.69717,0.06882 -3.04403,1.321782 -4.02393,2.598842 -0.14257,0.19436 -0.2678,0.45202 -0.5017,0.16423 -1.1758,-0.67202 -2.39557,-1.39232 -3.75949,-1.57086 -1.63636,-0.0398 -3.02945,1.24365 -3.56244,2.71986 -0.28577,0.6563 -0.45416,1.35666 -0.74153,2.01227 -1.31746,-0.33711 -2.89469,-0.50623 -4.02845,0.4065 -1.20568,0.97179 -1.42249,2.75357 -0.90111,4.14287 0.47258,1.78478 1.32617,3.43239 2.03932,5.12636 -2.51845,0.98152 -4.91022,2.25338 -7.21582,3.65776 -2.48272,1.46196 -4.92769,3.28017 -6.26672,5.90489 -1.32824,2.49995 -2.01738,5.27011 -2.79757,7.97148 -0.33481,2.09087 -0.0905,4.2156 -0.2385,6.31462 -0.099,4.94546 -0.15618,9.89264 -0.30855,14.83535 -1.65079,-0.3737 -3.53121,-0.61556 -5.05905,0.28866 -1.28854,0.84566 -1.69927,2.46427 -1.853,3.90755 -1.30127,7.73705 -2.57522,15.48847 -3.33748,23.30006 -0.0767,1.64081 0.5163,3.36325 1.81879,4.41573 1.56121,1.38192 3.71199,1.75178 5.72395,1.90278 0.42246,-0.0801 0.2341,0.43968 0.31469,0.69786 0.37838,4.22397 1.00433,8.42381 1.15025,12.65585 0.28825,3.77078 0.74076,7.6578 2.51311,11.05924 1.62058,2.73843 4.55779,4.43793 7.57838,5.20578 1.57763,0.43828 3.10642,1.01952 4.53417,1.80848 1.20076,0.44447 2.65349,0.17044 3.54932,-0.75877 1.07618,-0.56013 2.2194,-1.00457 3.19488,-1.74176 1.82267,-1.2565 3.25559,-3.15941 3.67133,-5.36159 1.20705,-4.54494 1.78778,-9.2192 2.43214,-13.86753 0.0979,-0.64619 0.20196,-1.30413 0.316,-1.95276 1.51262,-0.1924 3.0169,-0.50485 4.42527,-1.10334 1.81414,-0.6863 3.68211,-1.32005 5.64019,-1.46216 0.9762,-0.13335 1.94969,-0.25226 2.92783,-0.34182 0.67817,2.27547 1.84787,4.3974 3.4286,6.17069 2.35315,2.8447 5.13011,5.31461 8.051,7.55947 1.96952,1.33548 4.33568,2.05486 6.71084,2.07761 0.7311,0.14984 1.63112,0.0857 2.09125,-0.58473 4.30816,-4.25272 8.02092,-9.15053 10.77774,-14.53758 0.79039,-1.372 1.8651,-2.59453 2.46051,-4.07006 0.2652,-1.35366 -0.0812,-2.72695 0.005,-4.09011 -0.10848,-4.6485 -0.59137,-9.28519 -0.62862,-13.92733 0.0342,-0.86537 0.0692,-1.73442 0.14945,-2.59241 1.92627,-1.7059 3.0623,-4.1076 3.78141,-6.53725 0.84011,-2.36011 1.39722,-4.99837 0.58597,-7.44752 -0.69825,-2.33947 -1.95389,-4.50807 -3.57388,-6.32811 -1.10653,-1.11763 -2.49144,-1.96229 -3.99974,-2.41234 -0.0121,-5.79599 -1.96594,-11.42648 -4.72146,-16.46344 -2.23499,-4.00058 -5.35658,-7.62717 -9.39734,-9.87477 -0.69484,-0.37206 -1.4624,-0.57256 -2.21446,-0.77976 -0.83257,-0.42093 -1.49447,-1.12594 -2.37978,-1.45571 -2.66148,-1.30834 -5.67731,-1.74321 -8.2724,-3.18204 -1.5422,-1.17994 -3.54647,-1.50699 -5.44177,-1.52956 -0.25102,-3.69083 -0.46316,-7.45111 -1.62958,-10.98764 -0.56949,-1.11112 -1.7408,-1.96141 -3.01734,-1.943842 z"
       id="path4894"
       inkscape:connector-curvature="0" />
  </g>
</svg>
